<svg xmlns="http://www.w3.org/2000/svg" viewBox="0 0 1197.0057 133.2923"><defs><style>.cls-1{fill:#00629b;}</style></defs><g id="Layer_2" data-name="Layer 2"><g id="Final"><path class="cls-1" d="M43.3828,7.1062l-.2236,22.2149v7.63c-.1492,9.5-.4489,13.8381-4.4129,18.0273-5.5343,5.8341-13.7635,5.8341-16.4569,5.8341-10.0217,0-15.7827-3.74-18.6237-7.7788C1.0469,49.4421.6,45.4036.3743,37.3251V31.7892C.2982,20.1211.2982,18.0272,0,7.33L.4489,6.881c5.0869.0761,6.8064.0761,13.164-.2237l.3743.4489c-.1491,7.4045-.2237,13.164-.2237,19.2233,0,3.9639,0,7.9294.1491,11.8934.1507,4.7126.5981,7.33,1.721,9.2745a8.83,8.83,0,0,0,7.63,3.9655A8.64,8.64,0,0,0,29.8461,48.77c2.0177-2.3936,2.2429-5.9848,2.2429-13.8381,0-9.2-.3743-18.4-.7487-27.6016l.4505-.4489c4.2637.0761,5.758.0761,11.2192-.2237Z"/><path class="cls-1" d="M87.3759,59.616c-5.9848,0-7.2569.0746-12.1932.2237l-.4474-.4489c0-2.5427.0731-5.1615.0731-7.7042,0-2.8425-.0731-13.0894-.2237-15.5576-.2237-2.6933-.598-7.1062-4.7126-7.1062-2.3921,0-4.1877,1.2706-5.76,2.3191.0745,13.3891.1506,16.3062.598,27.8252l-.4474.4489c-5.9847,0-7.1062,0-12.4929.2237l-.4474-.4489c.0731-4.7872.1491-9.5743.1491-14.3615a208.1969,208.1969,0,0,0-1.0469-23.4124l.4474-.5235c5.6119-.7471,6.8825-.9723,12.642-2.1684l.7487.5235-.1506,4.1131c3.4405-2.0193,7.4059-4.4129,11.9679-4.4129,2.6934,0,6.9571.598,9.2761,4.4874,1.8686,3.0677,1.9447,6.5082,2.0193,13.689v5.8341c.1491,7.3314.1491,9.4252.5234,16.0079Z"/><path class="cls-1" d="M108.3612,59.6906c-6.0593-.0746-7.5551,0-12.94.2237l-.45-.5235c.2252-6.1338.45-10.6958.45-18.8489a141.919,141.919,0,0,0-.8232-18.925l.4489-.4489,12.8642-2.243.5235.598c-.0731,6.3576-.2237,12.7912-.2237,19.1487,0,10.3215.3,14.7359.6741,20.4954Zm-1.0469-47.4229c-5.3106.6726-6.7318.8217-11.82,1.72l-.5235-.4489c.0761-1.4212.0761-2.917.0761-4.3383,0-1.794-.0761-3.3659-.2252-6.0577l.4489-.5235,12.1931-1.4973.4474.4489-.2237,10.1739Z"/><path class="cls-1" d="M137.2821,59.6906c-5.3837-.0746-7.33,0-12.1916.2237l-.5235-.5235c-1.6464-6.1338-2.4681-8.9-12.4168-38.372l.2982-.598a98.479,98.479,0,0,0,13.091-.8232l.5234.4489c1.0485,4.9363,1.3467,6.3575,3.2168,13.3146l1.4213,5.76,1.87,8.0786,3.8133-14.7359c1.4974-5.8341,1.7226-6.881,2.7695-11.8934l.5234-.5234,10.4722-.2252.3728.525c-2.0938,6.1323-5.3852,15.8573-7.4045,21.9151-1.5719,4.7126-2.9931,9.3506-5.3852,16.8312Z"/><path class="cls-1" d="M186.6177,48.8441l-.5234,8.4529-.4489.598c-3.964,1.57-6.6573,2.6934-12.8657,2.6934-5.3868,0-15.5576-.8978-19.8974-10.9956a24.9113,24.9113,0,0,1-1.7956-9.8c0-12.94,7.78-20.6445,19.523-20.6445a19.15,19.15,0,0,1,5.3107.6726c2.5442.5995,8.3037,2.3936,10.9225,11.2208a43.927,43.927,0,0,1,1.1961,11.1447l-.4489.5235-24.16.4489a10.5884,10.5884,0,0,0,1.6449,4.5634c1.7941,2.6919,4.8618,4.1131,9.3507,4.1131A22.8634,22.8634,0,0,0,186.0943,48.62ZM175.92,34.9315a9.13,9.13,0,0,0-1.1215-5.1615,5.7406,5.7406,0,0,0-7.7788-1.7941c-2.8425,1.7941-3.3659,4.9363-3.59,7.2553Z"/><path class="cls-1" d="M215.0212,32.2381a5.598,5.598,0,0,0-3.0661-1.0469c-5.087,0-5.087,4.9378-5.087,8.3038,0,5.16.45,13.6128.7487,19.6721l-.3743.5235c-5.9833-.0746-7.1793,0-12.7151.2237l-.4489-.4489c.1491-6.2084.2237-12.3408.2237-18.4746,0-10.3976-.2237-13.7635-.6726-19.3739l.4489-.4489c5.4613-.8217,6.881-1.0469,12.4168-2.243l.598.598-.2252,6.881c2.3951-5.5343,5.8356-7.2553,8.9018-7.2553.5235,0,1.0469.0746,1.57.0746l.45.5234L215.6953,31.94Z"/><path class="cls-1" d="M241.1255,35.2312C245.2386,36.8016,251,38.97,251,47.1992a12.4523,12.4523,0,0,1-.0761,1.6449c-1.3451,10.6958-12.5659,11.7443-18.2509,11.7443-5.46,0-8.602-1.1976-12.2677-2.5443l-.3728-.6725c.3-3.74.3728-4.5635.5235-8.4529l.6741-.2983a16.402,16.402,0,0,0,2.9916,2.0939,18.7091,18.7091,0,0,0,7.9279,2.0938c4.1891,0,5.91-2.0193,5.91-3.8894,0-2.6919-3.2929-3.8149-5.3106-4.4874l-2.8425-1.0469c-3.5166-1.3467-9.725-3.74-9.725-11.7443a11.2579,11.2579,0,0,1,2.0193-6.5827c3.8894-5.6089,11.2208-5.9087,14.885-5.9087a38.1071,38.1071,0,0,1,11.446,1.87l.3728.4489-.7472,8.1531-.6741.2237a16.2363,16.2363,0,0,0-9.3506-3.1407c-4.6366,0-5.2346,2.4682-5.2346,3.3659,0,2.0939,2.0193,2.9171,4.562,3.8149Z"/><path class="cls-1" d="M269.7831,59.6906c-6.0577-.0746-7.5535,0-12.94.2237l-.4473-.5235c.2237-6.1338.4473-10.6958.4473-18.8489,0-10.6213-.2236-13.24-.8217-18.925l.4489-.4489,12.8658-2.243.5234.598c-.0761,6.3576-.2252,12.7912-.2252,19.1487,0,10.3215.3,14.7359.6726,20.4954Zm-1.0469-47.4229c-5.3106.6726-6.7318.8217-11.8173,1.72l-.5234-.4489c.0745-1.4212.0745-2.917.0745-4.3383,0-1.794-.0745-3.3659-.2237-6.0577l.4474-.5235,12.1916-1.4973.4505.4489-.2252,10.1739Z"/><path class="cls-1" d="M313.7868,59.6906c-5.61,0-7.0316,0-12.1931.2237l-.3728-.4489.1491-2.9171a13.7078,13.7078,0,0,1-9.8741,4.04,15.7731,15.7731,0,0,1-9.7981-3.2914c-4.4128-3.6657-5.9847-9.5-5.9847-15.3339,0-7.7042,2.1684-13.9126,7.406-17.9527,5.6849-4.4874,12.715-4.3382,18.3254-4.1891.0746-8.5259,0-10.3961-.4489-17.4277l.3744-.4489L313.7107,0l.5235.4489c-.2983,9.8741-.5965,18.0272-.5965,37.774,0,9.798.2237,14.2869.5234,21.0188Zm-14.885-31.1167c-8.3783,0-10.0247,6.4321-10.0247,12.1917,0,1.4958,0,10.7719,7.2568,10.7719a9.4658,9.4658,0,0,0,5.087-1.7956c.2236-9.0509.2982-10.9956.2236-20.9443A16.8214,16.8214,0,0,0,298.9018,28.5739Z"/><path class="cls-1" d="M354.8537,42.9355c0,7.03,0,8.9.5234,16.2316l-.3743.5235c-4.8617-.0746-6.5067,0-11.8934.2237l-.4474-.5235V56.6229a15.466,15.466,0,0,1-10.3991,3.9655c-7.33,0-13.0894-5.1615-13.0894-13.1655a11.9592,11.9592,0,0,1,5.61-10.247c4.4874-2.7679,8.6766-3.5911,17.6529-4.7871a4.7215,4.7215,0,0,0-.9723-3.2168c-.9724-.9724-2.0954-1.4213-4.8618-1.4213-5.0123,0-9.8741,1.9447-12.4929,2.9916l-.5965-.2982.3728-8.1531.4489-.6a45.5486,45.5486,0,0,1,14.66-2.4681c9.5744,0,12.5675,2.9916,14.0633,5.3852,1.9447,3.1422,1.9447,6.0593,1.87,12.7911ZM342.586,40.2421c-5.0855.6741-10.9956,1.4958-10.9956,6.4336,0,3.1408,2.2444,4.562,4.9363,4.562a12.1124,12.1124,0,0,0,6.0593-1.9447Z"/><path class="cls-1" d="M398.7874,59.6906c-5.61,0-7.0317,0-12.1932.2237l-.3728-.4489.1491-2.9171a13.7078,13.7078,0,0,1-9.8741,4.04,15.7727,15.7727,0,0,1-9.798-3.2914c-4.4129-3.6657-5.9848-9.5-5.9848-15.3339,0-7.7042,2.1684-13.9126,7.406-17.9527,5.685-4.4874,12.7151-4.3382,18.3255-4.1891.0745-8.5259,0-10.3961-.4489-17.4277l.3743-.4489L398.7113,0l.5234.4489c-.2982,9.8741-.5965,18.0272-.5965,37.774,0,9.798.2237,14.2869.5235,21.0188Zm-14.885-31.1167c-8.3783,0-10.0248,6.4321-10.0248,12.1917,0,1.4958,0,10.7719,7.2569,10.7719a9.4652,9.4652,0,0,0,5.0869-1.7956c.2237-9.0509.2982-10.9956.2237-20.9443A16.8214,16.8214,0,0,0,383.9024,28.5739Z"/><path class="cls-1" d="M474.9257,7.1062c-.0761,8.3768-.1491,16.6806-.1491,25.0574,0,8.9763.073,16.3062.1491,27.1527l-.3743.3743c-3.9655,0-5.3107,0-9.8726.2237l-.525-.3744-6.6573-9.7234-7.4806-10.9956c-5.0854-7.4045-6.2814-9.3492-9.798-15.1848l.4489,10.0233.2252,9.2015.7471,16.3808-.3728.4489c-4.34,0-5.91,0-10.9225.2237l-.3728-.4489c.0745-7.2553.2236-14.5852.2236-21.9151,0-10.0233-.2236-18.6253-.598-30.22l.3744-.4489c5.46.0761,6.4321.0761,12.3422-.2237l.5235.3743c1.8686,2.9916,2.9916,4.6366,8.6005,13.164l6.8079,9.9487c3.8149,5.685,4.1877,6.283,6.3576,9.9487l-.2983-12.3423-.3-10.323L463.4812,7.33l.3728-.4489c4.6381.0761,5.91,0,10.6228-.2237Z"/><path class="cls-1" d="M516.799,42.9355c0,7.03,0,8.9.5235,16.2316l-.3743.5235c-4.86-.0746-6.5067,0-11.8934.2237l-.4474-.5235V56.6229A15.4617,15.4617,0,0,1,494.21,60.5884c-7.33,0-13.0909-5.1615-13.0909-13.1655a11.9572,11.9572,0,0,1,5.6119-10.247c4.4874-2.7679,8.6766-3.5911,17.6514-4.7871a4.7206,4.7206,0,0,0-.9708-3.2168c-.9739-.9724-2.0954-1.4213-4.8633-1.4213-5.0124,0-9.8726,1.9447-12.4914,2.9916l-.598-.2982.3743-8.1531.4474-.6a45.5581,45.5581,0,0,1,14.6613-2.4681c9.5743,0,12.5675,2.9916,14.0618,5.3852,1.9447,3.1422,1.9447,6.0593,1.8716,12.7911Zm-12.2677-2.6934c-5.0854.6741-10.9956,1.4958-10.9956,6.4336,0,3.1408,2.246,4.562,4.9378,4.562a12.106,12.106,0,0,0,6.0578-1.9447Z"/><path class="cls-1" d="M554.1865,49.293l-.2983,8.9763-.4489.4489a31.3186,31.3186,0,0,1-9.6489,1.645c-16.83,0-21.3186-11.6682-21.3186-20.27,0-7.63,3.442-20.9443,21.02-20.9443a31.1061,31.1061,0,0,1,10.4706,1.9447l.3743.4489c-.598,3.9639-.6741,5.0124-.9723,8.9763l-.7487.2237c-2.2429-1.4958-4.0385-2.6918-7.33-2.6918-7.2553,0-9.6489,6.283-9.6489,11.7427,0,4.4889,1.72,11.5191,10.1724,11.5191a13.3247,13.3247,0,0,0,7.78-2.3936Z"/><path class="cls-1" d="M573.0628,59.6906c-6.0578-.0746-7.5551,0-12.94.2237l-.4489-.5235c.2252-6.1338.4489-10.6958.4489-18.8489,0-10.6213-.2237-13.24-.8232-18.925l.4489-.4489,12.8657-2.243.5235.598c-.0746,6.3576-.2237,12.7912-.2237,19.1487,0,10.3215.3,14.7359.6726,20.4954Zm-1.0469-47.4229c-5.3106.6726-6.7319.8217-11.8188,1.72l-.5235-.4489c.0746-1.4212.0746-2.917.0746-4.3383,0-1.794-.0746-3.3659-.2237-6.0577l.4474-.5235L572.165,1.1215l.4489.4489-.2252,10.1739Z"/><path class="cls-1" d="M598.7836,60.5884c-10.6958,0-14.3615-4.04-16.3062-6.9571-2.7664-4.0385-3.5151-8.9-3.5151-13.6874,0-13.7636,7.3314-20.7206,20.3448-20.7206a26.9222,26.9222,0,0,1,9.127,1.4212c10.4721,4.1146,10.4721,16.2317,10.4721,19.1487C618.9062,51.014,614.6425,60.5884,598.7836,60.5884Zm5.0124-31.3419a6.2932,6.2932,0,0,0-4.7872-2.319,6.1934,6.1934,0,0,0-5.46,3.3659c-1.4974,2.6188-1.4974,7.406-1.4974,9.5744,0,7.2568,1.4213,9.7995,2.6934,11.07a6.0459,6.0459,0,0,0,4.1876,1.721c6.2085,0,7.0332-6.8064,7.0332-12.94C605.9659,35.68,605.5916,31.4164,603.796,29.2465Z"/><path class="cls-1" d="M661.125,59.616c-5.9848,0-7.2554.0746-12.1932.2237l-.4489-.4489c0-2.5427.0761-5.1615.0761-7.7042,0-2.8425-.0761-13.0894-.2252-15.5576-.2237-2.6933-.598-7.1062-4.7126-7.1062-2.3936,0-4.1877,1.2706-5.76,2.3191.0746,13.3891.1507,16.3062.5981,27.8252l-.4474.4489c-5.9847,0-7.1062,0-12.4929.2237l-.4474-.4489c.073-4.7872.1491-9.5743.1491-14.3615a208.1969,208.1969,0,0,0-1.0469-23.4124l.4474-.5235c5.6119-.7471,6.8825-.9723,12.642-2.1684l.7487.5235-.1507,4.1131c3.4405-2.0193,7.406-4.4129,11.968-4.4129,2.6933,0,6.9571.598,9.2761,4.4874,1.87,3.0677,1.9447,6.5082,2.0193,13.689v5.8341c.1491,7.3314.1491,9.4252.5234,16.0079Z"/><path class="cls-1" d="M702.14,42.9355c0,7.03,0,8.9.5234,16.2316l-.3743.5235c-4.8617-.0746-6.5082,0-11.8934.2237l-.4489-.5235V56.6229a15.46,15.46,0,0,1-10.396,3.9655c-7.3314,0-13.091-5.1615-13.091-13.1655a11.9592,11.9592,0,0,1,5.61-10.247c4.4874-2.7679,8.6766-3.5911,17.6529-4.7871a4.7215,4.7215,0,0,0-.9723-3.2168c-.9724-.9724-2.0954-1.4213-4.8617-1.4213-5.0124,0-9.8742,1.9447-12.4914,2.9916l-.6-.2982.3743-8.1531.4489-.6a45.551,45.551,0,0,1,14.6613-2.4681c9.5744,0,12.566,2.9916,14.0618,5.3852,1.9447,3.1422,1.9447,6.0593,1.87,12.7911Zm-12.2677-2.6934c-5.0855.6741-10.9956,1.4958-10.9956,6.4336,0,3.1408,2.2444,4.562,4.9363,4.562a12.1074,12.1074,0,0,0,6.0593-1.9447Z"/><path class="cls-1" d="M722.6537,59.6906c-5.46-.0746-7.4805,0-12.4914.2237l-.4489-.5235c.3-7.4044.4489-11.8934.4489-19.9719,0-4.4129,0-8.8257-.0745-13.2386-.1507-12.1185-.2252-14.5867-.9724-23.7121l.2983-.4489L722.2048,0l.5235.5235c-.3,8.0785-.3743,11.4444-.3743,18.5506,0,23.6362.3743,31.491.7486,40.093Z"/><path class="cls-1" d="M789.8933,59.6906c-5.61,0-7.0316,0-12.1916.2237l-.3743-.4489.1491-2.9171a13.7037,13.7037,0,0,1-9.8726,4.04,15.7769,15.7769,0,0,1-9.8-3.2914c-4.4128-3.6657-5.9832-9.5-5.9832-15.3339,0-7.7042,2.1684-13.9126,7.4045-17.9527,5.6849-4.4874,12.7166-4.3382,18.3254-4.1891.0761-8.5259,0-10.3961-.4488-17.4277l.3743-.4489L789.8188,0l.5234.4489c-.3,9.8741-.598,18.0272-.598,37.774,0,9.798.2237,14.2869.5234,21.0188Zm-14.885-31.1167c-8.3768,0-10.0232,6.4321-10.0232,12.1917,0,1.4958,0,10.7719,7.2553,10.7719a9.4563,9.4563,0,0,0,5.087-1.7956c.2236-9.0509.3-10.9956.2236-20.9443A16.7882,16.7882,0,0,0,775.0083,28.5739Z"/><path class="cls-1" d="M831.2752,48.8441l-.5235,8.4529-.4489.598c-3.9639,1.57-6.6573,2.6934-12.8657,2.6934-5.3852,0-15.5591-.8978-19.8974-10.9956a24.9136,24.9136,0,0,1-1.794-9.8c0-12.94,7.7787-20.6445,19.5215-20.6445a19.15,19.15,0,0,1,5.3106.6726c2.5442.5995,8.3038,2.3936,10.921,11.2208a43.79,43.79,0,0,1,1.1976,11.1447l-.4489.5235-24.1611.4489a10.61,10.61,0,0,0,1.6465,4.5634c1.7955,2.6919,4.8617,4.1131,9.3491,4.1131a22.8649,22.8649,0,0,0,11.67-3.2153ZM820.5778,34.9315a9.1418,9.1418,0,0,0-1.1215-5.1615,5.74,5.74,0,0,0-7.7787-1.7941c-2.8425,1.7941-3.366,4.9363-3.5912,7.2553Z"/><path class="cls-1" d="M875.6243,7.1062c-.2237,10.3215-.3744,20.6445-.3744,30.9675,0,10.845.1507,14.2855.5235,21.168l-.4489.4489c-6.2084,0-7.7042,0-13.3131.2237l-.3743-.4489c.2982-7.7788.4489-12.3408.4489-21.168,0-19.0741-.2253-22.889-.6741-30.9675l.3-.4489c5.3852.0761,7.1062.0761,13.5383-.2237Z"/><path class="cls-1" d="M920.2473,59.616c-5.9848,0-7.2554.0746-12.1932.2237l-.4489-.4489c0-2.5427.0761-5.1615.0761-7.7042,0-2.8425-.0761-13.0894-.2252-15.5576-.2237-2.6933-.598-7.1062-4.7126-7.1062-2.3936,0-4.1877,1.2706-5.76,2.3191.0745,13.3891.1506,16.3062.5995,27.8252l-.4489.4489c-5.9847,0-7.1062,0-12.4929.2237l-.4474-.4489c.0746-4.7872.1491-9.5743.1491-14.3615a208.1969,208.1969,0,0,0-1.0469-23.4124l.4489-.5235c5.6089-.7471,6.881-.9723,12.64-2.1684l.7487.5235-.1506,4.1131c3.44-2.0193,7.4059-4.4129,11.9679-4.4129,2.6934,0,6.9571.598,9.2761,4.4874,1.87,3.0677,1.9447,6.5082,2.0193,13.689v5.8341c.1491,7.3314.1491,9.4252.5234,16.0079Z"/><path class="cls-1" d="M940.6544,49.6673a31.5035,31.5035,0,0,0,7.4044,1.87l1.7956.2982c4.8618,1.123,13.0894,2.9171,13.0894,12.3423,0,7.2553-6.283,14.1378-19.9719,14.1378-2.917,0-8.6005-.1506-12.79-3.1422a10.5434,10.5434,0,0,1-4.6381-8.4529c0-4.8617,3.5151-7.7042,5.76-9.4237l-3.1407-2.2445V54.38c1.72-3.0677,2.841-5.087,4.9363-9.1255a12.8612,12.8612,0,0,1-5.0124-4.1892,12.1218,12.1218,0,0,1-2.1684-7.2553,12.5443,12.5443,0,0,1,4.7872-10.0978c4.8617-4.04,11.9679-3.8909,17.2786-3.74l3.4405.0746c4.7126.0746,6.283,0,12.0425-.2252l.4489.3743-.5235,7.4806-.4489.3743-5.1615-.3a9.785,9.785,0,0,1,2.0208,6.5082c0,7.2553-5.685,10.4721-9.5744,11.8173a20.9587,20.9587,0,0,1-8.3783.9723Zm-1.9447,11.07a7.1046,7.1046,0,0,0-2.17,4.9363c0,2.6188,1.87,5.76,7.406,5.76,4.9363,0,6.8064-2.319,6.8064-4.5619a3.298,3.298,0,0,0-1.4958-2.9171c-.8978-.7487-.9724-.7487-7.63-2.4681Zm4.3383-33.7354c-2.7679,0-5.0124,2.3935-5.0124,6.1338a10.2921,10.2921,0,0,0,.6741,3.8894,4.8379,4.8379,0,0,0,4.4874,3.1422c1.0469,0,4.7126-.5234,4.7872-6.5827C948.0588,30.2934,946.4885,27.0021,943.048,27.0021Z"/><path class="cls-1" d="M1001.3128,48.8441l-.5235,8.4529-.4489.598c-3.9639,1.57-6.6573,2.6934-12.8657,2.6934-5.3852,0-15.5591-.8978-19.8974-10.9956a24.9136,24.9136,0,0,1-1.794-9.8c0-12.94,7.7787-20.6445,19.5215-20.6445a19.15,19.15,0,0,1,5.3106.6726c2.5442.5995,8.3038,2.3936,10.921,11.2208a43.79,43.79,0,0,1,1.1976,11.1447l-.4489.5235-24.1611.4489a10.61,10.61,0,0,0,1.6465,4.5634c1.7955,2.6919,4.8617,4.1131,9.3491,4.1131a22.8649,22.8649,0,0,0,11.67-3.2153ZM990.6154,34.9315a9.1418,9.1418,0,0,0-1.1215-5.1615,5.74,5.74,0,0,0-7.7787-1.7941c-2.8425,1.7941-3.366,4.9363-3.5912,7.2553Z"/><path class="cls-1" d="M1044.9619,59.616c-5.9847,0-7.2553.0746-12.1932.2237l-.4489-.4489c0-2.5427.0761-5.1615.0761-7.7042,0-2.8425-.0761-13.0894-.2252-15.5576-.2237-2.6933-.598-7.1062-4.7126-7.1062-2.3936,0-4.1876,1.2706-5.76,2.3191.0745,13.3891.1506,16.3062.598,27.8252l-.4474.4489c-5.9847,0-7.1062,0-12.4929.2237l-.4474-.4489c.0746-4.7872.1492-9.5743.1492-14.3615a208.1969,208.1969,0,0,0-1.0469-23.4124l.4488-.5235c5.6089-.7471,6.881-.9723,12.6406-2.1684l.7486.5235-.1506,4.1131c3.4405-2.0193,7.406-4.4129,11.9679-4.4129,2.6934,0,6.9571.598,9.2761,4.4874,1.87,3.0677,1.9447,6.5082,2.0193,13.689v5.8341c.1491,7.3314.1491,9.4252.5234,16.0079Z"/><path class="cls-1" d="M1065.9457,59.6906c-6.0593-.0746-7.5551,0-12.94.2237l-.4488-.5235c.2236-6.1338.4488-10.6958.4488-18.8489a141.919,141.919,0,0,0-.8232-18.925l.4489-.4489,12.8657-2.243.5235.598c-.0746,6.3576-.2252,12.7912-.2252,19.1487,0,10.3215.3,14.7359.6741,20.4954Zm-1.0484-47.4229c-5.3106.6726-6.7319.8217-11.8173,1.72l-.5234-.4489c.0745-1.4212.0745-2.917.0745-4.3383,0-1.794-.0745-3.3659-.2252-6.0577l.4489-.5235,12.1931-1.4973.4489.4489-.2252,10.1739Z"/><path class="cls-1" d="M1107.2545,48.8441l-.5234,8.4529-.4489.598c-3.964,1.57-6.6573,2.6934-12.8657,2.6934-5.3852,0-15.5591-.8978-19.8974-10.9956a24.9135,24.9135,0,0,1-1.7941-9.8c0-12.94,7.7788-20.6445,19.5216-20.6445a19.15,19.15,0,0,1,5.3106.6726c2.5442.5995,8.3037,2.3936,10.921,11.2208a43.79,43.79,0,0,1,1.1976,11.1447l-.4489.5235-24.1611.4489a10.6115,10.6115,0,0,0,1.6464,4.5634c1.7956,2.6919,4.8618,4.1131,9.3492,4.1131a22.8649,22.8649,0,0,0,11.67-3.2153Zm-10.6973-13.9126a9.1426,9.1426,0,0,0-1.1215-5.1615,5.7406,5.7406,0,0,0-7.7788-1.7941c-2.8424,1.7941-3.3659,4.9363-3.5911,7.2553Z"/><path class="cls-1" d="M1135.66,32.2381a5.6024,5.6024,0,0,0-3.0662-1.0469c-5.0869,0-5.0869,4.9378-5.0869,8.3038,0,5.16.4488,13.6128.7486,19.6721l-.3743.5235c-5.9847-.0746-7.1808,0-12.7166.2237l-.4489-.4489c.1506-6.2084.2252-12.3408.2252-18.4746,0-10.3976-.2252-13.7635-.6741-19.3739l.4489-.4489c5.4613-.8217,6.8825-1.0469,12.4168-2.243l.6.598-.2252,6.881c2.3935-5.5343,5.834-7.2553,8.9017-7.2553.5235,0,1.0469.0746,1.57.0746l.4489.5234L1136.3337,31.94Z"/><path class="cls-1" d="M1155.7639,59.6906c-6.0593-.0746-7.5551,0-12.94.2237l-.4489-.5235c.2237-6.1338.4489-10.6958.4489-18.8489A141.919,141.919,0,0,0,1142,21.6169l.4489-.4489,12.8657-2.243.5234.598c-.0745,6.3576-.2252,12.7912-.2252,19.1487,0,10.3215.3,14.7359.6741,20.4954Zm5.0854-57.2224c-2.3936,3.6657-5.76,8.8272-8.0785,12.642l-.5235.2982h-8.0785l-.2983-.4489a81.6275,81.6275,0,0,0,4.562-12.4913l.3743-.3744,11.8188-.1491Z"/><path class="cls-1" d="M1196.4823,42.9355c0,7.03,0,8.9.5234,16.2316l-.3743.5235c-4.8617-.0746-6.5082,0-11.8934.2237l-.4489-.5235V56.6229a15.46,15.46,0,0,1-10.396,3.9655c-7.3314,0-13.091-5.1615-13.091-13.1655a11.9592,11.9592,0,0,1,5.61-10.247c4.4874-2.7679,8.6766-3.5911,17.6529-4.7871a4.7215,4.7215,0,0,0-.9723-3.2168c-.9724-.9724-2.0953-1.4213-4.8617-1.4213-5.0124,0-9.8742,1.9447-12.4914,2.9916l-.6-.2982.3744-8.1531.4488-.6a45.551,45.551,0,0,1,14.6613-2.4681c9.5744,0,12.566,2.9916,14.0618,5.3852,1.9447,3.1422,1.9447,6.0593,1.87,12.7911Zm-12.2677-2.6934c-5.0855.6741-10.9956,1.4958-10.9956,6.4336,0,3.1408,2.2444,4.562,4.9363,4.562a12.1074,12.1074,0,0,0,6.0593-1.9447Z"/><path class="cls-1" d="M8.7161,86.3609c-.1978,4.3855-.3286,9.5576-.3286,20.815,0,12.5674.1308,17.9359.5234,24.6769l-.3926.458c-2.879.0654-3.795.0654-7.2644.1963l-.3926-.458c.1308-3.9929.2617-7.4623.2617-15.906,0-9.8833,0-19.7011-.46-29.52l.3287-.5234c2.879,0,3.9259,0,7.2645-.1963Z"/><path class="cls-1" d="M46.3044,126.9439c-.1978,2.2262-.1978,2.6842-.3286,4.9089l-.4581.458c-12.7637,0-14.7921.0654-27.23.1963l-.3256-.458c.1948-5.1707.3926-8.7055.3926-20.6841,0-10.9956,0-17.28-.4595-24.8078l.3925-.458c12.8962-.0654,15.448-.0654,27.4936-.1963l.3926.458c-.1978,1.9645-.3287,2.75-.46,5.1067l-.3926.4581c-8.4437-.2618-11.2573-.2618-19.5717-.3272-.1948,6.0213-.1948,7.9188-.1948,13.9416,8.05.0654,10.5376,0,18.5233-.1309l.3272.458a46.4322,46.4322,0,0,0-.3272,5.04l-.3925.458c-7.5932-.1963-9.229-.1963-18.1308-.1963-.1308,7.5932-.0669,9.4252,0,15.6443,9.8833,0,11.9117,0,20.357-.3271Z"/><path class="cls-1" d="M80.8053,126.9439c-.1963,2.2262-.1963,2.6842-.3272,4.9089l-.4595.458c-12.7638,0-14.7922.0654-27.2288.1963l-.3271-.458c.1962-5.1707.3925-8.7055.3925-20.6841,0-10.9956,0-17.28-.458-24.8078l.3926-.458c12.8946-.0654,15.448-.0654,27.492-.1963l.3926.458c-.1963,1.9645-.3271,2.75-.458,5.1067l-.3926.4581c-8.4453-.2618-11.2588-.2618-19.5717-.3272-.1963,6.0213-.1963,7.9188-.1963,13.9416,8.0511.0654,10.5376,0,18.5233-.1309l.3287.458a46.7808,46.7808,0,0,0-.3287,5.04l-.3926.458c-7.5931-.1963-9.2289-.1963-18.1307-.1963-.1309,7.5932-.0654,9.4252,0,15.6443,9.8832,0,11.9132,0,20.3569-.3271Z"/><path class="cls-1" d="M115.3061,126.9439c-.1947,2.2262-.1947,2.6842-.3256,4.9089l-.46.458c-12.7638,0-14.7937.0654-27.2288.1963l-.3287-.458c.1978-5.1707.3941-8.7055.3941-20.6841,0-10.9956,0-17.28-.458-24.8078l.3926-.458c12.8946-.0654,15.448-.0654,27.4905-.1963l.3926.458c-.1948,1.9645-.3257,2.75-.4565,5.1067l-.3941.4581c-8.4438-.2618-11.2589-.2618-19.57-.3272-.1979,6.0213-.1979,7.9188-.1979,13.9416,8.0527.0654,10.5391,0,18.5249-.1309l.3271.458a46.4058,46.4058,0,0,0-.3271,5.04l-.3926.458c-7.5932-.1963-9.2305-.1963-18.1323-.1963-.1308,7.5932-.0639,9.4252,0,15.6443,9.8848,0,11.9147,0,20.3569-.3271Z"/><path class="cls-1" d="M158.43,106.1289c4.78,2.0954,11.13,4.8435,11.13,13.2218,0,7.3315-5.4339,13.9416-16.8236,13.9416a28.3652,28.3652,0,0,1-12.96-2.879l-.2617-.458c.2617-2.2917.3272-3.5349.525-6.0228l.6543-.2617a19.3064,19.3064,0,0,0,11.519,3.862c6.7426,0,9.5561-3.4694,9.5561-7.3969,0-4.5817-3.795-6.3484-8.05-7.9857l-3.2731-1.4395c-4.6487-2.1593-10.8663-4.9743-10.8663-12.96a12.0882,12.0882,0,0,1,2.03-6.8734c3.01-4.32,8.4423-5.76,13.7453-5.76a34.2438,34.2438,0,0,1,11.7823,2.0938l.3272.525c-.2618,2.4864-.3272,3.4025-.525,5.7595l-.5235.2618c-2.8135-1.44-5.89-3.0114-10.7993-3.0114-5.4339,0-8.8363,2.5533-8.8363,6.4153,0,2.946,1.9629,4.32,3.3385,5.1707a35.3249,35.3249,0,0,0,5.04,2.357Z"/><path class="cls-1" d="M190.3854,127.14c-.1948,2.1607-.1948,2.6188-.2617,4.5163l-.3257.3926a17.807,17.807,0,0,1-4.9089.5889c-1.5719,0-5.6956,0-7.724-3.4025-1.1793-1.899-1.1793-3.4694-1.1793-11.1934l.1324-14.4011c-2.2916,0-2.3586.0654-4.7141.1309l-.2618-.3926c.1309-2.0938.1309-2.6173.1309-4.7126l.3926-.3926c1.44,0,2.2916.0654,4.4524,0-.067-1.3741-.067-2.8151-.067-4.1892q-.0981-1.8648-.1963-3.7311l.3272-.458c2.946-.72,3.6657-.9161,6.6771-1.8321l.458.3271c-.1963,4.32-.2617,5.1707-.2617,9.9487,2.75-.0654,3.5348-.0654,7.266-.1963l.3256.3926c-.1309,1.7028-.1948,2.4225-.1948,4.6472l-.3286.3926c-3.2716-.0655-3.6642-.1309-7.1336-.1309l-.1309,12.1749c.0654.7852.0654,4.5163.0654,5.4339,0,4.778.5889,6.283,3.862,6.283a8.9244,8.9244,0,0,0,3.1423-.5889Z"/><path class="cls-1" d="M224.6352,98.47c-.1309,4.9743-.1963,9.6215-.1963,14.9245,0,8.0512.1963,12.8947.3271,15.7082,0,.9176.0655,1.8336.1309,2.75l-.2617.3926c-3.1423.0654-3.6657.1308-6.6771.2617l-.3926-.3926.0669-2.7481a16.7353,16.7353,0,0,1-10.2773,3.73,12.2152,12.2152,0,0,1-7.4623-2.2247c-4.1892-3.404-4.1892-8.9672-4.2546-14.0724v-4.0583c-.1309-9.3613-.1309-10.4082-.3272-13.9431l.3272-.458c3.0768-.0654,3.6657-.0654,6.741-.3272l.3941.4581L202.51,112.806c0,1.7667-.064,3.0753,0,6.2176.0669,2.75.1978,8.64,6.8079,8.64,3.862,0,6.6117-2.1592,8.1836-3.4039.0639-3.5349.0639-6.5448.0639-10.3413,0-9.0981-.0639-10.9317-.4581-15.1863l.3942-.458c3.01-.0655,3.73-.0655,6.741-.2618Z"/><path class="cls-1" d="M254.679,81.452c3.3386-.5889,3.9929-.72,6.9388-1.3741l.4565.3926c-.4565,9.0981-.5234,25.3313-.5234,31.876,0,10.1465.2617,14.99.5234,19.5063l-.3256.458c-2.88,0-3.6672.0654-6.6771.1963l-.458-.3926.1309-2.421a13.8545,13.8545,0,0,1-9.0342,3.2716c-8.704,0-14.7267-6.8718-14.7267-16.822,0-7.1336,3.0114-11.65,5.761-14.0725,4.7781-4.32,10.9956-4.5163,14.4-4.5163,1.3741,0,2.0284,0,3.7966.1309a145.3691,145.3691,0,0,0-.5889-15.8406Zm.0655,21.5347c-1.1124-.0654-1.8976-.1963-3.2732-.1963-2.03,0-6.3484.1309-9.4906,3.0768-1.441,1.3741-3.7966,4.4509-3.7966,10.2759,0,3.7311,1.0469,6.4153,2.4225,8.0511a8.6141,8.6141,0,0,0,6.741,2.946,10.8565,10.8565,0,0,0,7.3314-2.88C254.81,115.685,254.81,113.7221,254.7445,102.9867Z"/><path class="cls-1" d="M297.0028,124.3251c-.3287,2.6188-.3926,3.2731-.5235,5.8265l-.3926.458a21.3966,21.3966,0,0,1-10.4736,2.4864c-10.7354,0-17.4764-6.1521-17.4764-17.5418,0-12.1749,7.3314-18.1307,15.9045-18.1307,5.1706,0,8.7709,2.1592,10.7354,4.5163,3.7311,4.4509,3.6,10.9317,3.5348,13.8107l-.458.3926c-10.2119-.0655-11.9786-.0655-22.714,0,.067,2.2916.2617,5.4993,2.4879,8.182a10.6141,10.6141,0,0,0,8.4438,3.5348,17.08,17.08,0,0,0,5.6941-.9815,16.5158,16.5158,0,0,0,4.7141-2.88Zm-6.0882-17.0838a7.3167,7.3167,0,0,0-7.1351-5.1052c-3.6642,0-7.9858,2.4879-8.64,9.0326,7.92.0654,10.4082,0,16.431-.0654A14.4,14.4,0,0,0,290.9146,107.2413Z"/><path class="cls-1" d="M333.6842,132.2454c-3.1423.0654-3.5364.0654-6.5462.2617l-.4581-.458c0-.72.0655-1.44.0655-2.1593.0654-3.2076.0654-6.4153.0654-9.623,0-10.08-.0654-10.7339-.3926-12.1095-1.2432-4.9743-4.9743-4.9743-5.89-4.9743-3.9289,0-6.9388,2.2916-8.707,3.6657-.0639,11.39.067,17.3455.5235,25.0041l-.3926.3926c-3.2077.0654-3.7312.0654-6.8719.2617l-.3287-.458c.067-3.6657.1979-7.2006.1979-12.044,0-10.4722-.46-16.0369-.7852-20.4224l.3926-.458c3.2716-.5889,3.862-.72,6.9373-1.3086l.458.458-.0639,3.404a19.8141,19.8141,0,0,1,11.519-4.0583,11.3072,11.3072,0,0,1,5.4324,1.2432,8.8805,8.8805,0,0,1,3.7981,4.2546c.8491,1.9644.916,3.9274.98,7.9857v7.6586c.1978,7.6585.2618,10.6045.46,13.0909Z"/><path class="cls-1" d="M357.3446,127.14c-.1962,2.1607-.1962,2.6188-.2617,4.5163l-.3271.3926a17.8,17.8,0,0,1-4.909.5889c-1.57,0-5.694,0-7.724-3.4025-1.1777-1.899-1.1777-3.4694-1.1777-11.1934l.1308-14.4011c-2.2916,0-2.357.0654-4.7141.1309l-.2617-.3926c.1308-2.0938.1308-2.6173.1308-4.7126l.3926-.3926c1.4411,0,2.2917.0654,4.4524,0-.0654-1.3741-.0654-2.8151-.0654-4.1892q-.0981-1.8648-.1963-3.7311l.3272-.458c2.9444-.72,3.6657-.9161,6.6755-1.8321l.46.3271c-.1978,4.32-.2617,5.1707-.2617,9.9487,2.7481-.0654,3.5333-.0654,7.2644-.1963l.3272.3926c-.1309,1.7028-.1963,2.4225-.1963,4.6472l-.3272.3926c-3.2731-.0655-3.6657-.1309-7.1351-.1309l-.1309,12.1749c.067.7852.067,4.5163.067,5.4339,0,4.778.5874,6.283,3.862,6.283a8.9143,8.9143,0,0,0,3.1407-.5889Z"/><path class="cls-1" d="M382.7337,132.5071l-.3287-.458c.1309-3.1423.1979-6.1521.1979-12.11,0-2.8135.0654-16.4949.0654-19.57,0-6.8734-.1963-10.4082-.458-13.8122l.3256-.458,8.7724-.1309c1.3087-.0654,3.3371-.0654,5.1052-.0654,3.8621,0,7.9858.1309,11.2574,2.03A9.9056,9.9056,0,0,1,412.843,96.9c0,2.29-.6543,8.8364-9.7524,11.061a15.5794,15.5794,0,0,1,6.0213,1.1793,10.1927,10.1927,0,0,1,6.2191,9.8833c0,6.0228-3.7312,10.2773-8.9688,12.1749-3.4694,1.2432-6.9373,1.2432-12.1094,1.2432Zm7.07-26.64c5.89.0654,10.4067,0,13.1564-2.1608a7.6161,7.6161,0,0,0,2.6827-5.6941,6.8816,6.8816,0,0,0-1.8321-4.6471c-2.29-2.2262-6.35-2.2262-7.8549-2.2262-2.0953,0-4.1237.0654-6.1521.1963Zm0,5.4978c0,7.4623,0,8.5746.2617,15.71h1.2432c4.909,0,8.9018.0655,11.4537-.9814a7.4107,7.4107,0,0,0,4.9089-7.2006c0-7.6586-8.4423-7.724-11.5845-7.724-.5889,0-1.1793,0-4.7126.1309Z"/><path class="cls-1" d="M437.27,105.082a6.73,6.73,0,0,0-2.6173-.5889,4.8784,4.8784,0,0,0-2.75.8507c-2.6827,1.8975-2.6827,4.778-2.6827,11.586,0,7.3953.1947,11.2573.4565,14.923l-.3257.458c-3.0768,0-3.7981.0654-6.9388.1963l-.3287-.3926c.067-4.9743.1309-9.4906.1309-15.5788,0-10.4722-.1948-13.1564-.5874-16.953l.3926-.458c2.4864-.458,4.0568-.7852,6.8065-1.3086l.3941.3925-.3287,5.5633c.7852-2.0938,2.4225-6.283,7.9857-6.283a6.772,6.772,0,0,1,1.8321.1963l.2617.3926c-.6543,3.1422-.7851,3.7966-1.2416,6.6771Z"/><path class="cls-1" d="M467.5075,118.8273a122.9569,122.9569,0,0,0,.3926,13.0909l-.3271.3272c-3.0768.0654-3.6.1308-6.61.2617l-.2617-.3926.0639-2.3555a14.0192,14.0192,0,0,1-9.1635,3.337c-6.5462,0-11.1264-4.4509-11.1264-10.93,0-8.7709,7.3314-11.586,19.1121-12.96l1.1139-.1309c0-1.7682,0-3.0114-.59-4.0583-.6543-1.1793-2.1593-2.4225-5.4324-2.4225a23.3384,23.3384,0,0,0-9.9487,2.4879l-.5234-.3271c.1309-3.0114.1309-3.404.1948-4.7781l.3926-.3941a33.759,33.759,0,0,1,11.3242-2.1592c4.845,0,9.5561,1.6358,10.9317,6.7425a43.8118,43.8118,0,0,1,.458,8.1805Zm-7.33-4.7781c-6.6131.9815-12.7637,1.8976-12.7637,7.724a5.7715,5.7715,0,0,0,6.2175,5.9559,10.2017,10.2017,0,0,0,7.1336-2.8806v-10.93Z"/><path class="cls-1" d="M504.6409,132.2454c-3.1408.0654-3.5349.0654-6.5463.2617l-.4565-.458c0-.72.064-1.44.064-2.1593.0669-3.2076.0669-6.4153.0669-9.623,0-10.08-.0669-10.7339-.3926-12.1095-1.2447-4.9743-4.9758-4.9743-5.8919-4.9743-3.9274,0-6.9388,2.2916-8.7055,3.6657-.0654,11.39.0655,17.3455.5235,25.0041l-.3926.3926c-3.2077.0654-3.7311.0654-6.8734.2617l-.3272-.458c.0655-3.6657.1963-7.2006.1963-12.044,0-10.4722-.458-16.0369-.7851-20.4224l.3925-.458c3.2732-.5889,3.8621-.72,6.9389-1.3086l.458.458-.0654,3.404a19.8186,19.8186,0,0,1,11.519-4.0583,11.3128,11.3128,0,0,1,5.4339,1.2432,8.8774,8.8774,0,0,1,3.7966,4.2546c.8506,1.9644.916,3.9274.9814,7.9857v7.6586c.1963,7.6585.2618,10.6045.4581,13.0909Z"/><path class="cls-1" d="M537.2442,124.5214c-.2617,2.8151-.3272,3.1422-.5235,5.8265l-.4595.458a18.4379,18.4379,0,0,1-9.0326,2.2247c-9.8833,0-16.2971-7.1336-16.2971-17.3456,0-10.4067,6.2829-18.2615,16.4279-18.2615a21.5333,21.5333,0,0,1,8.9688,2.0938l.2617.4595c-.2617,2.3556-.3287,3.2062-.46,5.1707l-.5234.2617a12.3951,12.3951,0,0,0-7.2645-2.5534c-5.4323,0-10.21,4.1892-10.21,12.5675,0,8.9018,5.04,12.1095,10.145,12.1095a12.9717,12.9717,0,0,0,8.4437-3.2731Z"/><path class="cls-1" d="M571.2748,132.2454c-3.1407.0654-3.5333.0654-6.5447.2617l-.458-.458.0654-2.1593c.0655-3.4039.0655-6.8734.0655-10.2773l-.0655-7.0028a20.1321,20.1321,0,0,0-.3271-4.4524c-.7213-3.01-2.5534-4.9743-5.8919-4.9743-3.7312,0-6.61,2.0953-8.7709,3.6657-.0639,11.39.0669,17.3455.4595,25.0041l-.3287.3926c-3.01.0654-3.795.0654-7.0027.2617l-.3287-.458c.1309-4.6472.3287-10.5376.3287-23.1051,0-5.4993-.067-10.9971-.1309-16.4949-.1308-5.761-.3286-7.6585-.5234-10.6045l.3256-.3926c3.1438-.5235,4.1907-.72,7.1367-1.3741l.3925.4581c-.3925,7.0042-.3925,14.0724-.3925,21.1421,2.0938-1.3741,6.2175-4.0583,11.7153-4.0583a11.0918,11.0918,0,0,1,4.3855.7851,8.7746,8.7746,0,0,1,5.3669,6.2191c.3287,1.3086.3287,2.0938.46,6.4793v7.6586l.0639,3.0768c.1309,5.4978.1309,6.4138.3926,10.0141Z"/></g></g></svg>