<svg xmlns="http://www.w3.org/2000/svg" viewBox="0 0 1194.1395 333.2978"><defs><style>.cls-1{fill:#00629b;}</style></defs><g id="Layer_2" data-name="Layer 2"><g id="Final"><path class="cls-1" d="M67.467,11.05l-.3479,34.5487V57.4641c-.2319,14.7736-.6981,21.52-6.8626,28.0339-8.6068,9.0741-21.4044,9.0741-25.593,9.0741-15.5853,0-24.5446-5.8167-28.9628-12.0984C1.6281,76.89.9324,70.6084.5821,58.0462V49.4371C.4638,31.2913.4638,28.0339,0,11.3991l.6981-.6981c7.911.1171,10.585.1171,20.472-.349l.5821.6981c-.2319,11.5162-.3478,20.4731-.3478,29.8963,0,6.1645,0,12.33.2319,18.4948.2343,7.3289.93,11.4,2.6764,14.4246A13.7327,13.7327,0,0,0,36.178,80.0316,13.4371,13.4371,0,0,0,46.4152,75.843c3.1379-3.7224,3.4881-9.306,3.4881-21.5192,0-14.3086-.5821-28.6161-1.1643-42.9247l.7005-.6981c6.6307.1171,8.9546.1171,17.4477-.349Z"/><path class="cls-1" d="M135.8829,92.7109c-9.3072,0-11.2855.116-18.9622.349l-.6957-.6981c0-3.9554.1135-8.0269.1135-11.9812,0-4.4205-.1135-20.3572-.3478-24.1956-.3479-4.1886-.93-11.0512-7.3289-11.0512-3.72,0-6.5124,1.9771-8.9569,3.6064.1159,20.8211.2343,25.3587.93,43.2726l-.6957.6981c-9.3072,0-11.0513,0-19.4284.349l-.6958-.6981c.1136-7.4447.2319-14.8895.2319-22.3343a323.7451,323.7451,0,0,0-1.6281-36.41l.6958-.814c8.7274-1.1631,10.7033-1.5122,19.66-3.3734l1.1643.8141-.2343,6.3976c5.3505-3.14,11.5174-6.8626,18.612-6.8626,4.1886,0,10.8193.93,14.4257,6.9786,2.906,4.7695,3.0243,10.1212,3.14,21.2884v9.0729c.2319,11.4.2319,14.6565.8141,24.8937Z"/><path class="cls-1" d="M168.5184,92.8269c-9.4232-.116-11.7494,0-20.1242.349l-.7-.8141c.35-9.539.7-16.6348.7-29.3141,0-16.5177-.35-20.5892-1.28-29.43l.6981-.6981L167.8179,29.43l.8141.93c-.1136,9.8882-.3479,19.8923-.3479,29.7792,0,16.0527.4662,22.9166,1.0483,31.8735ZM166.89,19.077c-8.2589,1.0471-10.4691,1.279-18.3825,2.6752l-.814-.6981c.1183-2.21.1183-4.5364.1183-6.7467,0-2.7912-.1183-5.2345-.35-9.4219l.6981-.8141,18.9622-2.3273.6957.6981L167.47,18.2629Z"/><path class="cls-1" d="M213.4948,92.8269c-8.3725-.116-11.3991,0-18.96.349l-.814-.8141c-2.56-9.539-3.8384-13.8424-19.31-59.6755l.4638-.93a153.1653,153.1653,0,0,0,20.3584-1.279l.8141.6969c1.63,7.6779,2.0943,9.8881,5.0026,20.7063l2.21,8.9569,2.9083,12.5634,5.93-22.9165c2.3286-9.0729,2.6788-10.7022,4.3069-18.4949l.814-.8152,16.2858-.3491.58.8153C230.8289,41.1783,225.71,56.301,222.57,65.7229c-2.4445,7.3289-4.6547,14.5406-8.3748,26.1728Z"/><path class="cls-1" d="M290.2192,75.96l-.814,13.1444-.6981.9311c-6.1646,2.4422-10.3531,4.1874-20.0082,4.1874-8.3772,0-24.1944-1.3961-30.9435-17.1-1.86-4.0714-2.7923-9.771-2.7923-15.2386,0-20.1242,12.1-32.1054,30.3613-32.1054a29.7854,29.7854,0,0,1,8.2588,1.0459c3.9567.9312,12.9136,3.7224,16.9863,17.4489,1.6281,5.8167,1.7417,11.6334,1.86,17.333l-.6981.814-37.5719.6981c.4639,2.3262.8141,4.6524,2.5582,7.0958,2.79,4.1874,7.5607,6.3976,14.5417,6.3976,8.4907,0,13.7253-2.6752,18.1458-5.0014Zm-16.636-21.6363c0-2.6764-.1136-5.4676-1.744-8.0269a8.9287,8.9287,0,0,0-12.0972-2.7924c-4.4205,2.7924-5.2346,7.6779-5.5825,11.2843Z"/><path class="cls-1" d="M334.3911,50.1352a8.7062,8.7062,0,0,0-4.7684-1.6281c-7.911,0-7.911,7.6779-7.911,12.9125,0,8.0257.7,21.1712,1.1643,30.5932l-.5821.8141c-9.3048-.116-11.1649,0-19.7739.349l-.6981-.6981c.2319-9.655.3478-19.1941.3478-28.732,0-16.17-.3478-21.4044-1.0459-30.1283l.6981-.6981c8.4931-1.279,10.701-1.6281,19.31-3.4893l.93.93-.35,10.7022c3.7248-8.6079,9.0753-11.2831,13.8437-11.2831.814,0,1.6281.1159,2.4421.1159l.7.8141L335.4394,49.67Z"/><path class="cls-1" d="M374.9872,54.7888c6.3965,2.4422,15.3558,5.8155,15.3558,18.612a19.3992,19.3992,0,0,1-.1183,2.5593c-2.092,16.6337-19.542,18.2629-28.383,18.2629-8.4908,0-13.3775-1.8612-19.0782-3.9554l-.58-1.0472c.4662-5.8155.58-7.0957.8141-13.1443l1.0483-.465a25.6413,25.6413,0,0,0,4.6524,3.2574,29.1136,29.1136,0,0,0,12.3291,3.2562c6.5148,0,9.1912-3.14,9.1912-6.0486,0-4.1874-5.1209-5.9327-8.2588-6.98L357.54,67.4682c-5.4688-2.0943-15.1239-5.8167-15.1239-18.263a17.505,17.505,0,0,1,3.14-10.2372c6.0486-8.7238,17.45-9.1888,23.1484-9.1888,7.5632,0,12.3315,1.395,17.8,2.9071l.58.6981-1.1619,12.6794-1.0483.349c-2.9084-1.8612-7.4448-4.8855-14.5418-4.8855-7.2105,0-8.1405,3.84-8.1405,5.2346,0,3.2574,3.14,4.5364,7.0946,5.9326Z"/><path class="cls-1" d="M419.5542,92.8269c-9.4207-.116-11.7469,0-20.1241.349l-.6957-.8141c.3478-9.539.6957-16.6348.6957-29.3141,0-16.5177-.3479-20.5892-1.2779-29.43l.6981-.6981L418.8585,29.43l.814.93c-.1183,9.8882-.35,19.8923-.35,29.7792,0,16.0527.4662,22.9166,1.046,31.8735Zm-1.6281-73.75c-8.2588,1.0471-10.4691,1.279-18.3777,2.6752l-.814-.6981c.1159-2.21.1159-4.5364.1159-6.7467,0-2.7912-.1159-5.2345-.3479-9.4219l.6958-.8141,18.96-2.3273.7.6981-.35,15.8207Z"/><path class="cls-1" d="M487.9867,92.8269c-8.725,0-10.9353,0-18.9622.349l-.58-.6981.2319-4.5364c-2.7924,2.4421-7.0969,6.2816-15.3558,6.2816a24.5213,24.5213,0,0,1-15.2374-5.1185c-6.8627-5.7-9.3072-14.7737-9.3072-23.8466,0-11.9812,3.3722-21.6363,11.5174-27.918,8.841-6.98,19.7739-6.7467,28.499-6.5148.1159-13.26,0-16.1686-.6981-27.1027l.5821-.6981L487.8684,0l.814.6981c-.4638,15.3546-.9276,28.0339-.9276,58.7431,0,15.2387.3479,22.2185.8141,32.6876ZM464.8383,44.4357c-13.03,0-15.59,10.0041-15.59,18.961,0,2.3262,0,16.7508,11.2855,16.7508,3.2562,0,5.5824-1.3962,7.911-2.7924.3479-14.0743.4638-17.0986.3479-32.57A26.0178,26.0178,0,0,0,464.8383,44.4357Z"/><path class="cls-1" d="M551.852,66.77c0,10.9341,0,13.8424.814,25.2427l-.5821.8141c-7.5608-.116-10.1189,0-18.496.349l-.6958-.8141V88.0573A24.0532,24.0532,0,0,1,516.72,94.223c-11.3991,0-20.356-8.0269-20.356-20.4731a18.6013,18.6013,0,0,1,8.725-15.9368c6.9786-4.3045,13.4934-5.5836,27.453-7.4448,0-1.7452-.35-3.8383-1.5122-5.0014-1.5121-1.5134-3.2585-2.21-7.5607-2.21-7.795,0-15.3558,3.0243-19.4284,4.6524l-.9277-.465.58-12.6793.6981-.9312c6.6308-1.9772,12.7953-3.8384,22.7982-3.8384,14.89,0,19.5444,4.6524,21.8706,8.3748,3.0243,4.8867,3.0243,9.4232,2.9083,19.8923Zm-19.0782-4.1874c-7.9086,1.0471-17.1,2.3262-17.1,10.0041,0,4.8855,3.49,7.0957,7.6767,7.0957,3.8383,0,6.981-1.6293,9.4231-3.0243Z"/><path class="cls-1" d="M620.1756,92.8269c-8.725,0-10.9353,0-18.9622.349l-.58-.6981.2319-4.5364c-2.7924,2.4421-7.0969,6.2816-15.3557,6.2816a24.5214,24.5214,0,0,1-15.2375-5.1185c-6.8627-5.7-9.3072-14.7737-9.3072-23.8466,0-11.9812,3.3722-21.6363,11.5174-27.918,8.841-6.98,19.7739-6.7467,28.499-6.5148.1159-13.26,0-16.1686-.6981-27.1027l.5821-.6981L620.0573,0l.814.6981c-.4638,15.3546-.9276,28.0339-.9276,58.7431,0,15.2387.3479,22.2185.8141,32.6876ZM597.0272,44.4357c-13.03,0-15.59,10.0041-15.59,18.961,0,2.3262,0,16.7508,11.2855,16.7508,3.2562,0,5.5824-1.3962,7.911-2.7924.3479-14.0743.4638-17.0986.3479-32.57A26.0178,26.0178,0,0,0,597.0272,44.4357Z"/><path class="cls-1" d="M71.1917,137.0578c-.1183,13.0284-.2319,25.9409-.2319,38.9693,0,13.9584.1136,25.3586.2319,42.2254l-.5821.5821c-6.1669,0-8.2588,0-15.3534.3491l-.8164-.5822L44.0866,203.48l-11.6333-17.1c-7.9087-11.5162-9.7687-14.5405-15.2375-23.6146l.6981,15.5877.35,14.3086,1.1619,25.4746-.58.6981c-6.7491,0-9.1913,0-16.9863.3491l-.58-.6981c.116-11.2832.3479-22.6835.3479-34.0826,0-15.5876-.3479-28.9651-.93-46.9961l.5821-.6981c8.4908.1171,10.0029.1171,19.1942-.3491l.814.5822c2.906,4.6524,4.6524,7.2117,13.3751,20.4732l10.5874,15.4717c5.9327,8.84,6.5124,9.771,9.887,15.4706l-.4639-19.193-.4661-16.0539-.8141-15.7036.58-.6981c7.2129.1171,9.1912,0,16.52-.3491Z"/><path class="cls-1" d="M136.3136,192.7778c0,10.9341,0,13.8425.814,25.2428l-.5821.814c-7.5607-.1159-10.1212,0-18.496.3491l-.6981-.8141v-4.3045a24.05,24.05,0,0,1-16.1675,6.1657c-11.4015,0-20.3584-8.0269-20.3584-20.4732a18.6012,18.6012,0,0,1,8.725-15.9367c6.981-4.3045,13.4934-5.5836,27.453-7.4448,0-1.7452-.3479-3.8383-1.5121-5.0026-1.5122-1.5122-3.2563-2.2091-7.5632-2.2091-7.7926,0-15.3534,3.0243-19.4236,4.6524l-.9324-.465.5821-12.6793.6981-.9312c6.6308-1.9772,12.7953-3.8384,22.8006-3.8384,14.89,0,19.542,4.6524,21.8682,8.3748,3.0243,4.8867,3.0243,9.4232,2.9083,19.8923ZM117.2354,188.59c-7.911,1.0472-17.1,2.3262-17.1,10.0041,0,4.8855,3.49,7.0958,7.6791,7.0958,3.8383,0,6.9786-1.6293,9.4207-3.0243Z"/><path class="cls-1" d="M194.4568,202.666l-.4662,13.9584-.6957.6981c-4.8867,1.3962-8.841,2.5593-15.0079,2.5593-26.1727,0-33.1513-18.147-33.1513-31.5244,0-11.8653,5.35-32.57,32.6875-32.57,6.7467,0,11.1672,1.395,16.2858,3.0243l.5821.6981c-.9324,6.1645-1.0483,7.7938-1.5145,13.9584l-1.1619.349c-3.49-2.3262-6.2829-4.1874-11.3991-4.1874-11.2832,0-15.0079,9.771-15.0079,18.2629,0,6.98,2.6764,17.9139,15.8219,17.9139,5.93,0,8.957-1.8612,12.0972-3.7224Z"/><path class="cls-1" d="M223.8124,218.8346c-9.4231-.1159-11.7493,0-20.1241.3491l-.7005-.8141c.35-9.5391.7005-16.6348.7005-29.3141,0-16.5177-.35-20.5892-1.28-29.43l.6981-.6981,20.0059-3.4893.814.93c-.1136,9.8882-.3479,19.8923-.3479,29.7792,0,16.0527.4662,22.9165,1.0484,31.8735Zm-1.6281-73.75c-8.2588,1.0471-10.4691,1.279-18.3824,2.6752l-.8141-.6981c.1183-2.21.1183-4.5364.1183-6.7467,0-2.7912-.1183-5.2345-.35-9.4219l.6981-.8141,18.9622-2.3274.6958.6981-.3479,15.8208Z"/><path class="cls-1" d="M263.8122,220.2308c-16.6336,0-22.3344-6.2817-25.3587-10.8181-4.3045-6.2817-5.4688-13.8425-5.4688-21.2873,0-21.4043,11.4015-32.2225,31.6416-32.2225,3.0243,0,9.0729.2331,14.1915,2.21,16.2858,6.3976,16.2858,25.2427,16.2858,29.7791C295.1036,205.3412,288.4728,220.2308,263.8122,220.2308Zm7.7927-48.74a9.7789,9.7789,0,0,0-7.4448-3.6064,9.6377,9.6377,0,0,0-8.4908,5.2345c-2.3262,4.0715-2.3262,11.5163-2.3262,14.89,0,11.2843,2.21,15.2386,4.1862,17.2158a9.4094,9.4094,0,0,0,6.5148,2.6764c9.6551,0,10.9353-10.5862,10.9353-20.1241C274.9794,181.4947,274.3973,174.864,271.6049,171.4906Z"/><path class="cls-1" d="M360.7626,218.7187c-9.3072,0-11.2855.1159-18.9622.349l-.6981-.6981c0-3.9555.1159-8.0269.1159-11.9812,0-4.4205-.1159-20.3572-.3478-24.1956-.35-4.1886-.9324-11.0512-7.3289-11.0512-3.7224,0-6.5148,1.9771-8.9569,3.6064.1159,20.8222.2319,25.3587.93,43.2726l-.6981.6981c-9.3048,0-11.0513,0-19.4261.349l-.6981-.6981c.116-7.4448.232-14.89.232-22.3344a323.1546,323.1546,0,0,0-1.6282-36.41l.6981-.814c8.7251-1.1631,10.7034-1.5122,19.658-3.3734l1.1643.8141-.2319,6.3976c5.35-3.14,11.515-6.8626,18.612-6.8626,4.1862,0,10.8169.93,14.4234,6.9786,2.9083,4.7695,3.0243,10.1212,3.1426,21.2884v9.0729c.2319,11.4.2319,14.6565.814,24.8937Z"/><path class="cls-1" d="M424.545,192.7778c0,10.9341,0,13.8425.8165,25.2428l-.5822.814c-7.5631-.1159-10.1212,0-18.496.3491l-.6981-.8141v-4.3045a24.0573,24.0573,0,0,1-16.17,6.1657c-11.3991,0-20.356-8.0269-20.356-20.4732a18.6038,18.6038,0,0,1,8.7227-15.9367c6.9809-4.3045,13.4934-5.5836,27.4553-7.4448,0-1.7452-.35-3.8383-1.5145-5.0026-1.5122-1.5122-3.2562-2.2091-7.5608-2.2091-7.7926,0-15.3557,3.0243-19.426,4.6524l-.93-.465.58-12.6793.7-.9312c6.6308-1.9772,12.793-3.8384,22.7982-3.8384,14.89,0,19.542,4.6524,21.8706,8.3748,3.0243,4.8867,3.0243,9.4232,2.906,19.8923ZM405.4692,188.59c-7.911,1.0472-17.1,2.3262-17.1,10.0041,0,4.8855,3.4881,7.0958,7.6767,7.0958,3.8383,0,6.981-1.6293,9.4231-3.0243Z"/><path class="cls-1" d="M456.4469,218.8346c-8.4908-.1159-11.6334,0-19.426.3491l-.6981-.8141c.4638-11.5162.6981-18.496.6981-31.0594,0-6.8626,0-13.7265-.116-20.5891-.2319-18.8451-.35-22.6835-1.5145-36.875l.4685-.6981,19.89-3.14.8141.814c-.4662,12.5634-.58,17.798-.58,28.848,0,36.759.58,48.9733,1.1619,62.3508Z"/><path class="cls-1" d="M561.0148,218.8346c-8.7227,0-10.9329,0-18.96.3491l-.5822-.6981.2319-4.5365c-2.7924,2.4422-7.0945,6.2817-15.3534,6.2817a24.532,24.532,0,0,1-15.24-5.1186c-6.8627-5.6995-9.3048-14.7736-9.3048-23.8465,0-11.9812,3.3721-21.6363,11.515-27.918,8.841-6.98,19.7739-6.7467,28.5013-6.5148.1136-13.26,0-16.1686-.7-27.1027l.5821-.6981,19.1942-3.0243.814.6969c-.4662,15.3558-.93,28.0351-.93,58.7443,0,15.2386.35,22.2184.8141,32.6875Zm-23.1484-48.3911c-13.03,0-15.5877,10.0041-15.5877,18.961,0,2.3262,0,16.7508,11.2855,16.7508,3.2562,0,5.5824-1.3962,7.9086-2.7924.35-14.0744.4638-17.1.35-32.57A26.0189,26.0189,0,0,0,537.8664,170.4435Z"/><path class="cls-1" d="M625.3723,201.9679l-.8164,13.1443-.6981.93c-6.1646,2.4434-10.3508,4.1886-20.0058,4.1886-8.3772,0-24.1968-1.3962-30.9435-17.1-1.86-4.0715-2.7924-9.771-2.7924-15.2387,0-20.1241,12.0972-32.1053,30.3613-32.1053a29.8078,29.8078,0,0,1,8.2589,1.0459c3.9567.9312,12.9112,3.7224,16.9839,17.4489,1.6281,5.8167,1.744,11.6334,1.8623,17.3329l-.7.8141-37.5719.6981c.4662,2.3262.8141,4.6524,2.5582,7.0957,2.7923,4.1874,7.5631,6.3977,14.5417,6.3977,8.4931,0,13.7277-2.6753,18.1458-5.0015Zm-16.636-21.6363c0-2.6764-.116-5.4676-1.7464-8.0269a8.9263,8.9263,0,0,0-12.0972-2.7912c-4.42,2.7912-5.2346,7.6767-5.5825,11.2831Z"/><path class="cls-1" d="M694.34,137.0578c-.3479,16.0527-.58,32.1066-.58,48.1593,0,16.8667.2319,22.2172.8141,32.9194l-.6981.6981c-9.6551,0-11.9813,0-20.7063.3491l-.5821-.6981c.4661-12.0972.7-19.193.7-32.9195,0-29.6632-.35-35.5958-1.0483-48.1592l.4662-.6981c8.3748.1171,11.0512.1171,21.0541-.3491Z"/><path class="cls-1" d="M763.7376,218.7187c-9.3072,0-11.2855.1159-18.9622.349l-.6981-.6981c0-3.9555.1159-8.0269.1159-11.9812,0-4.4205-.1159-20.3572-.3478-24.1956-.35-4.1886-.9324-11.0512-7.3289-11.0512-3.7224,0-6.5148,1.9771-8.9569,3.6064.1159,20.8222.2319,25.3587.93,43.2726l-.6981.6981c-9.3048,0-11.0513,0-19.4261.349l-.6981-.6981c.116-7.4448.232-14.89.232-22.3344a323.1847,323.1847,0,0,0-1.6281-36.41l.698-.814c8.7251-1.1631,10.7034-1.5122,19.658-3.3734l1.1643.8141L727.56,162.65c5.3505-3.14,11.515-6.8626,18.612-6.8626,4.1862,0,10.8169.93,14.4234,6.9786,2.9083,4.7695,3.0243,10.1212,3.1426,21.2884v9.0729c.2319,11.4.2319,14.6565.814,24.8937Z"/><path class="cls-1" d="M795.4714,203.2469a48.9917,48.9917,0,0,0,11.5175,2.9084l2.7924.465c7.5607,1.7452,20.356,4.5364,20.356,19.1941,0,11.2832-9.771,21.9854-31.0594,21.9854-4.5341,0-13.3751-.2331-19.89-4.8855-4.3045-3.1415-7.2129-7.7939-7.2129-13.1456,0-7.5607,5.4689-11.9812,8.957-14.6565l-4.8843-3.4893v-1.0471c2.674-4.77,4.42-7.91,7.6767-14.1915-2.9084-1.6293-5.2346-2.9084-7.7951-6.5148a18.8508,18.8508,0,0,1-3.3721-11.2831,19.5171,19.5171,0,0,1,7.4448-15.7037c7.5607-6.2817,18.612-6.05,26.8708-5.8167l5.3505.116c7.3289.1171,9.771,0,18.73-.3491l.6958.5822-.8141,11.6322-.6981.5821-8.0246-.465c1.51,2.2091,3.1379,4.5365,3.1379,10.12,0,11.2831-8.8386,16.2857-14.89,18.3788-5.5824,1.8612-9.3048,1.6293-13.0272,1.5122Zm-3.0243,17.2158c-1.3961,1.6293-3.3721,3.84-3.3721,7.6779,0,4.0715,2.9083,8.957,11.5174,8.957,7.6767,0,10.5827-3.6065,10.5827-7.0958a5.1288,5.1288,0,0,0-2.3238-4.5364c-1.3962-1.1631-1.5146-1.1631-11.8653-3.8384ZM799.1962,168c-4.3045,0-7.795,3.7224-7.795,9.5391a16.0393,16.0393,0,0,0,1.0459,6.0486,7.5265,7.5265,0,0,0,6.981,4.8855c1.6281,0,7.3289-.814,7.4448-10.236C806.9889,173.1187,804.5467,168,799.1962,168Z"/><path class="cls-1" d="M889.8069,201.9679l-.8141,13.1443-.6981.93c-6.1645,2.4434-10.3531,4.1886-20.0081,4.1886-8.3772,0-24.1944-1.3962-30.9435-17.1-1.86-4.0715-2.7924-9.771-2.7924-15.2387,0-20.1241,12.1-32.1053,30.3613-32.1053a29.7857,29.7857,0,0,1,8.2589,1.0459c3.9567.9312,12.9136,3.7224,16.9862,17.4489,1.6281,5.8167,1.7417,11.6334,1.86,17.3329l-.6981.8141-37.5718.6981c.4638,2.3262.8141,4.6524,2.5581,7.0957,2.79,4.1874,7.5608,6.3977,14.5417,6.3977,8.4908,0,13.7254-2.6753,18.1458-5.0015Zm-16.636-21.6363c0-2.6764-.1136-5.4676-1.7441-8.0269a8.9263,8.9263,0,0,0-12.0972-2.7912c-4.4205,2.7912-5.2345,7.6767-5.5824,11.2831Z"/><path class="cls-1" d="M957.6856,218.7187c-9.3048,0-11.2831.1159-18.96.349l-.6981-.6981c0-3.9555.1159-8.0269.1159-11.9812,0-4.4205-.1159-20.3572-.35-24.1956-.3479-4.1886-.9276-11.0512-7.3265-11.0512-3.7224,0-6.5148,1.9771-8.9569,3.6064.1159,20.8222.2319,25.3587.93,43.2726l-.6981.6981c-9.3072,0-11.0512,0-19.426.349l-.6981-.6981c.1159-7.4448.2342-14.89.2342-22.3344a323.6112,323.6112,0,0,0-1.63-36.41l.6981-.814c8.725-1.1631,10.701-1.5122,19.66-3.3734l1.1619.8141L921.51,162.65c5.3505-3.14,11.5151-6.8626,18.612-6.8626,4.1886,0,10.8193.93,14.4234,6.9786,2.9083,4.7695,3.0243,10.1212,3.14,21.2884v9.0729c.232,11.4.232,14.6565.8141,24.8937Z"/><path class="cls-1" d="M990.3187,218.8346c-9.4207-.1159-11.7469,0-20.1241.3491l-.6957-.8141c.3478-9.5391.6957-16.6348.6957-29.3141,0-16.5177-.3479-20.5892-1.2779-29.43l.6981-.6981,20.0082-3.4893.8141.93c-.1184,9.8882-.35,19.8923-.35,29.7792,0,16.0527.4662,22.9165,1.046,31.8735Zm-1.6281-73.75c-8.2588,1.0471-10.4691,1.279-18.3777,2.6752l-.814-.6981c.1159-2.21.1159-4.5364.1159-6.7467,0-2.7912-.1159-5.2345-.3478-9.4219l.6957-.8141,18.96-2.3274.7005.6981-.35,15.8208Z"/><path class="cls-1" d="M1054.5626,201.9679l-.814,13.1443-.6981.93c-6.1646,2.4434-10.3531,4.1886-20.0082,4.1886-8.3748,0-24.1968-1.3962-30.9435-17.1-1.86-4.0715-2.79-9.771-2.79-15.2387,0-20.1241,12.0972-32.1053,30.359-32.1053a29.813,29.813,0,0,1,8.2612,1.0459c3.9543.9312,12.9112,3.7224,16.9815,17.4489,1.6281,5.8167,1.7464,11.6334,1.8624,17.3329l-.6981.8141-37.5742.6981c.4662,2.3262.814,4.6524,2.5605,7.0957,2.7924,4.1874,7.5607,6.3977,14.5393,6.3977,8.4931,0,13.7277-2.6753,18.1482-5.0015Zm-16.6336-21.6363c0-2.6764-.1183-5.4676-1.7464-8.0269a8.9263,8.9263,0,0,0-12.0972-2.7912c-4.42,2.7912-5.2346,7.6767-5.5848,11.2831Z"/><path class="cls-1" d="M1098.7345,176.143a8.7125,8.7125,0,0,0-4.7684-1.6281c-7.911,0-7.911,7.6779-7.911,12.9124,0,8.0258.6981,21.17,1.1643,30.5933l-.5821.814c-9.3072-.1159-11.1672,0-19.7763.3491l-.6981-.6981c.2343-9.6551.35-19.193.35-28.7321,0-16.17-.35-21.4043-1.0483-30.1282l.6981-.6981c8.4931-1.279,10.7034-1.6281,19.31-3.4893l.9324.93-.35,10.7022c3.7224-8.6079,9.0729-11.2831,13.8436-11.2831.8141,0,1.6282.1159,2.4422.1159l.6981.8141-3.2562,18.961Z"/><path class="cls-1" d="M1130.0021,218.8346c-9.4231-.1159-11.7493,0-20.1241.3491l-.6981-.8141c.3479-9.5391.6981-16.6348.6981-29.3141,0-16.5177-.35-20.5892-1.28-29.43l.6981-.6981,20.0081-3.4893.8141.93c-.116,9.8882-.35,19.8923-.35,29.7792,0,16.0527.4661,22.9165,1.0483,31.8735Zm7.9086-88.9885c-3.7223,5.7-8.9569,13.7265-12.5633,19.6592l-.8141.465H1111.97l-.4638-.6981a126.99,126.99,0,0,0,7.0946-19.4261l.5821-.5821,18.38-.2319Z"/><path class="cls-1" d="M1193.3255,192.7778c0,10.9341,0,13.8425.814,25.2428l-.5821.814c-7.5607-.1159-10.1212,0-18.496.3491l-.6981-.8141v-4.3045a24.05,24.05,0,0,1-16.1675,6.1657c-11.4015,0-20.3584-8.0269-20.3584-20.4732a18.6012,18.6012,0,0,1,8.725-15.9367c6.9786-4.3045,13.4934-5.5836,27.453-7.4448,0-1.7452-.35-3.8383-1.5121-5.0026-1.5122-1.5122-3.2586-2.2091-7.5608-2.2091-7.795,0-15.3558,3.0243-19.426,4.6524l-.9324-.465.5821-12.6793.6981-.9312c6.6308-1.9772,12.7953-3.8384,22.8006-3.8384,14.89,0,19.542,4.6524,21.8682,8.3748,3.0243,4.8867,3.0243,9.4232,2.9083,19.8923Zm-19.0782-4.1874c-7.911,1.0472-17.1,2.3262-17.1,10.0041,0,4.8855,3.49,7.0958,7.6767,7.0958,3.8407,0,6.981-1.6293,9.4231-3.0243Z"/><path class="cls-1" d="M13.5549,260.3123c-.3076,6.82-.5111,14.8624-.5111,32.37,0,19.5444.2035,27.892.814,38.3764l-.61.7123c-4.4773.1018-5.9019.1018-11.2974.3053l-.61-.7123c.2035-6.2095.407-11.605.407-24.7363,0-15.37,0-30.6394-.7146-45.9088l.5111-.8141c4.4773,0,6.1054,0,11.2974-.3052Z"/><path class="cls-1" d="M72.0105,323.4238c-.3076,3.4621-.3076,4.1744-.5111,7.6353l-.7123.7123c-19.85,0-23.0041.1018-42.3473.3053l-.5064-.7123c.3029-8.0423.6105-13.5384.6105-32.1669,0-17.101,0-26.8732-.7147-38.58l.6106-.7123c20.0555-.1017,24.024-.1017,42.7567-.3052l.6105.7123c-.3076,3.0539-.5111,4.2749-.7146,7.94l-.6106.7123c-13.1313-.407-17.5068-.407-30.437-.5088-.3029,9.364-.3029,12.3161-.3029,21.6813,12.5184.1018,16.3875,0,28.8065-.2035l.5088.7123a72.2076,72.2076,0,0,0-.5088,7.8388l-.6105.7123c-11.8085-.3053-14.3524-.3053-28.196-.3053-.2036,11.8085-.1042,14.6577,0,24.3281,15.37,0,18.5244,0,31.6581-.5088Z"/><path class="cls-1" d="M125.6646,323.4238c-.3052,3.4621-.3052,4.1744-.5087,7.6353l-.7147.7123c-19.85,0-23.0041.1018-42.3449.3053l-.5088-.7123c.3053-8.0423.61-13.5384.61-32.1669,0-17.101,0-26.8732-.7123-38.58l.6106-.7123c20.0531-.1017,24.024-.1017,42.7543-.3052l.6105.7123c-.3052,3.0539-.5087,4.2749-.7123,7.94l-.6105.7123c-13.1337-.407-17.5092-.407-30.4371-.5088-.3052,9.364-.3052,12.3161-.3052,21.6813,12.5208.1018,16.3875,0,28.8066-.2035l.5111.7123a72.8206,72.8206,0,0,0-.5111,7.8388l-.6106.7123c-11.8085-.3053-14.3524-.3053-28.196-.3053-.2035,11.8085-.1018,14.6577,0,24.3281,15.37,0,18.5268,0,31.6581-.5088Z"/><path class="cls-1" d="M179.3188,323.4238c-.3029,3.4621-.3029,4.1744-.5065,7.6353l-.7146.7123c-19.85,0-23.0065.1018-42.345.3053l-.5111-.7123c.3076-8.0423.6129-13.5384.6129-32.1669,0-17.101,0-26.8732-.7123-38.58l.6105-.7123c20.0532-.1017,24.0241-.1017,42.752-.3052l.6106.7123c-.303,3.0539-.5065,4.2749-.71,7.94l-.6129.7123c-13.1313-.407-17.5092-.407-30.4347-.5088-.3076,9.364-.3076,12.3161-.3076,21.6813,12.5232.1018,16.39,0,28.8089-.2035l.5088.7123a72.2076,72.2076,0,0,0-.5088,7.8388l-.6105.7123c-11.8085-.3053-14.3548-.3053-28.1984-.3053-.2035,11.8085-.0994,14.6577,0,24.3281,15.3723,0,18.5292,0,31.6581-.5088Z"/><path class="cls-1" d="M246.3835,291.0534c7.4329,3.2586,17.308,7.5335,17.308,20.5631,0,11.4-8.4505,21.6813-26.1632,21.6813a44.1063,44.1063,0,0,1-20.1549-4.4785l-.4071-.7123c.4071-3.5627.5088-5.4972.8165-9.3651l1.0175-.4071a30.0237,30.0237,0,0,0,17.9139,6.006c10.4857,0,14.8612-5.3954,14.8612-11.5032,0-7.1253-5.9019-9.8739-12.5184-12.419l-5.09-2.2387c-7.23-3.3591-16.8987-7.737-16.8987-20.1561a18.7947,18.7947,0,0,1,3.1568-10.688c4.6808-6.7183,13.129-8.9581,21.376-8.9581,8.0411,0,12.9278,1.5275,18.3233,3.2574l.5088.8152c-.4071,3.868-.5088,5.2926-.8165,8.957l-.814.4082c-4.3755-2.24-9.1605-4.6832-16.7946-4.6832-8.4505,0-13.7419,3.97-13.7419,9.9757,0,4.5814,3.0527,6.7183,5.192,8.0423,1.3228.8141,1.73,1.0176,7.8376,3.6645Z"/><path class="cls-1" d="M296.0785,323.73c-.3029,3.3591-.3029,4.0714-.407,7.0236l-.5064.6105a27.689,27.689,0,0,1-7.6341.9158c-2.4445,0-8.8576,0-12.012-5.2925-1.834-2.9521-1.834-5.3955-1.834-17.4075l.2059-22.3947c-3.5639,0-3.668.1017-7.3312.2035l-.4071-.6105c.2035-3.2574.2035-4.0715.2035-7.3289l.6106-.6105c2.2386,0,3.5638.1017,6.9242,0-.1042-2.1381-.1042-4.3779-.1042-6.5148q-.1526-2.9019-.3052-5.8025l.5088-.7123c4.5814-1.12,5.7007-1.4258,10.3839-2.85l.7123.5088c-.3053,6.7183-.4071,8.0411-.4071,15.4729,4.2762-.1017,5.4972-.1017,11.3-.3052l.5065.6105c-.2036,2.6469-.3029,3.7662-.3029,7.2271l-.5112.6105c-5.0878-.1017-5.6984-.2035-11.0938-.2035l-.2035,18.9338c.1017,1.2211.1017,7.0236.1017,8.4494,0,7.4306.9158,9.7722,6.006,9.7722a13.8744,13.8744,0,0,0,4.8867-.917Z"/><path class="cls-1" d="M349.3422,279.1443c-.2035,7.7359-.3053,14.963-.3053,23.2088,0,12.5208.3053,20.0532.5088,24.43,0,1.4258.1018,2.85.2035,4.2761l-.407.6106c-4.8867.1017-5.7008.2035-10.3839.407l-.6106-.6105.1042-4.275a26.0253,26.0253,0,0,1-15.9829,5.8013c-3.9709,0-8.3488-.9158-11.605-3.4609-6.5148-5.2925-6.5148-13.9454-6.6165-21.8848v-6.3112c-.2036-14.5571-.2036-16.1853-.5088-21.6825l.5088-.7123c4.7849-.1017,5.7007-.1017,10.4832-.5088l.613.7123-.4094,22.293c0,2.7486-.0994,4.7838,0,9.67.1041,4.275.3076,13.4366,10.5874,13.4366,6.006,0,10.2821-3.3591,12.7267-5.2937.0993-5.4972.0993-10.1792.0993-16.0834,0-14.1489-.0993-16.9993-.7123-23.6158l.613-.7123c4.6808-.1018,5.8-.1018,10.4832-.4071Z"/><path class="cls-1" d="M396.065,252.6782c5.192-.917,6.2095-1.12,10.791-2.1381l.71.6105c-.71,14.15-.8141,39.394-.8141,49.5732,0,15.7782.4071,23.3118.8141,30.3353l-.5064.7123c-4.48,0-5.7031.1018-10.3839.3053l-.7123-.6105.2035-3.7662a21.5457,21.5457,0,0,1-14.05,5.089c-13.536,0-22.9024-10.688-22.9024-26.1609,0-11.095,4.6832-18.1186,8.9594-21.8848,7.43-6.7195,17.1-7.0247,22.3935-7.0247,2.1369,0,3.1545,0,5.9042.2035a226.01,226.01,0,0,0-.9158-24.6334Zm.1018,33.49c-1.73-.1017-2.951-.3053-5.09-.3053-3.1568,0-9.8728.2036-14.76,4.7838-2.241,2.1381-5.9042,6.9218-5.9042,15.9817,0,5.8025,1.6281,9.9757,3.7674,12.5208a13.4,13.4,0,0,0,10.4833,4.5814,16.8892,16.8892,0,0,0,11.4014-4.48C396.2685,305.9158,396.2685,302.8619,396.1668,286.1679Z"/><path class="cls-1" d="M461.885,319.3524c-.5112,4.0714-.6106,5.09-.8141,9.06l-.6105.7123a33.2719,33.2719,0,0,1-16.2882,3.8679c-16.6952,0-27.1785-9.5687-27.1785-27.28,0-18.9338,11.4015-28.1972,24.734-28.1972,8.0411,0,13.64,3.3591,16.6952,7.0235,5.8025,6.923,5.599,17.0005,5.4972,21.4789l-.7123.6106c-15.8811-.1018-18.6286-.1018-35.3237,0,.1041,3.5626.407,8.5511,3.8691,12.7243,4.172,4.9884,9.9745,5.4972,13.1313,5.4972a26.5383,26.5383,0,0,0,8.8552-1.5275,25.6948,25.6948,0,0,0,7.3312-4.4785Zm-9.4681-26.5679a11.3786,11.3786,0,0,0-11.0962-7.9394c-5.6984,0-12.4191,3.8679-13.4366,14.0471,12.3172.1018,16.1864,0,25.5527-.1017A22.3808,22.3808,0,0,0,452.4169,292.7845Z"/><path class="cls-1" d="M518.93,331.67c-4.8867.1017-5.5.1017-10.18.407l-.7123-.7123c0-1.1193.1018-2.24.1018-3.3592.1017-4.9884.1017-9.9756.1017-14.9641,0-15.6764-.1017-16.694-.6105-18.8321-1.9334-7.7358-7.7359-7.7358-9.16-7.7358-6.11,0-10.7909,3.5626-13.5407,5.7007-.0994,17.7116.1041,26.975.814,38.8852l-.6105.6106c-4.9884.1017-5.8025.1017-10.6868.407l-.5112-.7123c.1042-5.7007.3077-11.198.3077-18.73,0-16.287-.7147-24.94-1.2211-31.76l.61-.7123c5.0879-.9158,6.006-1.1193,10.7886-2.0351l.7123.7123-.0994,5.2925c2.6457-1.8316,8.9546-6.3113,17.9139-6.3113a17.5861,17.5861,0,0,1,8.4482,1.9346,13.8,13.8,0,0,1,5.9066,6.6165c1.32,3.0539,1.4246,6.1078,1.524,12.4191v11.91c.3076,11.9091.407,16.49.7146,20.3584Z"/><path class="cls-1" d="M555.7258,323.73c-.3052,3.3591-.3052,4.0714-.407,7.0236l-.5088.6105a27.6753,27.6753,0,0,1-7.6341.9158c-2.4421,0-8.8552,0-12.012-5.2925-1.8316-2.9521-1.8316-5.3955-1.8316-17.4075l.2035-22.3947c-3.5638,0-3.6656.1017-7.3312.2035l-.407-.6105c.2035-3.2574.2035-4.0715.2035-7.3289l.6105-.6105c2.241,0,3.5639.1017,6.9242,0-.1018-2.1381-.1018-4.3779-.1018-6.5148q-.1525-2.9019-.3052-5.8025l.5088-.7123c4.579-1.12,5.7007-1.4258,10.3815-2.85l.7147.5088c-.3077,6.7183-.4071,8.0411-.4071,15.4729,4.2738-.1017,5.4949-.1017,11.2974-.3052l.5088.6105c-.2036,2.6469-.3053,3.7662-.3053,7.2271l-.5088.6105c-5.09-.1017-5.7007-.2035-11.0962-.2035l-.2035,18.9338c.1041,1.2211.1041,7.0236.1041,8.4494,0,7.4306.9135,9.7722,6.006,9.7722a13.8592,13.8592,0,0,0,4.8843-.917Z"/><path class="cls-1" d="M595.21,332.0767l-.5112-.7123c.2035-4.8867.3076-9.5687.3076-18.8321,0-4.3767.1018-25.6521.1018-30.4358,0-10.6892-.3053-16.1852-.7123-21.479l.5064-.7123,13.6425-.2035c2.0351-.1017,5.19-.1017,7.9394-.1017,6.006,0,12.419.2035,17.5068,3.1556a15.4048,15.4048,0,0,1,8.0436,13.9454c0,3.5627-1.0176,13.7419-15.1665,17.2028a24.2415,24.2415,0,0,1,9.364,1.8328c8.7534,3.8679,9.6716,11.605,9.6716,15.3711,0,9.3652-5.8025,15.9817-13.9478,18.9327-5.3954,1.9345-10.7885,1.9345-18.8321,1.9345Zm10.9944-41.43c9.16.1017,16.184,0,20.46-3.3592a11.8464,11.8464,0,0,0,4.172-8.8552,10.7046,10.7046,0,0,0-2.8492-7.2282c-3.5615-3.4609-9.8751-3.4609-12.2155-3.4609-3.2586,0-6.413.1017-9.5675.3052Zm0,8.5511c0,11.605,0,13.3348.407,24.43h1.9334c7.6341,0,13.8436.103,17.8121-1.5263a11.523,11.523,0,0,0,7.6341-11.1968c0-11.91-13.1289-12.012-18.0156-12.012-.9158,0-1.834,0-7.3288.2035Z"/><path class="cls-1" d="M680.0227,289.4253a10.4657,10.4657,0,0,0-4.07-.9158,7.5872,7.5872,0,0,0-4.2761,1.3228c-4.172,2.9522-4.172,7.4306-4.172,18.018,0,11.5021.3029,17.5081.71,23.2088l-.5064.7123c-4.785,0-5.9066.1018-10.791.3053l-.5111-.6105c.1041-7.7359.2035-14.7607.2035-24.2276,0-16.2869-.3029-20.46-.9134-26.3644l.6105-.7123c3.8668-.7123,6.3089-1.2211,10.5851-2.0351l.6129.6105-.5112,8.6517c1.2211-3.2574,3.7674-9.7722,12.419-9.7722a10.5349,10.5349,0,0,1,2.8492.3053l.4071.6117c-1.0176,4.8855-1.2211,5.9031-1.9311,10.3827Z"/><path class="cls-1" d="M727.0461,310.8025c0,12.6213.1017,13.7418.6105,20.3584l-.5088.5088c-4.7849.1017-5.599.2035-10.28.407l-.407-.6105.0994-3.6645a21.8,21.8,0,0,1-14.2507,5.1908c-10.18,0-17.3033-6.9218-17.3033-16.9993,0-13.64,11.4015-18.0168,29.7224-20.1549l1.7322-.2035c0-2.7486,0-4.6831-.9182-6.3113-1.0175-1.8328-3.3579-3.7661-8.4481-3.7661-6.6166,0-11.198,2.0351-15.4718,3.8679l-.814-.5088c.2035-4.6831.2035-5.2937.3029-7.4306l.6105-.6117a52.5022,52.5022,0,0,1,17.611-3.3591c7.5347,0,14.8612,2.545,17,10.4856.7123,2.8492.7123,8.4482.7123,12.7231Zm-11.3991-7.4318c-10.2846,1.5275-19.85,2.9521-19.85,12.012,0,.5088,0,9.2634,9.6693,9.2634a15.8709,15.8709,0,0,0,11.0938-4.48V303.1672Z"/><path class="cls-1" d="M784.7941,331.67c-4.8843.1017-5.4972.1017-10.18.407l-.71-.7123c0-1.1193.0994-2.24.0994-3.3592.1041-4.9884.1041-9.9756.1041-14.9641,0-15.6764-.1041-16.694-.6105-18.8321-1.9358-7.7358-7.7383-7.7358-9.1629-7.7358-6.1077,0-10.7909,3.5626-13.5383,5.7007-.1018,17.7116.1017,26.975.814,38.8852l-.6105.6106c-4.9885.1017-5.8025.1017-10.6892.407l-.5088-.7123c.1018-5.7007.3053-11.198.3053-18.73,0-16.287-.7123-24.94-1.2211-31.76l.6106-.7123c5.09-.9158,6.006-1.1193,10.7909-2.0351l.7123.7123-.1018,5.2925c2.6457-1.8316,8.957-6.3113,17.9139-6.3113a17.5951,17.5951,0,0,1,8.4506,1.9346,13.7947,13.7947,0,0,1,5.9042,6.6165c1.3228,3.0539,1.4246,6.1078,1.5263,12.4191v11.91c.3053,11.9091.4071,16.49.7123,20.3584Z"/><path class="cls-1" d="M835.4973,319.6577c-.407,4.3779-.5088,4.8866-.8141,9.06l-.7146.7123a28.6576,28.6576,0,0,1-14.0472,3.4609c-15.37,0-25.3445-11.095-25.3445-26.9749,0-16.1852,9.771-28.4007,25.548-28.4007a33.4851,33.4851,0,0,1,13.9478,3.2573l.407.7135c-.407,3.6644-.5111,4.9873-.7146,8.0412l-.8141.407a19.2826,19.2826,0,0,0-11.2973-3.97c-8.4482,0-15.8788,6.5148-15.8788,19.5444,0,13.8436,7.8376,18.832,15.777,18.832a20.1791,20.1791,0,0,0,13.1313-5.09Z"/><path class="cls-1" d="M888.42,331.67c-4.8843.1017-5.4949.1017-10.1781.407l-.7123-.7123.1018-3.3592c.1018-5.2937.1018-10.6879.1018-15.9817l-.1018-10.8915a31.2913,31.2913,0,0,0-.5088-6.923c-1.1217-4.6819-3.9709-7.7358-9.1628-7.7358-5.8025,0-10.28,3.2574-13.64,5.7007-.0994,17.7116.1041,26.975.7146,38.8852l-.5111.6106c-4.6808.1017-5.9019.1017-10.89.407l-.5112-.7123c.2035-7.2271.5112-16.3887.5112-35.9331,0-8.5511-.1041-17.101-.2035-25.6521-.2036-8.9581-.5112-11.91-.8141-16.49l.5064-.6105c4.8891-.8153,6.5172-1.12,11.0986-2.1381l.6105.7123c-.6105,10.8927-.6105,21.8859-.6105,32.8792,3.2562-2.1369,9.6692-6.3113,18.2192-6.3113a17.2474,17.2474,0,0,1,6.82,1.2223,13.6436,13.6436,0,0,1,8.3464,9.67c.5112,2.0351.5112,3.2574.7147,10.0775v11.91l.0994,4.7838c.2035,8.5511.2035,9.9757.6105,15.5746Z"/></g></g></svg>