<svg xmlns="http://www.w3.org/2000/svg" viewBox="0 0 1200 120.7293"><defs><style>.cls-1{fill:#00629b;}.cls-2,.cls-4{fill:#870e12;}.cls-3{fill:#9a223d;}.cls-3,.cls-4{fill-rule:evenodd;}</style></defs><g id="Capa_2" data-name="Capa 2"><g id="Final"><path class="cls-1" d="M156.48,6.4273l-.2023,20.0953v6.9015c-.1349,8.5931-.4061,12.5174-3.9917,16.306-5.0061,5.278-12.45,5.278-14.8862,5.278-9.0653,0-14.2765-3.3833-16.8463-7.0371-2.3688-3.2477-2.7735-6.9014-2.9772-14.2083V28.7552c-.0689-10.5545-.0689-12.4492-.3386-22.1249l.406-.406c4.6015.0681,6.1568.0681,11.9076-.2031l.3386.4061c-.1349,6.6984-.2023,11.9083-.2023,17.3893,0,3.5856,0,7.1719.1349,10.7575.1362,4.2629.5409,6.631,1.5567,8.39a7.9877,7.9877,0,0,0,6.9015,3.5863,7.8154,7.8154,0,0,0,5.9545-2.4363c1.8251-2.1651,2.0288-5.4128,2.0288-12.5166,0-8.3227-.3386-16.6446-.6772-24.9673l.4075-.406c3.8568.0681,5.2084.0681,10.1485-.2031Z"/><path class="cls-1" d="M196.2746,53.9255c-5.4136,0-6.5643.0675-11.0294.203l-.4047-.406c0-2.3007.066-4.6689.066-6.9689,0-2.5712-.066-11.8409-.2023-14.0735-.2023-2.4363-.5409-6.4279-4.2628-6.4279-2.1638,0-3.788,1.15-5.21,2.0977.0675,12.1113.1363,14.75.541,25.17l-.4047.406c-5.4135,0-6.428,0-11.3006.203l-.4046-.406c.066-4.33.1349-8.6606.1349-12.9909a188.3153,188.3153,0,0,0-.947-21.1779l.4046-.4735c5.0763-.6765,6.2257-.88,11.4355-1.9621l.6772.4735-.1363,3.7212c3.1122-1.8265,6.6992-3.9917,10.8258-3.9917,2.4363,0,6.293.541,8.3907,4.0592,1.69,2.7742,1.7591,5.887,1.8266,12.3824V39.04c.1349,6.631.1349,8.525.4735,14.48Z"/><path class="cls-1" d="M215.2571,53.993c-5.481-.0675-6.8341,0-11.7053.203l-.4074-.4735c.2037-5.5484.4074-9.6757.4074-17.0507a128.37,128.37,0,0,0-.7446-17.1181l.406-.406,11.6364-2.03.4735.5409c-.066,5.7515-.2023,11.57-.2023,17.3212,0,9.3371.2712,13.3294.61,18.5393Zm-.947-42.8968c-4.8038.6091-6.0894.7439-10.6922,1.556l-.4735-.406c.0688-1.2856.0688-2.6386.0688-3.9242,0-1.6236-.0688-3.0447-.2037-5.48l.406-.4735L214.445,1.0144l.4046.4061-.2023,9.2022Z"/><path class="cls-1" d="M241.4177,53.993c-4.87-.0675-6.63,0-11.028.203l-.4735-.4735c-1.4893-5.5484-2.2326-8.0515-11.2318-34.71l.27-.541a88.9634,88.9634,0,0,0,11.8415-.7446l.4735.406c.9484,4.4659,1.2182,5.7515,2.91,12.0439l1.2856,5.21,1.6916,7.3076,3.4494-13.33c1.3544-5.2773,1.5581-6.2243,2.5051-10.7576l.4735-.4742,9.4727-.203.3372.4742c-1.894,5.5477-4.8712,14.3439-6.6977,19.8242-1.4219,4.2628-2.7075,8.4575-4.8713,15.2241Z"/><path class="cls-1" d="M286.0447,44.1824l-.4735,7.6454-.4061.541a26.1276,26.1276,0,0,1-11.6378,2.4363c-4.8726,0-14.0727-.8121-17.9983-9.9462a22.5309,22.5309,0,0,1-1.6242-8.8636c0-11.7052,7.0377-18.6742,17.66-18.6742a17.3237,17.3237,0,0,1,4.8038.6084c2.3014.5416,7.5112,2.1652,9.88,10.1492A39.7386,39.7386,0,0,1,287.33,38.16l-.4061.4735-21.8537.4061a9.57,9.57,0,0,0,1.4879,4.1272c1.6228,2.4357,4.3977,3.7213,8.4582,3.7213a20.68,20.68,0,0,0,10.5546-2.9092Zm-9.6764-12.5848a8.2579,8.2579,0,0,0-1.0144-4.6689,5.192,5.192,0,0,0-7.0364-1.6235c-2.5712,1.6235-3.0447,4.4652-3.247,6.5628Z"/><path class="cls-1" d="M311.7373,29.1613a5.0633,5.0633,0,0,0-2.7735-.947c-4.6015,0-4.6015,4.4658-4.6015,7.5105,0,4.6682.4075,12.3137.6773,17.7947l-.3387.4735c-5.4121-.0675-6.494,0-11.5015.203l-.406-.4061c.1348-5.6158.2023-11.1636.2023-16.712,0-9.4052-.2023-12.45-.6084-17.5242l.4061-.406c4.94-.744,6.2242-.947,11.2317-2.03l.541.5409-.2038,6.225c2.1666-5.0068,5.2787-6.5629,8.0522-6.5629.4735,0,.947.0675,1.4205.0675l.4074.4735-1.8953,11.0287Z"/><path class="cls-1" d="M335.35,31.868c3.7205,1.4205,8.9317,3.3826,8.9317,10.8258a11.2862,11.2862,0,0,1-.0688,1.4886c-1.2168,9.675-11.3667,10.6227-16.5091,10.6227a28.1908,28.1908,0,0,1-11.0968-2.3008l-.3373-.609c.2712-3.3826.3373-4.1273.4735-7.6455l.61-.27a14.8424,14.8424,0,0,0,2.7061,1.894,16.9248,16.9248,0,0,0,7.1712,1.8947c3.7894,0,5.3461-1.8265,5.3461-3.5182,0-2.4356-2.9786-3.4507-4.8038-4.06l-2.5711-.947c-3.181-1.2181-8.7969-3.3833-8.7969-10.6227a10.1814,10.1814,0,0,1,1.8266-5.9544c3.5181-5.0743,10.15-5.3448,13.4643-5.3448a34.4683,34.4683,0,0,1,10.3536,1.691l.3372.406-.6758,7.375-.61.203a14.6819,14.6819,0,0,0-8.4582-2.8416c-4.194,0-4.735,2.2326-4.735,3.0447,0,1.8946,1.8266,2.6386,4.1266,3.4507Z"/><path class="cls-1" d="M361.2727,53.993c-5.48-.0675-6.8327,0-11.7053.203l-.4047-.4735c.2024-5.5484.4047-9.6757.4047-17.0507a128.41,128.41,0,0,0-.7433-17.1181l.4061-.406,11.6378-2.03.4735.5409c-.0688,5.7515-.2037,11.57-.2037,17.3212,0,9.3371.2711,13.3294.6084,18.5393Zm-.947-42.8968c-4.8038.6091-6.0894.7439-10.69,1.556l-.4735-.406c.0675-1.2856.0675-2.6386.0675-3.9242,0-1.6236-.0675-3.0447-.2024-5.48l.4047-.4735,11.0281-1.3538.4074.4061-.2037,9.2022Z"/><path class="cls-1" d="M401.0766,53.993c-5.075,0-6.3606,0-11.0294.203L389.71,53.79l.1349-2.6386a12.3994,12.3994,0,0,1-8.9317,3.6538,14.2633,14.2633,0,0,1-8.8629-2.9773c-3.9917-3.3151-5.4135-8.5931-5.4135-13.87,0-6.9689,1.9614-12.5848,6.6991-16.2385,5.1424-4.06,11.5015-3.9243,16.5765-3.7894.0674-7.7129,0-9.4045-.4061-15.7644l.3386-.406L401.0078,0l.4735.4054c-.27,8.9317-.54,16.3067-.54,34.1687,0,8.8636.2023,12.9234.4735,19.0128ZM387.6122,25.8461c-7.5786,0-9.068,5.8189-9.068,11.0287,0,1.3531,0,9.7432,6.5643,9.7432a8.5618,8.5618,0,0,0,4.6014-1.6242c.2024-8.1864.27-9.9462.2024-18.9447A15.1444,15.1444,0,0,0,387.6122,25.8461Z"/><path class="cls-1" d="M438.224,38.837c0,6.36,0,8.0515.4735,14.6825l-.3386.4735c-4.3978-.0675-5.8857,0-10.7583.203l-.4047-.4735V51.2187a13.9934,13.9934,0,0,1-9.4066,3.5864c-6.63,0-11.84-4.6689-11.84-11.9083a10.82,10.82,0,0,1,5.0749-9.27c4.0591-2.5037,7.8485-3.2477,15.9681-4.33a4.2719,4.2719,0,0,0-.88-2.91c-.88-.88-1.8954-1.2849-4.3978-1.2849-4.534,0-8.9317,1.759-11.3,2.706l-.54-.27.3372-7.375.4061-.5416a41.18,41.18,0,0,1,13.2606-2.2326c8.6606,0,11.368,2.7061,12.7211,4.8712,1.7591,2.8424,1.7591,5.481,1.6916,11.57Zm-11.0969-2.4356c-4.6.609-9.9462,1.353-9.9462,5.8189,0,2.8416,2.03,4.1272,4.4652,4.1272a10.9631,10.9631,0,0,0,5.481-1.7591Z"/><path class="cls-1" d="M477.9646,53.993c-5.075,0-6.3606,0-11.03.203l-.3372-.4061.1349-2.6386a12.3994,12.3994,0,0,1-8.9317,3.6538,14.2631,14.2631,0,0,1-8.8629-2.9773c-3.9917-3.3151-5.4136-8.5931-5.4136-13.87,0-6.9689,1.9615-12.5848,6.6992-16.2385,5.1424-4.06,11.5015-3.9243,16.5765-3.7894.0674-7.7129,0-9.4045-.4061-15.7644l.3386-.406L477.8957,0l.4735.4054c-.27,8.9317-.5395,16.3067-.5395,34.1687,0,8.8636.2023,12.9234.4735,19.0128ZM464.5,25.8461c-7.5787,0-9.068,5.8189-9.068,11.0287,0,1.3531,0,9.7432,6.5643,9.7432a8.5618,8.5618,0,0,0,4.6014-1.6242c.2024-8.1864.27-9.9462.2024-18.9447A15.1444,15.1444,0,0,0,464.5,25.8461Z"/><path class="cls-1" d="M546.8362,6.4273c-.0689,7.578-.1349,15.0885-.1349,22.6665,0,8.119.066,14.75.1349,24.5606l-.3386.3386c-3.5871,0-4.8038,0-8.93.203l-.4749-.3386L531.07,45.0619l-6.7666-9.9461c-4.6-6.6985-5.6819-8.4576-8.8629-13.7355l.4061,9.0666.2037,8.3226.6758,14.8174-.3372.4061c-3.9256,0-5.3461,0-9.88.203l-.3372-.4061c.0674-6.5628.2023-13.1938.2023-19.8242,0-9.0666-.2023-16.8476-.5409-27.3354l.3386-.406c4.9386.0681,5.8182.0681,11.1643-.2031l.4735.3386c1.69,2.7061,2.7061,4.1947,7.78,11.9083l6.1582,8.9992c3.4508,5.1417,3.788,5.6833,5.7508,8.9985l-.27-11.1636-.2712-9.3378L536.4839,6.63l.3373-.406c4.1954.0681,5.3461,0,9.6089-.2031Z"/><path class="cls-1" d="M584.7131,38.837c0,6.36,0,8.0515.4735,14.6825l-.3387.4735c-4.3963-.0675-5.8856,0-10.7582.203l-.4047-.4735V51.2187a13.9891,13.9891,0,0,1-9.4052,3.5864c-6.63,0-11.8415-4.6689-11.8415-11.9083a10.818,10.818,0,0,1,5.0763-9.27c4.0591-2.5037,7.8485-3.2477,15.9667-4.33a4.2707,4.2707,0,0,0-.8782-2.91c-.8809-.88-1.8953-1.2849-4.3991-1.2849-4.534,0-8.93,1.759-11.2992,2.706l-.5409-.27.3386-7.375.4047-.5416a41.1885,41.1885,0,0,1,13.262-2.2326c8.6605,0,11.368,2.7061,12.72,4.8712,1.759,2.8424,1.759,5.481,1.693,11.57Zm-11.0969-2.4356c-4.6.609-9.9462,1.353-9.9462,5.8189,0,2.8416,2.0317,4.1272,4.4666,4.1272a10.9577,10.9577,0,0,0,5.48-1.7591Z"/><path class="cls-1" d="M618.5322,44.5884l-.27,8.119-.406.406a28.33,28.33,0,0,1-8.728,1.4886c-15.2235,0-19.284-10.5552-19.284-18.3362,0-6.9015,3.1135-18.9447,19.0142-18.9447A28.12,28.12,0,0,1,618.33,19.08l.3386.4061c-.541,3.5856-.61,4.5333-.88,8.1189l-.6772.203c-2.0289-1.353-3.6531-2.4356-6.63-2.4356-6.5629,0-8.728,5.6833-8.728,10.6227,0,4.06,1.5554,10.42,9.2015,10.42a12.0571,12.0571,0,0,0,7.0377-2.1652Z"/><path class="cls-1" d="M635.607,53.993c-5.48-.0675-6.8341,0-11.7053.203l-.406-.4735c.2037-5.5484.406-9.6757.406-17.0507a128.1048,128.1048,0,0,0-.7447-17.1181l.4061-.406,11.6378-2.03.4735.5409c-.0674,5.7515-.2023,11.57-.2023,17.3212,0,9.3371.2711,13.3294.6084,18.5393Zm-.947-42.8968c-4.8038.6091-6.0894.7439-10.6909,1.556l-.4734-.406c.0674-1.2856.0674-2.6386.0674-3.9242,0-1.6236-.0674-3.0447-.2023-5.48l.4046-.4735,11.0295-1.3538.406.4061-.2037,9.2022Z"/><path class="cls-1" d="M658.8729,54.8051c-9.675,0-12.9908-3.6538-14.75-6.2924-2.5024-3.6538-3.18-8.0515-3.18-12.3818,0-12.45,6.6317-18.7423,18.403-18.7423a24.336,24.336,0,0,1,8.2559,1.2856c9.4727,3.7212,9.4727,14.6825,9.4727,17.3211C677.075,46.1445,673.2182,54.8051,658.8729,54.8051Zm4.534-28.35a5.69,5.69,0,0,0-4.33-2.0977,5.6022,5.6022,0,0,0-4.9386,3.0447c-1.3544,2.3682-1.3544,6.6984-1.3544,8.66,0,6.5636,1.2856,8.8636,2.4363,10.0137a5.4693,5.4693,0,0,0,3.7879,1.5567c5.6159,0,6.3619-6.1575,6.3619-11.7052C665.37,32.2741,665.0311,28.4173,663.4069,26.4552Z"/><path class="cls-1" d="M715.2643,53.9255c-5.4135,0-6.5628.0675-11.0294.203l-.406-.406c0-2.3007.0688-4.6689.0688-6.9689,0-2.5712-.0688-11.8409-.2037-14.0735-.2024-2.4363-.541-6.4279-4.2629-6.4279-2.1651,0-3.7879,1.15-5.21,2.0977.0675,12.1113.1363,14.75.541,25.17l-.4047.406c-5.4136,0-6.428,0-11.3006.203l-.4047-.406c.0661-4.33.1349-8.6606.1349-12.9909a188.2909,188.2909,0,0,0-.947-21.1779l.4047-.4735c5.0763-.6765,6.2256-.88,11.4355-1.9621l.6772.4735-.1363,3.7212c3.1121-1.8265,6.6991-3.9917,10.8257-3.9917,2.4363,0,6.2931.541,8.3908,4.0592,1.6916,2.7742,1.7591,5.887,1.8265,12.3824V39.04c.1349,6.631.1349,8.525.4735,14.48Z"/><path class="cls-1" d="M752.3649,38.837c0,6.36,0,8.0515.4735,14.6825l-.3386.4735c-4.3977-.0675-5.887,0-10.7582.203l-.4061-.4735V51.2187a13.988,13.988,0,0,1-9.4038,3.5864c-6.6317,0-11.8416-4.6689-11.8416-11.9083a10.82,10.82,0,0,1,5.075-9.27c4.0591-2.5037,7.8484-3.2477,15.9681-4.33a4.2715,4.2715,0,0,0-.88-2.91c-.88-.88-1.8953-1.2849-4.3977-1.2849-4.534,0-8.9317,1.759-11.2992,2.706l-.5423-.27.3386-7.375.406-.5416a41.1819,41.1819,0,0,1,13.262-2.2326c8.6606,0,11.3667,2.7061,12.72,4.8712,1.7591,2.8424,1.7591,5.481,1.6917,11.57Zm-11.0968-2.4356c-4.6.609-9.9462,1.353-9.9462,5.8189,0,2.8416,2.03,4.1272,4.4652,4.1272a10.9588,10.9588,0,0,0,5.481-1.7591Z"/><path class="cls-1" d="M770.9207,53.993c-4.9386-.0675-6.7666,0-11.2992.203l-.406-.4735c.2711-6.6985.406-10.7583.406-18.0658,0-3.9917,0-7.984-.0674-11.9757-.1363-10.9613-.2037-13.1939-.88-21.4484l.27-.4061L770.5147,0l.4735.4735c-.2712,7.3075-.3386,10.3522-.3386,16.78,0,21.3809.3386,28.4854.6772,36.2665Z"/><path class="cls-1" d="M831.7429,53.993c-5.0749,0-6.3605,0-11.0281.203l-.3386-.4061.1349-2.6386a12.3956,12.3956,0,0,1-8.93,3.6538,14.2666,14.2666,0,0,1-8.8643-2.9773c-3.9917-3.3151-5.4122-8.5931-5.4122-13.87,0-6.9689,1.9615-12.5848,6.6978-16.2385,5.1424-4.06,11.5029-3.9243,16.5765-3.7894.0688-7.7129,0-9.4045-.4061-15.7644l.3386-.406L831.6754,0l.4735.4054c-.2711,8.9317-.5409,16.3067-.5409,34.1687,0,8.8636.2023,12.9234.4735,19.0128ZM818.2785,25.8461c-7.5773,0-9.0666,5.8189-9.0666,11.0287,0,1.3531,0,9.7432,6.5629,9.7432a8.5535,8.5535,0,0,0,4.6014-1.6242c.2024-8.1864.2712-9.9462.2024-18.9447A15.1146,15.1146,0,0,0,818.2785,25.8461Z"/><path class="cls-1" d="M869.1752,44.1824l-.4735,7.6454-.406.541a26.1284,26.1284,0,0,1-11.6379,2.4363c-4.8712,0-14.0741-.8121-17.9983-9.9462a22.5313,22.5313,0,0,1-1.6228-8.8636c0-11.7052,7.0363-18.6742,17.6583-18.6742a17.3232,17.3232,0,0,1,4.8038.6084c2.3014.5416,7.5113,2.1652,9.8787,10.1492A39.61,39.61,0,0,1,870.4608,38.16l-.4061.4735L848.2,39.04a9.5932,9.5932,0,0,0,1.4893,4.1272c1.6242,2.4357,4.3978,3.7213,8.4569,3.7213a20.6816,20.6816,0,0,0,10.5559-2.9092Zm-9.6764-12.5848a8.2686,8.2686,0,0,0-1.0144-4.6689,5.192,5.192,0,0,0-7.0364-1.6235c-2.5712,1.6235-3.0447,4.4652-3.2484,6.5628Z"/><path class="cls-1" d="M909.2916,6.4273c-.2024,9.3371-.3386,18.6749-.3386,28.0119,0,9.8106.1362,12.9228.4735,19.1477l-.4061.4061c-5.6159,0-6.9689,0-12.0425.203l-.3386-.4061c.27-7.0363.4061-11.1636.4061-19.1476,0-17.2537-.2037-20.7045-.61-28.012l.2712-.406c4.8712.0681,6.4279.0681,12.2462-.2031Z"/><path class="cls-1" d="M949.6557,53.9255c-5.4135,0-6.5629.0675-11.0294.203l-.4061-.406c0-2.3007.0688-4.6689.0688-6.9689,0-2.5712-.0688-11.8409-.2037-14.0735-.2023-2.4363-.5409-6.4279-4.2628-6.4279-2.1651,0-3.788,1.15-5.21,2.0977.0674,12.1113.1362,14.75.5423,25.17l-.4061.406c-5.4135,0-6.4279,0-11.3005.203l-.4047-.406c.0674-4.33.1349-8.6606.1349-12.9909a188.3153,188.3153,0,0,0-.947-21.1779l.406-.4735c5.0736-.6765,6.2243-.88,11.4341-1.9621l.6772.4735-.1362,3.7212c3.1121-1.8265,6.6991-3.9917,10.8257-3.9917,2.4363,0,6.2931.541,8.3908,4.0592,1.6916,2.7742,1.759,5.887,1.8265,12.3824V39.04c.1349,6.631.1349,8.525.4735,14.48Z"/><path class="cls-1" d="M968.1151,44.9263a28.4651,28.4651,0,0,0,6.6978,1.6917l1.6242.27c4.3977,1.0151,11.84,2.6386,11.84,11.1643,0,6.5628-5.6833,12.7885-18.0657,12.7885-2.6387,0-7.78-.1363-11.569-2.8424a9.539,9.539,0,0,1-4.1954-7.6461c0-4.3977,3.18-6.9689,5.21-8.525l-2.841-2.03v-.6091c1.5554-2.7742,2.57-4.6008,4.4652-8.2545a11.6285,11.6285,0,0,1-4.534-3.7894,10.9643,10.9643,0,0,1-1.9614-6.5628,11.3481,11.3481,0,0,1,4.33-9.1341c4.3977-3.6538,10.8257-3.5189,15.63-3.3833l3.1121.0674c4.2628.0682,5.6833,0,10.8931-.203l.4061.3386-.4735,6.7659-.4061.3386-4.6688-.27a8.8491,8.8491,0,0,1,1.8279,5.8863c0,6.5629-5.1424,9.4727-8.6606,10.69a18.9849,18.9849,0,0,1-7.5787.88ZM966.3561,54.94a6.43,6.43,0,0,0-1.9629,4.4659c0,2.3682,1.6917,5.21,6.6992,5.21,4.4652,0,6.1568-2.0977,6.1568-4.1272a2.9841,2.9841,0,0,0-1.353-2.6387c-.8121-.6765-.88-.6765-6.9015-2.2325Zm3.9242-30.515c-2.5038,0-4.534,2.1652-4.534,5.5485a9.3094,9.3094,0,0,0,.61,3.5182,4.3763,4.3763,0,0,0,4.0591,2.8416c.947,0,4.2628-.4735,4.33-5.9538C974.8129,27.4022,973.3924,24.4249,970.28,24.4249Z"/><path class="cls-1" d="M1022.9842,44.1824l-.4735,7.6454-.406.541a26.1282,26.1282,0,0,1-11.6378,2.4363c-4.8713,0-14.0742-.8121-17.9984-9.9462a22.5313,22.5313,0,0,1-1.6228-8.8636c0-11.7052,7.0364-18.6742,17.6583-18.6742a17.3232,17.3232,0,0,1,4.8038.6084c2.3014.5416,7.5113,2.1652,9.8787,10.1492A39.61,39.61,0,0,1,1024.27,38.16l-.4061.4735-21.8551.4061a9.5932,9.5932,0,0,0,1.4893,4.1272c1.6242,2.4357,4.3978,3.7213,8.4569,3.7213a20.6816,20.6816,0,0,0,10.5559-2.9092Zm-9.6764-12.5848a8.2686,8.2686,0,0,0-1.0144-4.6689,5.192,5.192,0,0,0-7.0364-1.6235c-2.5712,1.6235-3.0447,4.4652-3.2484,6.5628Z"/><path class="cls-1" d="M1062.4674,53.9255c-5.4135,0-6.5629.0675-11.0294.203l-.4061-.406c0-2.3007.0689-4.6689.0689-6.9689,0-2.5712-.0689-11.8409-.2038-14.0735-.2023-2.4363-.5409-6.4279-4.2628-6.4279-2.1651,0-3.788,1.15-5.21,2.0977.0674,12.1113.1362,14.75.5409,25.17l-.4047.406c-5.4135,0-6.4279,0-11.3005.203l-.4047-.406c.0674-4.33.1349-8.6606.1349-12.9909a188.3153,188.3153,0,0,0-.947-21.1779l.406-.4735c5.0736-.6765,6.2243-.88,11.4341-1.9621l.6772.4735-.1362,3.7212c3.1121-1.8265,6.6991-3.9917,10.8257-3.9917,2.4363,0,6.2931.541,8.3908,4.0592,1.6916,2.7742,1.7591,5.887,1.8265,12.3824V39.04c.1349,6.631.1349,8.525.4735,14.48Z"/><path class="cls-1" d="M1081.4485,53.993c-5.481-.0675-6.834,0-11.7052.203l-.4061-.4735c.2024-5.5484.4061-9.6757.4061-17.0507a128.348,128.348,0,0,0-.7447-17.1181l.4061-.406,11.6378-2.03.4735.5409c-.0675,5.7515-.2037,11.57-.2037,17.3212,0,9.3371.2711,13.3294.61,18.5393ZM1080.5,11.0962c-4.8038.6091-6.0894.7439-10.6895,1.556l-.4735-.406c.0675-1.2856.0675-2.6386.0675-3.9242,0-1.6236-.0675-3.0447-.2037-5.48l.406-.4735,11.0294-1.3538.4061.4061-.2037,9.2022Z"/><path class="cls-1" d="M1118.8148,44.1824l-.4735,7.6454-.4061.541a26.1276,26.1276,0,0,1-11.6378,2.4363c-4.8712,0-14.0741-.8121-17.9983-9.9462a22.5313,22.5313,0,0,1-1.6228-8.8636c0-11.7052,7.0363-18.6742,17.6583-18.6742a17.3237,17.3237,0,0,1,4.8038.6084c2.3014.5416,7.5112,2.1652,9.8787,10.1492A39.6144,39.6144,0,0,1,1120.1,38.16l-.4061.4735-21.8551.4061a9.5919,9.5919,0,0,0,1.4893,4.1272c1.6242,2.4357,4.3977,3.7213,8.4568,3.7213a20.6817,20.6817,0,0,0,10.556-2.9092Zm-9.6764-12.5848a8.27,8.27,0,0,0-1.0144-4.6689,5.192,5.192,0,0,0-7.0364-1.6235c-2.5712,1.6235-3.0447,4.4652-3.2484,6.5628Z"/><path class="cls-1" d="M1144.5088,29.1613a5.0671,5.0671,0,0,0-2.7735-.947c-4.6015,0-4.6015,4.4658-4.6015,7.5105,0,4.6682.4061,12.3137.6772,17.7947l-.3386.4735c-5.4135-.0675-6.4954,0-11.5029.203l-.406-.4061c.1362-5.6158.2037-11.1636.2037-16.712,0-9.4052-.2037-12.45-.61-17.5242l.4061-.406c4.94-.744,6.2256-.947,11.2317-2.03l.5423.5409-.2037,6.225c2.1652-5.0068,5.2773-6.5629,8.0522-6.5629.4735,0,.947.0675,1.4205.0675l.406.4735-1.8939,11.0287Z"/><path class="cls-1" d="M1162.6943,53.993c-5.481-.0675-6.834,0-11.7052.203l-.4061-.4735c.2024-5.5484.4061-9.6757.4061-17.0507a128.348,128.348,0,0,0-.7447-17.1181l.4061-.406,11.6378-2.03.4735.5409c-.0675,5.7515-.2037,11.57-.2037,17.3212,0,9.3371.2711,13.3294.61,18.5393Zm4.6-51.76c-2.1652,3.3151-5.21,7.984-7.3075,11.4348l-.4735.27h-7.3076l-.27-.406a73.858,73.858,0,0,0,4.1265-11.2992l.3386-.3386,10.6909-.1349Z"/><path class="cls-1" d="M1199.5265,38.837c0,6.36,0,8.0515.4735,14.6825l-.3386.4735c-4.3977-.0675-5.887,0-10.7583.203l-.406-.4735V51.2187a13.9881,13.9881,0,0,1-9.4039,3.5864c-6.6317,0-11.8415-4.6689-11.8415-11.9083a10.82,10.82,0,0,1,5.075-9.27c4.0591-2.5037,7.8484-3.2477,15.968-4.33a4.2719,4.2719,0,0,0-.88-2.91c-.88-.88-1.8954-1.2849-4.3977-1.2849-4.534,0-8.9318,1.759-11.2992,2.706l-.5423-.27.3386-7.375.406-.5416a41.1819,41.1819,0,0,1,13.262-2.2326c8.6606,0,11.3667,2.7061,12.72,4.8712,1.7591,2.8424,1.7591,5.481,1.6916,11.57ZM1188.43,36.4014c-4.6.609-9.9461,1.353-9.9461,5.8189,0,2.8416,2.03,4.1272,4.4652,4.1272a10.9581,10.9581,0,0,0,5.4809-1.7591Z"/><path class="cls-1" d="M125.1222,78.1185c-.1789,3.9669-.2973,8.6454-.2973,18.8284,0,11.368.1184,16.2241.4735,22.3217l-.3551.4143c-2.6042.0592-3.4329.0592-6.5711.1776l-.3552-.4143c.1184-3.6118.2368-6.75.2368-14.388,0-8.94,0-17.8208-.4157-26.7029l.2973-.4735c2.6042,0,3.5512,0,6.5711-.1776Z"/><path class="cls-1" d="M159.1231,114.8282c-.179,2.0137-.179,2.428-.2974,4.44l-.4143.4143c-11.5455,0-13.38.0592-24.6314.1776l-.2945-.4143c.1762-4.6772.3551-7.8747.3551-18.71,0-9.9462,0-15.6309-.4157-22.44l.3551-.4143c11.6654-.0592,13.9737-.0592,24.87-.1776l.3551.4143c-.179,1.777-.2973,2.4873-.4157,4.6194l-.3551.4143c-7.6379-.2368-10.1829-.2368-17.7038-.296-.1762,5.4466-.1762,7.163-.1762,12.611,7.2814.0592,9.5319,0,16.7554-.1184l.296.4143a41.97,41.97,0,0,0-.296,4.5588l-.3551.4143c-6.8684-.1776-8.3481-.1776-16.4-.1776-.1184,6.8685-.0606,8.5257,0,14.1512,8.94,0,10.7748,0,18.414-.2959Z"/><path class="cls-1" d="M190.3311,114.8282c-.1776,2.0137-.1776,2.428-.2959,4.44l-.4157.4143c-11.5456,0-13.38.0592-24.63.1776l-.2959-.4143c.1776-4.6772.3551-7.8747.3551-18.71,0-9.9462,0-15.6309-.4143-22.44l.3551-.4143c11.664-.0592,13.9737-.0592,24.8682-.1776l.3551.4143c-.1775,1.777-.2959,2.4873-.4143,4.6194l-.3551.4143c-7.6392-.2368-10.1843-.2368-17.7038-.296-.1775,5.4466-.1775,7.163-.1775,12.611,7.2827.0592,9.5318,0,16.7554-.1184l.2973.4143a42.3159,42.3159,0,0,0-.2973,4.5588l-.3552.4143c-6.8684-.1776-8.3481-.1776-16.4-.1776-.1184,6.8685-.0592,8.5257,0,14.1512,8.94,0,10.7761,0,18.414-.2959Z"/><path class="cls-1" d="M221.5391,114.8282c-.1761,2.0137-.1761,2.428-.2945,4.44l-.4157.4143c-11.5456,0-13.3818.0592-24.63.1776l-.2973-.4143c.1789-4.6772.3565-7.8747.3565-18.71,0-9.9462,0-15.6309-.4144-22.44l.3552-.4143c11.6639-.0592,13.9736-.0592,24.8667-.1776l.3552.4143c-.1762,1.777-.2946,2.4873-.413,4.6194l-.3565.4143c-7.6378-.2368-10.1842-.2368-17.7024-.296-.1789,5.4466-.1789,7.163-.1789,12.611,7.2841.0592,9.5332,0,16.7568-.1184l.2959.4143a41.994,41.994,0,0,0-.2959,4.5588l-.3551.4143c-6.8685-.1776-8.3495-.1776-16.4017-.1776-.1184,6.8685-.0578,8.5257,0,14.1512,8.9414,0,10.7775,0,18.414-.2959Z"/><path class="cls-1" d="M260.5475,96c4.3234,1.8953,10.0673,4.3812,10.0673,11.96,0,6.6317-4.9153,12.6109-15.218,12.6109a25.6588,25.6588,0,0,1-11.7231-2.6042l-.2368-.4143c.2368-2.0729.296-3.1975.4749-5.448l.5919-.2367a17.4634,17.4634,0,0,0,10.42,3.4934c6.099,0,8.6441-3.1383,8.6441-6.6909,0-4.1445-3.4329-5.7425-7.2814-7.2236l-2.9607-1.3021c-4.205-1.9531-9.8292-4.5-9.8292-11.7231a10.9339,10.9339,0,0,1,1.8362-6.2174c2.7226-3.9077,7.6365-5.21,12.4334-5.21a30.9744,30.9744,0,0,1,10.6578,1.894l.2959.4748c-.2367,2.2491-.2959,3.0777-.4749,5.21l-.4735.2367a19.548,19.548,0,0,0-9.7686-2.724c-4.9152,0-7.993,2.31-7.993,5.8031a5.3067,5.3067,0,0,0,3.02,4.6771,31.9407,31.9407,0,0,0,4.5587,2.1322Z"/><path class="cls-1" d="M289.4527,115.0058c-.1761,1.9545-.1761,2.3688-.2367,4.0852l-.2946.3552a16.1077,16.1077,0,0,1-4.44.5326c-1.4218,0-5.152,0-6.9868-3.0777-1.0667-1.7178-1.0667-3.1383-1.0667-10.1251l.12-13.0266c-2.0729,0-2.1335.0592-4.2642.1184l-.2367-.3552c.1183-1.8939.1183-2.3674.1183-4.2628l.3552-.3551c1.3021,0,2.0729.0592,4.0274,0-.06-1.2429-.06-2.5464-.06-3.7894q-.0888-1.6867-.1776-3.375l.2959-.4143c2.6648-.6511,3.3159-.8286,6.04-1.6572l.4143.2959c-.1776,3.9077-.2368,4.6771-.2368,8.9992,2.4872-.0592,3.1975-.0592,6.5725-.1776l.2946.3551c-.1184,1.54-.1762,2.1913-.1762,4.2037l-.2973.3551c-2.9594-.0592-3.3145-.1184-6.4528-.1184l-.1183,11.0129c.0591.71.0591,4.0853.0591,4.9153,0,4.322.5327,5.6833,3.4935,5.6833a8.07,8.07,0,0,0,2.8423-.5327Z"/><path class="cls-1" d="M320.4337,89.0722c-.1184,4.5-.1776,8.7033-.1776,13.5,0,7.2827.1776,11.6639.2959,14.209,0,.83.0592,1.6586.1184,2.4872l-.2367.3551c-2.8424.0592-3.3159.1184-6.04.2368l-.3551-.3552.0606-2.4858a15.1382,15.1382,0,0,1-9.2965,3.3736,11.0493,11.0493,0,0,1-6.75-2.0123c-3.7893-3.0791-3.7893-8.1114-3.8485-12.7293v-3.671c-.1184-8.4679-.1184-9.4149-.2959-12.6123l.2959-.4143c2.7832-.0592,3.3159-.0592,6.0976-.296l.3565.4143L300.42,102.04c0,1.598-.0578,2.7818,0,5.6241.0606,2.4873.179,7.8155,6.1582,7.8155a11.8087,11.8087,0,0,0,7.4025-3.0791c.0578-3.1975.0578-5.92.0578-9.3543a121.6786,121.6786,0,0,0-.4143-13.7369l.3565-.4143c2.7226-.0592,3.3737-.0592,6.0976-.2368Z"/><path class="cls-1" d="M347.61,73.6781c3.02-.5327,3.6118-.651,6.2766-1.2429l.4129.3551c-.4129,8.23-.4735,22.9136-.4735,28.8337,0,9.1781.2368,13.5593.4735,17.6446l-.2945.4143c-2.6056,0-3.3173.0592-6.04.1776l-.4143-.3552.1184-2.19a12.5321,12.5321,0,0,1-8.1719,2.9594c-7.8733,0-13.3212-6.216-13.3212-15.2166,0-6.4527,2.724-10.538,5.2112-12.7293,4.322-3.9077,9.9461-4.0853,13.0252-4.0853,1.243,0,1.8348,0,3.4343.1184a131.507,131.507,0,0,0-.5327-14.3288Zm.0592,19.4794c-1.0062-.0592-1.7164-.1775-2.9607-.1775-1.8362,0-5.7425.1183-8.5849,2.7831-1.3035,1.2429-3.4342,4.0261-3.4342,9.2951a11.2059,11.2059,0,0,0,2.1913,7.2828,7.7919,7.7919,0,0,0,6.0976,2.6648A9.8206,9.8206,0,0,0,347.61,112.4C347.7285,104.6439,347.7285,102.8683,347.6693,93.1575Z"/><path class="cls-1" d="M385.8944,112.4593c-.2973,2.3689-.3551,2.9608-.4735,5.27l-.3551.4143a19.3543,19.3543,0,0,1-9.474,2.2491c-9.7108,0-15.8084-5.5649-15.8084-15.8676,0-11.0129,6.6316-16.4,14.3865-16.4a12.3652,12.3652,0,0,1,9.7108,4.0853c3.375,4.0261,3.2567,9.8884,3.1975,12.4926l-.4143.3551c-9.2373-.0592-10.8354-.0592-20.5462,0,.0606,2.0729.2368,4.9745,2.25,7.4011a9.6009,9.6009,0,0,0,7.6379,3.1975,15.4506,15.4506,0,0,0,5.1506-.8878,14.9415,14.9415,0,0,0,4.2642-2.6056ZM380.3873,97.006a6.6183,6.6183,0,0,0-6.4541-4.6179c-3.3145,0-7.2236,2.2505-7.8155,8.1705,7.1644.0592,9.4149,0,14.8628-.0591A13.0233,13.0233,0,0,0,380.3873,97.006Z"/><path class="cls-1" d="M419.0749,119.6237c-2.8423.0592-3.1988.0592-5.9214.2368l-.4143-.4143c0-.6511.0592-1.3022.0592-1.9532.0591-2.9015.0591-5.8031.0591-8.7046,0-9.1176-.0591-9.7094-.3551-10.9537-1.1245-4.5-4.5-4.5-5.3282-4.5-3.554,0-6.2766,2.0729-7.876,3.3158-.0578,10.3027.0606,15.69.4735,22.6177l-.3551.3551c-2.9015.0592-3.375.0592-6.216.2368l-.2973-.4143c.06-3.3159.1789-6.5134.1789-10.8946,0-9.4726-.4157-14.5063-.71-18.4732l.3551-.4143c2.9593-.5327,3.4934-.651,6.2752-1.1837l.4143.4143-.0578,3.0791a17.9226,17.9226,0,0,1,10.42-3.671,10.2279,10.2279,0,0,1,4.9139,1.1246,8.0316,8.0316,0,0,1,3.4356,3.8485c.7681,1.777.8286,3.5526.8865,7.2236v6.9276c.1789,6.9276.2367,9.5924.4156,11.8415Z"/><path class="cls-1" d="M440.4772,115.0058c-.1776,1.9545-.1776,2.3688-.2367,4.0852l-.296.3552a16.1,16.1,0,0,1-4.44.5326c-1.4205,0-5.1506,0-6.9868-3.0777-1.0654-1.7178-1.0654-3.1383-1.0654-10.1251l.1184-13.0266c-2.0729,0-2.1321.0592-4.2642.1184l-.2367-.3552c.1183-1.8939.1183-2.3674.1183-4.2628l.3551-.3551c1.3035,0,2.073.0592,4.0275,0-.0592-1.2429-.0592-2.5464-.0592-3.7894q-.0888-1.6867-.1775-3.375l.2959-.4143c2.6634-.6511,3.3158-.8286,6.0384-1.6572l.4157.2959c-.1789,3.9077-.2367,4.6771-.2367,8.9992,2.4858-.0592,3.1961-.0592,6.5711-.1776l.2959.3551c-.1183,1.54-.1775,2.1913-.1775,4.2037l-.2959.3551c-2.9608-.0592-3.3159-.1184-6.4542-.1184l-.1184,11.0129c.0606.71.0606,4.0853.0606,4.9153,0,4.322.5313,5.6833,3.4934,5.6833a8.062,8.062,0,0,0,2.841-.5327Z"/><path class="cls-1" d="M463.4431,119.8605l-.2973-.4143c.1184-2.8424.1789-5.565.1789-10.9538,0-2.545.0592-14.9206.0592-17.7024,0-6.2173-.1775-9.4148-.4143-12.4939l.2946-.4143,7.9352-.1184c1.1837-.0592,3.0185-.0592,4.6179-.0592,3.4934,0,7.2236.1184,10.1829,1.8362a8.96,8.96,0,0,1,4.6785,8.1114c0,2.0715-.5918,7.9929-8.8216,10.0053a14.0921,14.0921,0,0,1,5.4466,1.0667,9.22,9.22,0,0,1,5.6255,8.94c0,5.448-3.375,9.2965-8.1127,11.0129-3.1383,1.1246-6.2752,1.1246-10.9537,1.1246Zm6.395-24.0974c5.3282.0592,9.4134,0,11.9007-1.9545a6.89,6.89,0,0,0,2.4266-5.1507,6.2245,6.2245,0,0,0-1.6572-4.2036c-2.0715-2.0138-5.7439-2.0138-7.1052-2.0138-1.8954,0-3.73.0592-5.5649.1776Zm0,4.9731c0,6.75,0,7.7562.2367,14.21h1.1246c4.44,0,8.0521.0592,10.36-.8878a6.7032,6.7032,0,0,0,4.44-6.5133c0-6.9277-7.6365-6.9869-10.4788-6.9869-.5327,0-1.0668,0-4.2629.1184Z"/><path class="cls-1" d="M512.7748,95.0529a6.0862,6.0862,0,0,0-2.3675-.5327,4.4133,4.4133,0,0,0-2.4873.7694c-2.4266,1.7164-2.4266,4.322-2.4266,10.48,0,6.6895.1762,10.183.4129,13.4988l-.2945.4143c-2.7832,0-3.4356.0592-6.2766.1776l-.2973-.3552c.0605-4.5.1183-8.5848.1183-14.092,0-9.4726-.1761-11.9007-.5313-15.3349l.3552-.4143c2.2491-.4143,3.67-.71,6.1568-1.1837l.3565.3551-.2973,5.0323c.71-1.894,2.1913-5.6834,7.2235-5.6834a6.1268,6.1268,0,0,1,1.6573.1776l.2367.3551c-.5919,2.8424-.71,3.4342-1.1232,6.04Z"/><path class="cls-1" d="M540.126,107.4863a111.2192,111.2192,0,0,0,.3551,11.8415l-.2959.2959c-2.7832.0592-3.2567.1184-5.9793.2368l-.2367-.3552.0578-2.1307a12.6811,12.6811,0,0,1-8.2889,3.0185c-5.9215,0-10.0646-4.026-10.0646-9.8869,0-7.9338,6.6317-10.48,17.2881-11.7232l1.0076-.1183a7.3915,7.3915,0,0,0-.5341-3.671c-.5918-1.0668-1.9531-2.1913-4.9139-2.1913a21.11,21.11,0,0,0-8.9991,2.25l-.4735-.296c.1183-2.7239.1183-3.0791.1762-4.322l.3551-.3565a30.5373,30.5373,0,0,1,10.2434-1.9532c4.3826,0,8.6441,1.48,9.8884,6.0991a39.6286,39.6286,0,0,1,.4143,7.4Zm-6.63-4.3221c-5.982.8878-11.5456,1.7165-11.5456,6.9869a5.2206,5.2206,0,0,0,5.6241,5.3873,9.2283,9.2283,0,0,0,6.4528-2.6056v-9.8869Z"/><path class="cls-1" d="M573.7153,119.6237c-2.841.0592-3.1975.0592-5.9215.2368l-.4129-.4143c0-.6511.0578-1.3022.0578-1.9532.0606-2.9015.0606-5.8031.0606-8.7046,0-9.1176-.0606-9.7094-.3551-10.9537-1.126-4.5-4.501-4.5-5.33-4.5-3.5526,0-6.2766,2.0729-7.8746,3.3158-.0592,10.3027.0592,15.69.4735,22.6177l-.3552.3551c-2.9015.0592-3.375.0592-6.2173.2368l-.296-.4143c.0592-3.3159.1776-6.5134.1776-10.8946,0-9.4726-.4143-14.5063-.71-18.4732l.3552-.4143c2.9607-.5327,3.4934-.651,6.2765-1.1837l.4143.4143-.0591,3.0791a17.9269,17.9269,0,0,1,10.42-3.671,10.2334,10.2334,0,0,1,4.9153,1.1246,8.0292,8.0292,0,0,1,3.4342,3.8485c.7694,1.777.8286,3.5526.8878,7.2236v6.9276c.1776,6.9276.2368,9.5924.4143,11.8415Z"/><path class="cls-1" d="M603.2069,112.6369c-.2367,2.5464-.2959,2.8424-.4735,5.27l-.4157.4143a16.6775,16.6775,0,0,1-8.17,2.0124c-8.94,0-14.7417-6.4528-14.7417-15.69,0-9.4135,5.6833-16.5187,14.86-16.5187a19.4791,19.4791,0,0,1,8.1127,1.894l.2367.4157c-.2367,2.1307-.2973,2.9-.4156,4.6772l-.4735.2367a11.212,11.212,0,0,0-6.5712-2.31c-4.9139,0-9.2359,3.7894-9.2359,11.3681,0,8.0521,4.5588,10.9537,9.1767,10.9537a11.7344,11.7344,0,0,0,7.6379-2.9607Z"/><path class="cls-1" d="M633.99,119.6237c-2.8409.0592-3.1961.0592-5.92.2368l-.4143-.4143.0591-1.9532c.0592-3.0791.0592-6.2174.0592-9.2965l-.0592-6.3344a18.2089,18.2089,0,0,0-.2959-4.0274c-.6524-2.7226-2.31-4.5-5.33-4.5-3.375,0-5.9792,1.8953-7.9338,3.3158-.0578,10.3027.0606,15.69.4157,22.6177l-.2973.3551c-2.7226.0592-3.4328.0592-6.3344.2368l-.2973-.4143c.1184-4.2037.2973-9.5319.2973-20.9,0-4.9745-.0605-9.9476-.1184-14.9206-.1183-5.2112-.2973-6.9277-.4735-9.5925l.2946-.3551c2.8437-.4735,3.7907-.651,6.4555-1.2429l.3551.4143c-.3551,6.3358-.3551,12.7293-.3551,19.1243a19.1053,19.1053,0,0,1,10.5972-3.671,10.0311,10.0311,0,0,1,3.9669.71,7.9365,7.9365,0,0,1,4.8547,5.6255c.2974,1.1837.2974,1.8939.4157,5.8609v6.9276l.0578,2.7831c.1184,4.9731.1184,5.8017.3552,9.0584Z"/><g id="UNI"><g id="path14"><path class="cls-2" d="M46.8922,120.7293a39.544,39.544,0,0,1-18.2754-4.4966,47.4258,47.4258,0,0,1-14.9043-12.2468C4.87,93.2077,0,78.8813,0,63.6457s4.87-29.5621,13.7125-40.34A47.423,47.423,0,0,1,28.6168,11.0586a39.3846,39.3846,0,0,1,36.5507,0A47.4241,47.4241,0,0,1,80.0718,23.3054c8.8427,10.7782,13.7126,25.1047,13.7126,40.34s-4.87,29.5619-13.7126,40.34a47.4269,47.4269,0,0,1-14.9043,12.2468A39.5442,39.5442,0,0,1,46.8922,120.7293Zm0-113.5059C21.4005,7.2234.6615,32.5344.6615,63.6457s20.739,56.4221,46.2307,56.4221S93.1228,94.7569,93.1228,63.6457,72.3839,7.2234,46.8922,7.2234Z"/></g><g id="path16"><path class="cls-2" d="M46.8922,118.1907a36.9875,36.9875,0,0,1-17.259-4.2979A44.895,44.895,0,0,1,15.56,102.1893C7.2123,91.8909,2.6148,78.2026,2.6148,63.6457S7.2123,35.4,15.56,25.1019A44.896,44.896,0,0,1,29.6332,13.3985a36.8019,36.8019,0,0,1,34.5178,0A44.8946,44.8946,0,0,1,78.2238,25.1019C86.572,35.4,91.17,49.0887,91.17,63.6456v0c0,14.5569-4.5975,28.2452-12.9457,38.5436A44.8936,44.8936,0,0,1,64.151,113.8928,36.9873,36.9873,0,0,1,46.8922,118.1907Zm0-108.4324c-24.0521,0-43.62,24.1738-43.62,53.8874s19.5677,53.8872,43.62,53.8872,43.62-24.1736,43.62-53.8872S70.944,9.7583,46.8922,9.7583Z"/></g><g id="path18"><path class="cls-2" d="M46.8922,107.6333c-9.0473,0-17.55-4.5812-23.9426-12.9-6.3824-8.3056-9.8974-19.3461-9.8974-31.0878s3.515-22.7822,9.8974-31.0879c6.3923-8.3185,14.8953-12.9,23.9426-12.9s17.55,4.5813,23.9426,12.9c6.3824,8.3057,9.8974,19.3463,9.8974,31.0879s-3.515,22.7822-9.8974,31.0878C64.4424,103.0521,55.94,107.6333,46.8922,107.6333Zm0-87.6464c-8.9428,0-17.3532,4.5355-23.6818,12.7713-6.3385,8.2485-9.8293,19.218-9.8293,30.8875S16.8719,86.2846,23.21,94.5332c6.3286,8.2357,14.739,12.7713,23.6818,12.7713s17.3532-4.5356,23.6819-12.7713c6.3384-8.2486,9.8293-19.2179,9.8293-30.8875s-3.4909-22.639-9.8293-30.8875C64.2454,24.5224,55.8349,19.9869,46.8922,19.9869Z"/></g><g id="path20"><path class="cls-3" d="M73.996,99.2831h0"/></g><g id="path22"><path class="cls-2" d="M7.4705,83.4727l-.0619-.2862a.556.556,0,0,0,.0126-.1034q.0012-.0492-.0008-.0936l-.0093-.0429a.1335.1335,0,0,0-.0167-.0414l-.0272-.0538L7.34,82.7975l-.0694-.2845,3.04-.6583a3.2924,3.2924,0,0,0,.8583-.2944,1.3414,1.3414,0,0,0,.5072-.4427,1.47,1.47,0,0,0,.2066-.5013,1.5161,1.5161,0,0,0,.008-.5555,1.6847,1.6847,0,0,0-.2677-.5892,1.0915,1.0915,0,0,0-.4176-.3473,1.8737,1.8737,0,0,0-.634-.1433,3.5341,3.5341,0,0,0-.8023.05l-3.1142.6742L6.5929,79.42a.1049.1049,0,0,0,.0139-.0254l.0065-.0239a.0437.0437,0,0,0,.0072-.02.0614.0614,0,0,0,0-.0184.0752.0752,0,0,0-.0091-.0243.0424.0424,0,0,0-.0151-.0155L6.58,79.2692l-.0076-.0171-.0693-.284,2.98-.6458a3.4675,3.4675,0,0,1,.9583-.0839,2.2292,2.2292,0,0,1,.8012.1968,1.4114,1.4114,0,0,1,.61.5337,2.8066,2.8066,0,0,1,.3628.9394l.062.2856.0069.0322.007.0322.007.0322.007.0322a2.8151,2.8151,0,0,1,.0591,1.0273,1.2577,1.2577,0,0,1-.3442.71,2.8148,2.8148,0,0,1-.6253.4536,2.8731,2.8731,0,0,1-.7505.2714l-.0149.0032-3.1589.6841"/></g><g id="path24"><path class="cls-2" d="M6.1007,76.5514,6.07,76.26l-.0373-.3489L9.351,72.321l-3.66.3906-.0313-.291a.07.07,0,0,0,.0266-.0395l.01-.0452c-.0069-.0188-.0139-.0351-.02-.0493a.314.314,0,0,0-.0189-.0349l-.0387-.29,5.2328-.5581.031.2908.03.2836-3.425,3.6678,3.7734-.4027.0311.2908.0015.0147.0016.0149a.0458.0458,0,0,1-.0016.0219.0355.0355,0,0,0-.0022.0149l.0028.0257a.06.06,0,0,0,.01.0246l.0027.0255.0027.0254.0311.291-5.24.559"/></g><g id="path26"><path class="cls-2" d="M5.5592,68.9657a.47.47,0,0,0,.0241-.0755l.0008-.011.0008-.0109.0006-.0111.0008-.0108a.79.79,0,0,0-.0135-.0852c-.0058-.0273-.0105-.0507-.0142-.0706l.0117-.2924,5.2509.3473-.0193.292c-.0013.0192-.004.0425-.0084.0691a.6927.6927,0,0,1-.0164.0758l-.0008.0111-.0008.0107-.0008.0147-.001.0145c.0031.03.0053.0553.0063.0776a.6015.6015,0,0,1-.0007.0695l-.0194.2918-5.2585-.3478.0193-.292a.3383.3383,0,0,0,.0385-.0668"/></g><g id="path28"><path class="cls-2" d="M5.3274,66.2343c.0124-.03.024-.0614.0343-.0944l.0036-.0217.0022-.0143.0042-.0252.0029-.0179c0-.03-.0019-.06-.0048-.09s-.0045-.06-.0049-.09l.0391-.29,4.1967-.9458a1.9338,1.9338,0,0,0-.1682-.127c-.0625-.0425-.1312-.0867-.2058-.1334q-.2165-.1386-.451-.2838t-.4951-.2984q-.0841-.0507-.1728-.0982c-.059-.0318-.1192-.0648-.18-.1-.0284-.0145-.0567-.03-.0848-.0469l-.0913-.0555c-.0285-.0145-.058-.03-.0885-.0477s-.06-.033-.0886-.0475q-.2262-.1251-.442-.2455t-.4366-.23q-.2124-.1161-.4116-.2183t-.3775-.19l.0389-.29a.1718.1718,0,0,0,.0295-.04q.0113-.0206.0233-.0483L6,62.1354l.0018-.011.0093-.01.0017-.0107a.1586.1586,0,0,0,.0015-.0332.4133.4133,0,0,0-.0048-.0416.123.123,0,0,1-.0061-.0344.13.13,0,0,0-.006-.0342l.0391-.29L10.8328,64.6l-.0465.289-.0024.0145c-.0007.0048-.0036.0066-.0088.006l-.0059.0137-.0061.0137a.1309.1309,0,0,0-.0165.0308.1507.1507,0,0,0-.009.032l.0391-.29a.0237.0237,0,0,1,.0045.0191.0239.0239,0,0,0,.0047.0191.0513.0513,0,0,0,0,.0224.0474.0474,0,0,1,0,.0223.2868.2868,0,0,1,.0043.0451.2432.2432,0,0,1-.0033.0437l-.0466.2891-5.51,1.4451.0466-.2891a.5615.5615,0,0,0,.05-.092"/></g><g id="path30"><path class="cls-2" d="M5.76,60.342l.0312-.2908.281-2.6326c.0249.0076.0457.0145.0628.0213l.0476.02.0185.0059.0186.0056a.056.056,0,0,0,.022.01l.0226.0023.0151.0016.03.0034.0644.007a.2417.2417,0,0,0,.0573-.0012.1213.1213,0,0,0,.0307-.0006.13.13,0,0,0,.0314-.0078c.0157-.003.0287-.0053.039-.0065a.1387.1387,0,0,0,.0314-.0078l-.0386.29-.0535.2149q-.0267.1074-.0476.2306-.02.1153-.0366.2347t-.03.2435l-.0007.007a.2193.2193,0,0,1,.0017.0555l-.0058.0546L6.347,58.86l-.0056.0511-.0066.0618-.0073.069a.2412.2412,0,0,1,.001.0626l-.0066.0616-.0135.1274-.0128.12,1.83.1956.0855-.8.0125-.69.0311-.291a.3557.3557,0,0,1,.0623.0251c.0168.0089.0326.0169.0471.0234a.2481.2481,0,0,0,.056.0135l.0567.006.03.003.03.0034a.1649.1649,0,0,0,.0383,0,.1317.1317,0,0,1,.0307,0q.031-.0039.0661-.0114a.5853.5853,0,0,1,.0738-.0105l-.0386.29-.16.851-.0669.6253,2.1475.2294a.6639.6639,0,0,0,.0344-.1067.9644.9644,0,0,0,.0208-.1229.866.866,0,0,0,.02-.1153l.0132-.1238.0069-.0656a.2219.2219,0,0,0-.0013-.0586l.0066-.0619.0066-.0618q.0081-.1467.0152-.2854c.0049-.0925.0095-.1853.0143-.2779-.0007-.0885-.001-.1692-.0008-.2429s.0008-.14.002-.1984l.0236-.2914a.6224.6224,0,0,1,.07.0256.5629.5629,0,0,0,.07.0259.2377.2377,0,0,0,.06.0137l.06.0066.0605.0065a.2617.2617,0,0,0,.0612-.0012.2372.2372,0,0,0,.0548-.0123.1224.1224,0,0,0,.0323-.0149l-.031.2908L10.94,60.8952,5.76,60.342"/></g><g id="path32"><path class="cls-2" d="M8.9066,54.9632a.273.273,0,0,0,.0119-.0426,2.85,2.85,0,0,0,.0382-.4987,1.121,1.121,0,0,0-.068-.3844,1.471,1.471,0,0,0-.1543-.3149.9661.9661,0,0,0-.1955-.2185.9905.9905,0,0,0-.1528-.1139.626.626,0,0,0-.1535-.0693,1.277,1.277,0,0,0-.1387-.0444c-.0394-.01-.0715-.0169-.0966-.0218a.5664.5664,0,0,0-.0835-.008c-.0308-.0006-.0669,0-.1086.0022a.4065.4065,0,0,0-.1264.0137q-.0652.018-.139.0414a.73.73,0,0,0-.2138.1091,1.2775,1.2775,0,0,0-.2044.1855.8535.8535,0,0,0-.1742.2725,1.96,1.96,0,0,0-.1121.3955l-.0777.3354,2.1237.3936a.0643.0643,0,0,0,.0253-.0324Zm-2.6192.5482.0533-.2876.3252-1.7546a2.3452,2.3452,0,0,1,.2214-.61,1.1336,1.1336,0,0,1,.3437-.394,1.23,1.23,0,0,1,.4481-.1844,1.3305,1.3305,0,0,1,.4982.003,1.4838,1.4838,0,0,1,.4473.1534.9473.9473,0,0,1,.3157.2781,1.9381,1.9381,0,0,1,.2078.34,1.5471,1.5471,0,0,1,.12.3534q.0153.0844.0313.1656a.8694.8694,0,0,1,.0161.163,1.04,1.04,0,0,1,.007.15c-.0015.05-.0031.0936-.0054.1328l2.8773-1.46-.0534.2874-.01.0541a.2141.2141,0,0,1-.0176.0524.34.34,0,0,1-.0138.0533.2473.2473,0,0,1-.02.0447l-.0073.04-.006.0324-.0027.0143-.004.0217a.02.02,0,0,1,.0049.0157l-.004.0216c-.0013.0342-.004.07-.0082.1062s-.01.0739-.0169.1121l-.0533.2878-2.7348,1.36,2.4.4451-.0533.2874-.008.0433a.1329.1329,0,0,1-.0156.042l-.0032.0179a.0244.0244,0,0,1-.0108.0165.0508.0508,0,0,1-.0077.0209.0516.0516,0,0,0-.0078.0208l-.004.0215a.0209.0209,0,0,1,.0048.0159l-.0026.0145c0,.0294-.0021.059-.0049.0883s-.0069.0582-.0121.087l-.0534.2877-5.1819-.9607"/></g><g id="path34"><path class="cls-2" d="M8.0048,50.1987a1.2008,1.2008,0,0,1-.2944-.4242,2.0382,2.0382,0,0,1-.1233-.4778,1.6663,1.6663,0,0,1,.0091-.4737l.011-.0424.0111-.0425.0065-.0246a.0588.0588,0,0,0-.0009-.0271l.0055-.0211.0055-.0212.0662-.2849a2.6177,2.6177,0,0,1,.125-.33,1.88,1.88,0,0,1,.1712-.2956,1.0017,1.0017,0,0,1,.1949-.2213.7852.7852,0,0,1,.21-.127.52.52,0,0,0,.0735.0946.6277.6277,0,0,0,.0939.0774q.0535.0366.1252.0779c.0477.0276.0994.056.1545.0855l.0276.0149.0423.0185-.0736.283-.0368.1115c-.0109.002-.026.0046-.045.007s-.04.006-.0617.0105a.6533.6533,0,0,0-.078.0137.6172.6172,0,0,0-.0728.0227.7759.7759,0,0,0-.172.0875,1.1563,1.1563,0,0,0-.17.1409.8827.8827,0,0,0-.1122.1292.6553.6553,0,0,0-.0809.1606.5991.5991,0,0,0,.0211.2511,1.06,1.06,0,0,0,.115.2526.8962.8962,0,0,0,.2383.2624.9152.9152,0,0,0,.3083.1443l.0332.0087.0331.0088.0148.0036a.0218.0218,0,0,0,.0165-.0032l.0147.0038.0146.0037a.7257.7257,0,0,0,.2107-.0095,1.4605,1.4605,0,0,0,.2329-.0642,1.1555,1.1555,0,0,0,.2289-.1407,1.4627,1.4627,0,0,0,.2273-.2241l.5354-.7a1.7835,1.7835,0,0,1,.3312-.3069,1.1439,1.1439,0,0,1,.3588-.1713,1.299,1.299,0,0,1,.3726-.0581,1.4,1.4,0,0,1,.3616.0448l.04.0107.033.0086.0149.0039.0147.0034a.0615.0615,0,0,0,.02.0131l.0148.004a1.6525,1.6525,0,0,1,.5181.3043,2.1121,2.1121,0,0,1,.4131.4966,1.5718,1.5718,0,0,1,.2255.6142,1.7294,1.7294,0,0,1-.0488.671l-.0736.2831-.0091.0354-.0074.0284-.0073.0284-.0075.0283a.0628.0628,0,0,0-.0147.0262l-.0073.0284-.0074.0282a.067.067,0,0,1-.0146.0265.1475.1475,0,0,1-.0129.0344.1129.1129,0,0,0-.0111.0272,2.0447,2.0447,0,0,1-.1315.2493c-.05.0805-.1028.1584-.1592.2345a1.74,1.74,0,0,1-.3532.3314l-.0184.01-.0166.0032c-.0392-.03-.079-.0582-.12-.0839a.7568.7568,0,0,0-.11-.059c-.0184-.01-.0358-.0181-.0525-.0249a.5289.5289,0,0,0-.0542-.0181.3014.3014,0,0,0-.0451-.0228.4376.4376,0,0,0-.0543-.0179l-.0257-.0066a.0638.0638,0,0,1-.024-.0139l-.0294-.0075-.0295-.0078-.0588-.0151-.0589-.0155.0147-.1171.0735-.283a3.1437,3.1437,0,0,0,.5529-.2226.786.786,0,0,0,.29-.2386q.0552-.0915.0993-.1705t.0774-.1463a.939.939,0,0,0-.0122-.3471.77.77,0,0,0-.137-.2884,1.1878,1.1878,0,0,0-.277-.2646,1.2185,1.2185,0,0,0-.3358-.1592,1.0466,1.0466,0,0,0-.2934-.0346,1.1967,1.1967,0,0,0-.2991.0467.7759.7759,0,0,0-.2769.1284,1.0007,1.0007,0,0,0-.2254.2324l-.55.6353a1.9655,1.9655,0,0,1-.43.4136.81.81,0,0,1-.4.1489,3.0605,3.0605,0,0,1-.3808-.0159,2.5508,2.5508,0,0,1-.3828-.069l-.0148-.0037a1.6163,1.6163,0,0,1-.5042-.3125"/></g><g id="path36"><path class="cls-2" d="M8.8378,44.9983a.4837.4837,0,0,0,.0413-.0675l.0034-.0106.0032-.01.0034-.0105.0034-.01A.8358.8358,0,0,0,8.9,44.8029c.0008-.0278.002-.0518.0029-.0717l.0814-.2813,5.0153,1.5938-.0886.2791c-.006.0183-.014.04-.0246.065a.7675.7675,0,0,1-.0342.07l-.0033.01-.0034.0105-.0043.0139-.0045.014c-.004.0294-.0081.0552-.0123.0767a.5936.5936,0,0,1-.0175.0674l-.0885.2788L8.6955,45.3329l.0886-.2789a.3643.3643,0,0,0,.0537-.0557"/></g><g id="path38"><path class="cls-2" d="M10.3764,41.5218l4.2212,1.6919q.0468-.0757.085-.1512t.0754-.1471l.015-.0374.0121-.03a.1255.1255,0,0,0,.0222-.0344l.0123-.0308a3.8032,3.8032,0,0,0,.2423-1.0136,1.77,1.77,0,0,0-.103-.8056,1.8624,1.8624,0,0,0-.5246-.6949,4.1527,4.1527,0,0,0-.9768-.6081l-.0282-.0115a.0708.0708,0,0,1-.0256-.0181l-.0282-.0113-.0281-.0114-.0531-.0212-.0529-.0211a2.6024,2.6024,0,0,0-.8594-.2065,1.2339,1.2339,0,0,0-.6652.1469,2.5769,2.5769,0,0,0-.5106.3745,2.1735,2.1735,0,0,0-.3814.4812c-.0137.0209-.0264.0423-.0378.0638a.7163.7163,0,0,0-.0308.0666c-.0154.025-.029.0487-.04.07a.724.724,0,0,0-.0307.0664.2391.2391,0,0,1-.02.0391.2034.2034,0,0,0-.0172.0328l-.0163.0406-.0163.0409-.0163.0408-.0163.04a.3358.3358,0,0,0-.0157.0491.2572.2572,0,0,1-.0126.0422c-.0154.0516-.0308.1-.0466.1468s-.0295.0909-.0411.133c-.008.034-.0162.0646-.0248.0929s-.0174.0532-.0264.0759c-.0044.0246-.0094.0475-.0153.0688a.4912.4912,0,0,1-.0169.0522Zm.2817-1.6835a2.8822,2.8822,0,0,1,.5829-.9129,1.5392,1.5392,0,0,1,.766-.43,2.7754,2.7754,0,0,1,.8766-.05,3.31,3.31,0,0,1,.9038.2284c.0754.03.1515.0646.2289.1036s.1581.0829.2418.1324.1655.1017.2443.157a2.6661,2.6661,0,0,1,.2334.184,2.8229,2.8229,0,0,1,.4369.4944,3.55,3.55,0,0,1,.3445.6226,1.8181,1.8181,0,0,1,.1318.7541,2.782,2.782,0,0,1-.1837.8876l-.1087.2713-.7946,1.9824L9.67,42.3024l.109-.2716.879-2.1925"/></g><g id="path40"><path class="cls-2" d="M16.0442,35.0937,14.45,34.898l1.0146,1.2457Zm-2.8486-.7883.1415-.256.0814-.1473,5.7555.6063-.1416.256-.023.0417-.0265.0479-.0266.0481-.03.0543-.0159.0288a.07.07,0,0,1-.0227.0253l-.0159.0286-.0157.0288a.0725.0725,0,0,1-.0093.0326l-.0159.0288-.0141.0257-.0107.0191-.0125.0224-.0123.0225-.1415.256-2.2261-.3109-.7216,1.306,1.4766,1.6679-.1415.256-.016.0289-.0159.0288-.0243.0284a.0292.0292,0,0,1-.004.0229l-.0106.019-.0123.0225-.0125.0225-.1413.256-.0214.0384-.0212.0383-3.5521-4.5943"/></g><g id="path42"><path class="cls-2" d="M16.6431,29.7586l3.5635,2.8252q.0664-.0589.1246-.12l.1141-.12.025-.0314.02-.0259a.1229.1229,0,0,0,.031-.0268l.0205-.0258a3.8008,3.8008,0,0,0,.5214-.9025,1.7706,1.7706,0,0,0,.1308-.8016,1.86,1.86,0,0,0-.3043-.8154,4.157,4.157,0,0,0-.7631-.8617l-.0237-.0189a.07.07,0,0,1-.0193-.0246L20.06,28.79l-.0237-.0189-.0447-.0354-.0447-.0354a2.6115,2.6115,0,0,0-.7648-.443,1.237,1.237,0,0,0-.68-.0489,2.6026,2.6026,0,0,0-.5961.2132,2.1686,2.1686,0,0,0-.5027.3529.7036.7036,0,0,0-.103.1051c-.022.02-.0418.0384-.0589.0559s-.0333.036-.0483.0548a.2408.2408,0,0,1-.03.032.22.22,0,0,0-.0258.0265l-.0273.0344-.0272.0344-.0273.0343-.0272.0344A.2978.2978,0,0,0,17,29.2293a.2644.2644,0,0,1-.0242.0367c-.0295.0452-.0582.0877-.0865.1275s-.0541.0785-.0774.1158c-.0173.03-.034.0571-.05.0817s-.0318.0462-.0471.0652a.7007.7007,0,0,1-.0341.0617.467.467,0,0,1-.0312.0453Zm.75-1.5335a2.8877,2.8877,0,0,1,.819-.7087,1.5394,1.5394,0,0,1,.8568-.1932,2.7727,2.7727,0,0,1,.8546.2014,3.3191,3.3191,0,0,1,.8013.4766q.0951.0757.19.1646c.063.0593.1276.1244.194.196s.13.1445.1894.22a2.702,2.702,0,0,1,.1712.2431,2.83,2.83,0,0,1,.2779.5983,3.5586,3.5586,0,0,1,.1524.6949,1.8211,1.8211,0,0,1-.0884.76,2.7954,2.7954,0,0,1-.4294.7983l-.1817.2292L19.8733,33.58l-4.13-3.2743.1818-.2294,1.4676-1.851"/></g><g id="path44"><path class="cls-2" d="M24.0223,20.7054l.2413-.1823.29-.2188,4.9505,1.033L27.21,18.2988l.2415-.1822a.0745.0745,0,0,0,.0493.0021l.0457-.0147c.0128-.0163.0237-.0312.0326-.0445a.2351.2351,0,0,0,.0207-.0354l.237-.1884,3.28,4.3442-.2418.1823L30.64,22.54l-5.0759-1.0861,2.365,3.1329-.2415.1821-.0121.0091-.012.0091a.0491.0491,0,0,1-.0206.0106l-.0144.0059-.0212.0159a.062.062,0,0,0-.0163.0225l-.0211.0159-.0211.0159-.2417.1823-3.2843-4.3506"/></g><g id="path46"><path class="cls-2" d="M33.6913,17.8732l-1.2441-1.1018.1343,1.6564Zm-1.9655-2.3418.2707-.1353.1559-.0777,4.5492,3.8908-.2708.1352-.0439.0222-.0509.0253-.0507.0254-.0574.0286-.03.0153a.0709.0709,0,0,1-.034.008l-.03.0153-.0307.0153a.0722.0722,0,0,1-.0268.0221l-.03.0155-.0272.0135-.02.01-.0237.0117-.0236.012L35.68,19.72l-1.715-1.57-1.38.69.28,2.2871-.2708.1351-.03.0151-.0306.0153-.0373.01a.03.03,0,0,1-.0167.0171l-.02.01-.0237.0119-.0236.0118-.2708.1353-.0405.02-.0406.02-.3337-5.9977"/></g><g id="path48"><path class="cls-2" d="M36.601,15.3255a2.9925,2.9925,0,0,1,.2969-1.0181,2.42,2.42,0,0,1,.6916-.8424,3.0627,3.0627,0,0,1,1.0589-.5121l.2894-.0888a.3668.3668,0,0,0,.0749-.0129l.0728-.02a.3853.3853,0,0,0,.0751-.0127l.0728-.02q.0822-.015.16-.0324t.16-.0324a2.4875,2.4875,0,0,1,.3119-.05q.1568-.0151.313-.0181a1.9721,1.9721,0,0,1,.3034.0175,1.7458,1.7458,0,0,1,.2848.0634l-.0119.6321-.2916.0815-.0583.0163a3.3418,3.3418,0,0,0-.3319-.1483,2.2427,2.2427,0,0,0-.334-.0988,2.0845,2.0845,0,0,0-.33-.0425,2.8329,2.8329,0,0,0-.3173.0028c-.0306.0032-.0608.0075-.0906.0131a.7293.7293,0,0,1-.0833.0109l-.0147.0042-.0109.003-.0108.0032a1.8339,1.8339,0,0,0-.587.3595,2.2432,2.2432,0,0,0-.4482.5745,2.1157,2.1157,0,0,0-.2435.8438,2.8651,2.8651,0,0,0,.1135.9975l.0127.0453.0127.0453a3.88,3.88,0,0,0,.4821,1.066,1.6887,1.6887,0,0,0,.6659.5983,2.336,2.336,0,0,0,.6969.2179,2.0077,2.0077,0,0,0,.6846-.0236,2.7,2.7,0,0,0,.3558-.1609,2.338,2.338,0,0,0,.3313-.219,2.4791,2.4791,0,0,0,.3073-.2777,2.3017,2.3017,0,0,0,.2437-.3089l.2893-.089.0729.486a1.22,1.22,0,0,1-.0829.0966c-.0286.03-.0542.0588-.0779.087a1.0159,1.0159,0,0,1-.0871.0817l-.0894.0738c-.0479.0353-.095.0674-.1417.0968a1.4887,1.4887,0,0,0-.1346.0948c-.0181.01-.035.0207-.05.03s-.03.0193-.0431.0282q-.1029.0534-.1988.1046t-.1934.0948c-.065.0292-.13.0552-.1938.0787s-.13.0445-.1984.0636l-.2914.0813a2.8784,2.8784,0,0,1-1.04.1024,2.6637,2.6637,0,0,1-1.0048-.3075,2.4273,2.4273,0,0,1-.8309-.7115,3.2857,3.2857,0,0,1-.5112-1.0863l-.0044-.0151a2.819,2.819,0,0,1-.096-1.0469"/></g><g id="path50"><path class="cls-2" d="M43.1983,12.1125a.5019.5019,0,0,0,.0809.0109l.0114-.0009.0113-.0012.0113-.0014.0114-.0012a.8567.8567,0,0,0,.0842-.0288l.0694-.0271.3-.04.5792,5.4124-.3009.0322c-.02.0022-.0442.0034-.072.0038a.6971.6971,0,0,1-.08-.0034l-.0111.0012-.0114.0012-.0151.0016-.0149.0016c-.03.0086-.0555.0153-.0777.02a.6017.6017,0,0,1-.0712.0115l-.3007.0324-.58-5.42.3007-.0322a.3668.3668,0,0,0,.0753.0276"/></g><g id="path52"><path class="cls-2" d="M46.9767,14.5666a3.5934,3.5934,0,0,0,.0944,1.0873,2.0982,2.0982,0,0,0,.41.82,1.9486,1.9486,0,0,0,1.3434.72,1.7652,1.7652,0,0,0,.7156-.154,1.9216,1.9216,0,0,0,.6007-.4353,2.45,2.45,0,0,0,.4927-.7793,4.172,4.172,0,0,0,.2638-1.058L50.9,14.731l.0012-.0274.0016-.0316.0016-.0312a2.9144,2.9144,0,0,0-.1012-.95,2.3687,2.3687,0,0,0-.4041-.8,2.06,2.06,0,0,0-.6071-.518,1.9948,1.9948,0,0,0-.7649-.2343,1.8371,1.8371,0,0,0-.6726.1286,1.3916,1.3916,0,0,0-.5176.3645,3.3713,3.3713,0,0,0-.41.5705,3.4076,3.4076,0,0,0-.2767.6244q-.0278.1011-.0551.1942c-.018.0622-.034.1244-.0467.1866s-.0252.1249-.036.1875-.0224.1222-.0351.1793ZM45.9,14.439l.0032-.0668c.0014-.0262.0037-.0523.0077-.0783s.0088-.0521.0149-.0781a2.75,2.75,0,0,1,.294-.8951,3.3855,3.3855,0,0,1,.6077-.8092,2.21,2.21,0,0,1,.9058-.558,3.3565,3.3565,0,0,1,1.2187-.1413l.3025.0071a4.425,4.425,0,0,1,1.1808.2547,1.8856,1.8856,0,0,1,.773.5259,3.2112,3.2112,0,0,1,.4625.6842,2.6559,2.6559,0,0,1,.2406.7365.7282.7282,0,0,1,.0182.0954c.003.0316.0068.0606.0106.087l.0105.0951c.0036.0316.007.0636.0108.0952a1.7565,1.7565,0,0,1,.01.1854c-.0006.06,0,.12.0026.1773l-.0008.0157-.0012.0235-.0014.0316-.0012.0235a3.0245,3.0245,0,0,1-.2729,1.164,2.3064,2.3064,0,0,1-.6969.8519,2.9422,2.9422,0,0,1-2.0158.6417l-.3022-.0149-.03-.0014-.03-.0016-.034-.0016-.0342-.0016c-.0654-.0032-.1294-.0077-.1924-.0135a1.6311,1.6311,0,0,1-.1916-.029,1.2519,1.2519,0,0,1-.195-.0412c-.0646-.0187-.1294-.0375-.1938-.0566a2.4184,2.4184,0,0,1-.711-.3342,3.4836,3.4836,0,0,1-.6387-.5665,2,2,0,0,1-.4333-.8207,3.5368,3.5368,0,0,1-.101-1.1036l.0006-.0157L45.9,14.439"/></g><g id="path54"><path class="cls-2" d="M54.6476,12.586l.2892.0885.3475.1063,2.0672,4.6152,1.1152-3.64.2892.0887a.0772.0772,0,0,0,.0272.0413l.0386.028q.0316.0015.0555.0006a.2716.2716,0,0,0,.0407-.004l.2916.0812-1.5944,5.2045-.2894-.0885-.2821-.0864-2.098-4.748-1.15,3.7531-.2893-.0887-.0143-.0045-.0145-.0044a.0527.0527,0,0,1-.0207-.01.03.03,0,0,0-.0131-.0082l-.0254-.0078a.0588.0588,0,0,0-.0276,0l-.0253-.0078-.0254-.0078-.2893-.0884,1.5966-5.2121"/></g><g id="path56"><path class="cls-2" d="M62.5758,18.9224l.215-1.6479-1.2964,1.04Zm.838-2.94.2638.1483.1516.0854-.673,5.9482-.2638-.1483-.0429-.0242L62.8,21.964l-.0495-.0278-.0561-.0316-.03-.0167a.0751.0751,0,0,1-.0256-.0237l-.03-.0166-.03-.0167a.0725.0725,0,0,1-.0334-.01l-.03-.0165L62.49,21.79l-.02-.0111-.023-.0129-.0235-.013-.2636-.1482.3393-2.3-1.3449-.7565-1.7371,1.5139-.2638-.1485-.03-.0165-.03-.0167-.029-.0255a.03.03,0,0,1-.0237-.0043l-.02-.0112-.0231-.0129-.0231-.0129-.2637-.1485-.04-.0223-.0393-.0222,4.7805-3.6374"/></g><g id="path58"><path class="cls-2" d="M67.4551,18.6276l.2369.188a.2122.2122,0,0,0,.0317.07.6756.6756,0,0,0,.0526.0672l.0122.0093.0117.01.0087.0069.0092.007.0119.0093a.5135.5135,0,0,0,.0684.0293l.0566.02.2421.1819-3.1126,3.9266a.7532.7532,0,0,0,.0742.0891,1.0228,1.0228,0,0,0,.096.086.92.92,0,0,0,.09.0813l.1008.08.0533.0422a.2284.2284,0,0,0,.0524.0316l.05.04.05.04q.1235.0879.2411.1709t.235.1662c.0777.0483.1485.0926.2129.1336s.1214.0779.1723.1113l.2419.1819c-.0169.0133-.0326.0244-.0461.0338a.1528.1528,0,0,0-.0352.0322.1458.1458,0,0,0-.0352.0324l-.0244.0308-.03.037-.0243.0308a.2212.2212,0,0,0-.024.0361.1309.1309,0,0,0-.0128.0348l-.0123.0155a.0657.0657,0,0,0-.0113.0263l-.0121.0155-.0124.0153-.0232.0417-.2372-.188L64.0688,22.9l3.3863-4.2719"/></g><g id="path60"><path class="cls-2" d="M73.9151,25.3581,70.4133,28.26q.0441.0771.092.1466l.0932.1366.0257.031.0211.0255a.1306.1306,0,0,0,.0194.0357l.0213.0253a3.8013,3.8013,0,0,0,.775.6969,1.7682,1.7682,0,0,0,.7574.294,1.8592,1.8592,0,0,0,.8607-.129,4.1665,4.1665,0,0,0,1.0006-.5681l.0235-.0193a.0679.0679,0,0,1,.0282-.0139l.0234-.0193.0233-.02.0439-.0364.0442-.0364a2.6206,2.6206,0,0,0,.5917-.6567,1.233,1.233,0,0,0,.1882-.6546,2.5963,2.5963,0,0,0-.085-.6273,2.1741,2.1741,0,0,0-.2411-.5649c-.012-.0221-.0243-.0432-.0382-.0637a.6469.6469,0,0,0-.0433-.0586c-.0149-.0258-.0293-.0491-.0428-.0694s-.0282-.04-.0435-.0588a.2169.2169,0,0,1-.0252-.0362.2566.2566,0,0,0-.02-.0306l-.028-.0338-.0283-.0336-.0278-.034-.0278-.0338a.2958.2958,0,0,0-.0358-.0369.2341.2341,0,0,1-.0308-.0314q-.0576-.057-.107-.111t-.0972-.0995c-.0258-.0231-.0489-.045-.0695-.066s-.0386-.041-.0543-.06c-.02-.0155-.0374-.0308-.0533-.0461a.5222.5222,0,0,1-.0377-.04ZM75.26,26.4092a2.8891,2.8891,0,0,1,.5236.948,1.5348,1.5348,0,0,1,.0117.8784,2.7758,2.7758,0,0,1-.3739.7943,3.3153,3.3153,0,0,1-.6321.6852q-.0939.0778-.2.1516t-.2318.1493c-.0837.05-.1684.0968-.2548.14a2.6712,2.6712,0,0,1-.2732.117,2.8216,2.8216,0,0,1-.6428.1481,3.5531,3.5531,0,0,1-.7114.0054,1.82,1.82,0,0,1-.7257-.2441,2.7807,2.7807,0,0,1-.6922-.585l-.1868-.2254-1.3624-1.6445,4.058-3.3623.187.2253L75.26,26.4092"/></g><g id="path62"><path class="cls-2" d="M77.5889,29.571l.1612.2439,1.4592,2.2092q-.036.0149-.0622.0234l-.0493.0151a.0594.0594,0,0,1-.0179.0074l-.0177.0075a.0608.0608,0,0,0-.0232.0064l-.0189.0127-.0129.0084-.0255.0167-.0536.0355a.2486.2486,0,0,0-.0438.0376.1346.1346,0,0,0-.0232.02.1567.1567,0,0,0-.0193.026l-.0257.03a.1339.1339,0,0,0-.0192.0259l-.1553-.2483q-.0477-.1-.0952-.2t-.11-.2077c-.0388-.0678-.0795-.1361-.1215-.2045s-.0864-.1376-.1318-.2067l-.0041-.006a.2082.2082,0,0,1-.0366-.0418l-.03-.0457-.0322-.0487-.0281-.0427-.0343-.0519-.0382-.058a.2335.2335,0,0,1-.0406-.0477l-.0345-.0519c-.0241-.0366-.0477-.0722-.07-.1069s-.0451-.068-.0664-.1006l-1.5359,1.0143.4436.6713.43.54.161.244a.3224.3224,0,0,1-.064.02q-.028.0057-.0513.0121a.2331.2331,0,0,0-.0515.0253l-.0477.0314-.0254.0169-.0253.0167a.1562.1562,0,0,0-.03.024.13.13,0,0,1-.0232.02c-.0142.0153-.0291.0324-.044.0509a.6048.6048,0,0,1-.05.0553l-.1548-.2485-.4186-.7577-.3467-.525-1.8021,1.19a.68.68,0,0,0,.0413.1041,1.0006,1.0006,0,0,0,.0623.1082.9011.9011,0,0,0,.058.1015l.0686.104.0364.0548a.231.231,0,0,0,.0385.0446l.0342.0519.0344.0518q.0867.118.17.23t.1659.2236c.0569.0676.1084.13.1555.1867s.088.1083.1244.1542l.1676.24a.5745.5745,0,0,1-.07.0246.599.599,0,0,0-.07.0247.2561.2561,0,0,0-.0546.0274l-.0509.0334-.0509.0336a.28.28,0,0,0-.0809.0841.137.137,0,0,0-.0155.032L74.7333,34.7l-1.4914-2.2581,4.347-2.8707"/></g><g id="path64"><path class="cls-2" d="M81.4867,36.0421a.4528.4528,0,0,0,.0183.0771l.0047.01.005.01.0052.01.0047.01q.0271.0355.0555.0662l.0485.0531.14.2568-4.6827,2.4014-.1336-.2606c-.0087-.0173-.0183-.0384-.028-.0634a.61.61,0,0,1-.0251-.0736l-.0049-.01-.005-.01-.0068-.0132-.0065-.0129c-.0181-.0236-.033-.0447-.0453-.0632a.5445.5445,0,0,1-.0352-.06l-.1336-.26,4.69-2.4046.1336.26a.3274.3274,0,0,0,.0012.0773"/></g><g id="path66"><path class="cls-2" d="M82.8036,38.58l.1117.27.1342.3244-2.1731,4.3794,3.4019-1.4053.1115.27a.0718.0718,0,0,0-.0141.0458l.0028.0463c.0117.0161.0232.03.0336.0415a.25.25,0,0,0,.028.0278l.1187.2678L79.6951,44.857l-.1119-.27-.1087-.2636,2.2533-4.484L78.22,41.2882l-.1115-.2705-.0058-.0136-.0055-.0135a.0492.0492,0,0,1-.0048-.0216.0278.0278,0,0,0-.0022-.0149l-.01-.0237a.0561.0561,0,0,0-.0169-.0209l-.01-.0234-.01-.0241-.1115-.27L82.8036,38.58"/></g><g id="path68"><path class="cls-2" d="M83.7471,45.4511a2.0162,2.0162,0,0,1,.82.1768,3.106,3.106,0,0,1,.6176.38,2.3714,2.3714,0,0,1,.4564.48,2.6538,2.6538,0,0,1,.1838.2778q.0806.1406.1454.2815c.0429.0942.083.1853.1192.2737s.0676.17.0946.2429l.0889.2789q.0577.2269.0988.4626a4.5614,4.5614,0,0,1,.057.4824,3.15,3.15,0,0,1-.01.4941,4.7545,4.7545,0,0,1-.0817.5228l-.686-.0443-.0817-.2811a.38.38,0,0,1,.0251-.091.8264.8264,0,0,1,.0523-.1064c.021-.0367.0417-.0743.0618-.1133a1.3484,1.3484,0,0,0,.058-.1272,1.7631,1.7631,0,0,0,.0881-.27,3.0035,3.0035,0,0,0,.0588-.3139,1.231,1.231,0,0,0,.0129-.2969,2.0243,2.0243,0,0,0-.0546-.3384c-.0072-.0234-.0155-.0477-.0253-.0727s-.0214-.0507-.0344-.0773c-.0186-.0458-.04-.0915-.064-.138s-.0507-.0928-.08-.14a1.9107,1.9107,0,0,0-.3761-.4355,2.6189,2.6189,0,0,0-.5337-.3511,1.84,1.84,0,0,0-.6915-.1721,3.2522,3.2522,0,0,0-.8724.0787l-.0219.0064-.0292.0083-.0291.0088-.0292.0085a3.1753,3.1753,0,0,0-.94.418,2.3688,2.3688,0,0,0-.6514.6462,1.9252,1.9252,0,0,0-.3013.7468,2.05,2.05,0,0,0,.0352.816c.0322.0923.0668.18.1041.263s.0779.1638.1221.2425a1.3923,1.3923,0,0,0,.1719.2507,1.0975,1.0975,0,0,0,.1789.1651l1.9132-.5565.0817.2808a.0658.0658,0,0,0-.01.0334c0,.01,0,.0229-.0008.0384a.1572.1572,0,0,0-.0028.0312.1172.1172,0,0,0,.0046.0292l.0032.0108.0031.0105-.0041.0123.0028.0106.0019.0071c.012.0221.0255.0461.041.0722s.03.0522.0429.0787l.0889.2789-2.1249.618-.0282-.0145-.0134-.0189a.3825.3825,0,0,1-.06-.07q-.0281-.0414-.0568-.0861a.7275.7275,0,0,1-.0672-.0946c-.0209-.035-.042-.0719-.064-.1113q-.066-.1177-.1247-.2375c-.0391-.08-.0769-.1658-.1141-.2565q-.0587-.12-.1105-.23c-.0348-.0736-.066-.15-.0942-.2278-.0314-.072-.0592-.14-.0831-.2044s-.0433-.1218-.0584-.1733l-.0817-.2809-.0094-.0318-.0091-.0314-.0089-.0318-.0092-.0316a3.2912,3.2912,0,0,1-.1429-1.1159,2.24,2.24,0,0,1,.2868-.9748,2.4059,2.4059,0,0,1,.67-.7587,3.1468,3.1468,0,0,1,1.0114-.4845l.0147-.0045a4.1525,4.1525,0,0,1,1.0557-.128"/></g><g id="path70"><path class="cls-2" d="M87.0782,51.7613l.0559.2872.5057,2.5988c-.0259,0-.0477,0-.0662-.002s-.0354-.003-.0515-.005a.0627.0627,0,0,1-.0195,0,.0671.0671,0,0,0-.0191,0,.06.06,0,0,0-.0238-.0023l-.0225.0041-.0149.0028-.03.006-.0636.0125a.2363.2363,0,0,0-.0545.0177.135.135,0,0,0-.029.01.1419.1419,0,0,0-.028.0165c-.014.0074-.0257.0137-.0352.0179a.1759.1759,0,0,0-.0279.0167l-.0485-.2888c-.0037-.0738-.0079-.1471-.0119-.2209s-.0115-.1518-.0222-.2339q-.015-.1165-.0342-.2358c-.0132-.08-.0273-.16-.0432-.2411l-.0012-.0071a.2076.2076,0,0,1-.0181-.0527l-.0105-.0537-.0109-.0574-.01-.05-.0117-.0608-.0131-.0682a.2526.2526,0,0,1-.02-.06l-.0119-.0609c-.0082-.0429-.0163-.085-.0245-.1256l-.0228-.1185-1.8065.3515.1535.79.191.6631.0559.2874a.3235.3235,0,0,1-.0668-.0057c-.0189-.0036-.036-.0066-.0521-.0086a.2367.2367,0,0,0-.0573.004l-.0562.0107-.03.0058-.03.006a.1768.1768,0,0,0-.0366.0107.1383.1383,0,0,1-.0292.01c-.0189.0088-.039.0187-.06.03a.6061.6061,0,0,1-.0672.032L84.9,54.7035l-.0976-.86-.12-.6174-2.12.4123a.7046.7046,0,0,0-.0015.1121.9367.9367,0,0,0,.0165.1237.85.85,0,0,0,.0147.1162l.0238.1219.0125.0648a.2443.2443,0,0,0,.0187.0558l.012.0613.0117.0608.0694.2769c.0226.09.0455.18.0681.27q.04.1264.0724.2318c.0213.07.04.134.0563.19L83,55.61a.5914.5914,0,0,1-.0742-.004.5655.5655,0,0,0-.0745-.0042.2588.2588,0,0,0-.0612.0044l-.06.0117-.06.0114a.2589.2589,0,0,0-.0582.019.2664.2664,0,0,0-.0489.0279.1455.1455,0,0,0-.0265.0238l-.0556-.2868-.5168-2.6565,5.1133-.995"/></g><g id="path72"><path class="cls-2" d="M88.031,56.6533l.0288.291.0346.3493L84.75,60.8594l3.6628-.3635.0289.2912a.07.07,0,0,0-.0267.0393l-.0109.045c.007.0188.0137.0355.02.05a.293.293,0,0,0,.019.035l.0364.29-5.2367.52-.029-.2908-.0281-.2838,3.4518-3.6426-3.7762.3747-.0294-.291-.001-.0145-.0016-.0143a.05.05,0,0,1,.0016-.0225.0361.0361,0,0,0,.0024-.0149l-.0024-.0254a.06.06,0,0,0-.01-.0247l-.0024-.0258-.0026-.0253-.0288-.291,5.2443-.5208"/></g><g id="path74"><path class="cls-2" d="M88.5152,63.8848a.5314.5314,0,0,0-.0175.0771l0,.0112,0,.0109,0,.0109,0,.011a.8509.8509,0,0,0,.0208.0836c.008.0265.0148.0495.02.0692l.0135.2922-5.2616.1042-.0055-.2926c0-.02,0-.0428.0024-.07a.6948.6948,0,0,1,.01-.0769l0-.011,0-.0109,0-.0145,0-.0149c-.0055-.029-.01-.0545-.0127-.0761a.5532.5532,0,0,1-.0054-.07l-.0055-.2926,5.2689-.1044.0058.2926a.3579.3579,0,0,0-.033.07"/></g><g id="path76"><path class="cls-2" d="M88.51,66.4744l-.0026.2924-.0218,2.6473c-.0255-.0049-.0467-.01-.0646-.0149l-.0493-.0149a.0634.0634,0,0,1-.0189-.0042l-.0191-.0035a.056.056,0,0,0-.0227-.0076l-.0228,0h-.0151l-.03,0-.0646-.0006a.2488.2488,0,0,0-.0573.007.13.13,0,0,0-.03.0034.1544.1544,0,0,0-.03.01c-.0153.0052-.028.0085-.0382.0109a.1393.1393,0,0,0-.03.0106l.01-.2924q.0161-.11.0324-.2193c.0107-.0729.0189-.1511.0246-.2337.0058-.078.01-.1571.0136-.2378s.0049-.1618.0057-.2445V68.175A.2116.2116,0,0,1,88.07,68.12l0-.0548,0-.0589,0-.0511.0005-.0618.0008-.07a.2332.2332,0,0,1-.0073-.0618L88.066,67.7l.0008-.128c.0006-.0416.0008-.0817.001-.1205l-1.84-.0155-.0068.8047.0553.6879-.0024.2924a.3361.3361,0,0,1-.0644-.0186c-.0177-.0074-.0342-.014-.0493-.0189a.2509.2509,0,0,0-.057-.0078l-.0571,0-.0306-.0006h-.03a.1582.1582,0,0,0-.038.0032.1464.1464,0,0,1-.0306.0034q-.03.0071-.0648.0179a.6572.6572,0,0,1-.0722.0175l.01-.2926.0755-.8623.0054-.629-2.16-.0176a.711.711,0,0,0-.0237.1093,1.035,1.035,0,0,0-.0087.1244.9605.9605,0,0,0-.0086.1169l-.0009.1244,0,.0658a.2262.2262,0,0,0,.0071.0585l-.0006.0622-.0006.0622q.0063.1464.0129.2856c.0044.0925.0086.1851.0132.2779.0091.0877.0175.1684.0246.2413s.0125.1394.0173.1976l.0052.2928a.6852.6852,0,0,1-.072-.0189.672.672,0,0,0-.0725-.019.2611.2611,0,0,0-.06-.0078l-.0612,0-.0608-.0006a.26.26,0,0,0-.0606.0068.2659.2659,0,0,0-.0537.0179.1372.1372,0,0,0-.03.018l.0024-.2926L83.3,66.4315l5.2093.0429"/></g><g id="path78"><path class="cls-2" d="M85.9325,72.1427a.2443.2443,0,0,0-.0076.0432,2.8336,2.8336,0,0,0,.0106.5,1.127,1.127,0,0,0,.1053.3763,1.4908,1.4908,0,0,0,.1845.2985.9829.9829,0,0,0,.2156.1982,1.04,1.04,0,0,0,.1634.0982.6429.6429,0,0,0,.16.0539,1.3143,1.3143,0,0,0,.1423.0308c.04.0057.0729.01.0982.0119a.5885.5885,0,0,0,.0841,0c.0306-.0026.0663-.0068.1077-.0129a.3913.3913,0,0,0,.1242-.0259c.0422-.0163.0871-.0345.1346-.055a.7276.7276,0,0,0,.202-.1294,1.2849,1.2849,0,0,0,.1852-.2044.8532.8532,0,0,0,.1469-.2884,1.9434,1.9434,0,0,0,.0726-.4047l.0447-.3411-2.1522-.1841a.0644.0644,0,0,0-.0218.035Zm2.5529-.8024-.0249.2916-.152,1.7782a2.3433,2.3433,0,0,1-.1607.6285,1.1332,1.1332,0,0,1-.3035.4254,1.2339,1.2339,0,0,1-.4278.2278,1.3362,1.3362,0,0,1-.4961.0453,1.4736,1.4736,0,0,1-.46-.1089.9384.9384,0,0,1-.3413-.2459,1.9654,1.9654,0,0,1-.24-.3174,1.5468,1.5468,0,0,1-.1542-.34c-.0155-.0555-.0316-.1092-.0471-.1618a.83.83,0,0,1-.0322-.1606.99.99,0,0,1-.0215-.1489c-.0034-.0493-.0062-.0934-.0078-.1328l-2.72,1.7349.0248-.2916.0046-.0547a.2364.2364,0,0,1,.0123-.054.3482.3482,0,0,1,.0086-.0541.2349.2349,0,0,1,.0155-.0465l.003-.04.0032-.0328.0012-.0145.0017-.0218a.0209.0209,0,0,1-.0063-.0149l.0018-.0221c-.002-.0346-.0028-.07-.0022-.1065s.0024-.0748.0059-.1133l.0251-.2917,2.5882-1.621-2.4322-.2077.0251-.2916.0035-.0439a.1343.1343,0,0,1,.0116-.0432l.0016-.0178a.0225.0225,0,0,1,.0091-.0175.0489.0489,0,0,1,.0054-.0219.0423.0423,0,0,0,.0057-.0217l.002-.0214a.022.022,0,0,1-.0063-.0155l.0012-.0143c-.0026-.03-.0038-.0595-.0038-.0887s.001-.0586.0036-.0879l.0248-.2912,5.2511.4487"/></g><g id="path80"><path class="cls-2" d="M87.7906,77.3489a.48.48,0,0,0-.0308.0729l-.0016.0107-.0016.0108-.0017.0109-.0018.0109c.0006.03.0026.0585.0059.0861s.0062.0515.0082.0714l-.0378.2906L82.53,77.102l.0449-.289c.003-.0191.0079-.0418.0145-.068a.7.7,0,0,1,.0232-.074l.0018-.0111.0018-.0107.002-.0147.0024-.0143c-.0006-.0293-.0006-.0553,0-.0776a.6513.6513,0,0,1,.0069-.0691l.0454-.2891,5.2071.812-.0453.2891a.3421.3421,0,0,0-.0444.0634"/></g><g id="path82"><path class="cls-2" d="M84.0916,81.7984l1.587-.2506L84.36,80.63Zm2.9556-.0262-.0658.2853-.0373.1637-5.7,1.0013.0654-.2851.0105-.0463.0125-.0536.0122-.0531.0139-.0608.0075-.0321a.07.07,0,0,1,.0147-.03l.0074-.0324.0073-.032a.0715.0715,0,0,1,0-.0338l.0072-.032.0068-.0286.0051-.0213.0056-.0248.0058-.0252.0654-.2849,2.226-.3139.334-1.454L82.1727,79.181l.0656-.2851.0075-.032.0072-.032.0157-.0338a.0284.0284,0,0,1-.0024-.0234l.0045-.0213.0058-.0252.0058-.0249.0656-.2848.01-.043.01-.0425,4.68,3.4392"/></g><g id="path84"><path class="cls-2" d="M19.4929,92.0173l.1385.25a.1935.1935,0,0,0,.0013.0727.59.59,0,0,0,.0215.0781l.0068.0124.007.0125.0052.0091.0052.01.0069.0125a.5489.5489,0,0,0,.0495.05l.0426.0372.1451.2462L15.694,95.1615a.6522.6522,0,0,0,.0321.105.9157.9157,0,0,0,.0521.11.861.861,0,0,0,.0488.1038l.0588.1059.0311.0563a.2368.2368,0,0,0,.0344.0465l.0294.0529.0294.053q.0757.121.1483.236l.145.23q.0755.1046.1374.1928c.0413.0588.0779.1121.11.1594l.1451.2461q-.03.0082-.0533.0133a13.9555,13.9555,0,0,1-.0867.032l-.0332.0185-.04.0221-.0332.0186a.1958.1958,0,0,0-.0348.0235.1293.1293,0,0,0-.0246.0258l-.0166.0092a.0639.0639,0,0,0-.02.0191l-.0166.0093-.0166.0091-.0363.0287-.1386-.25-1.2533-2.26,4.6-2.561"/></g><g id="path86"><path class="cls-2" d="M21.8556,96.0833a.4622.4622,0,0,0,.0256.0729l.006.0091.006.0088.0057.0089.006.0092c.02.0207.04.04.0612.0576s.0386.0328.0535.0459l.1644.2336-4.3749,2.9176-.158-.2379a.7716.7716,0,0,1-.0663-.1272l-.0059-.0092-.006-.0089-.0079-.0117-.008-.0122c-.02-.0206-.0368-.0393-.0508-.056a.5225.5225,0,0,1-.0408-.0545l-.1579-.2375L21.6884,95.77l.1581.2375a.3359.3359,0,0,0,.0091.0756"/></g><g id="path88"><path class="cls-2" d="M23.2739,98.1658l.1868.2159.1447.1672-1.6168,3.8238,4.04-1.0223.1868.2159.1493.1727-3.6083,3.88-.1867-.2156c-.0187-.0219-.0364-.0442-.0531-.0674a.6321.6321,0,0,1-.0427-.0668l-.0211-.0245a.0661.0661,0,0,1-.0153-.0292.0209.0209,0,0,1-.0151-.0059l-.0093-.011q-.0338-.0272-.067-.06c-.0223-.0221-.0457-.0472-.0706-.076l-.1866-.2158,2.4141-2.4836-3.5688.9627-.1869-.2161-.0747-.0862,1.4443-3.3144-2.7452,1.9959-.1868-.2158a.31.31,0,0,1-.0275-.0374.5048.5048,0,0,1-.0264-.0481l-.007-.008-.007-.0079a.02.02,0,0,1-.015-.0062.1245.1245,0,0,1-.0338-.0272l-.028-.0324-.1867-.2159,4.4205-2.94"/></g><g id="path90"><path class="cls-2" d="M27.7956,106.6249l.4584-1.5347-1.3785.8121Zm1.2438-2.6775.2244.1764.129.1011L27.8364,109.78l-.2247-.176-.0363-.029-.0422-.0328-.0419-.0331-.0479-.0374-.0251-.02a.0652.0652,0,0,1-.0206-.0259l-.0253-.02-.025-.02a.067.067,0,0,1-.03-.0139l-.0253-.02-.0225-.0179-.0168-.0129-.02-.0155-.02-.0155-.2244-.1764.6762-2.1372-1.1445-.8992-1.8655,1.2032-.2245-.1763-.0252-.02-.0251-.02-.0234-.0281a.0275.0275,0,0,1-.0215-.0073l-.0169-.0131-.02-.0153-.0194-.0155-.2246-.1763-.0336-.0264-.0336-.0267,5.0517-2.8091"/></g><g id="path92"><path class="cls-2" d="M37.0027,109.1533q.2234-.0345.4431-.0706.2174-.0285.3975-.0687a3.3647,3.3647,0,0,0,.33-.0894l.2749.0765.1479.1011-1.528,4.9824-.2725-.0841a.6147.6147,0,0,1-.0694-.0412.6516.6516,0,0,0-.0626-.0393c-.0286-.0034-.0579-.0056-.0873-.007a.8381.8381,0,0,1-.101-.0109l-.2727-.0839,1.3183-4.2985-.5663.1439-.2725-.0837c-.0046-.0014-.009-.0067-.0137-.0163a.2182.2182,0,0,1-.0138-.04l-.0057-.0295a.0372.0372,0,0,1-.0012-.02l-.006-.0293a.1165.1165,0,0,0-.0081-.0225.0849.0849,0,0,0-.0068-.0259.0781.0781,0,0,1-.0069-.0261.0517.0517,0,0,1-.0149-.0245.1351.1351,0,0,0-.008-.0225.3164.3164,0,0,0-.0185-.0493.0976.0976,0,0,0-.03-.037l.0044-.0145q.2265-.0339.45-.0686"/></g><g id="path94"><path class="cls-2" d="M42.2551,111.1821a1.2963,1.2963,0,0,0,0,.38.9038.9038,0,0,0,.11.31.6451.6451,0,0,0,.1759.192.6949.6949,0,0,0,.2445.1089.5694.5694,0,0,0,.231-.0612.6122.6122,0,0,0,.1936-.1586,1.184,1.184,0,0,0,.2582-.5952,1.2818,1.2818,0,0,0-.001-.3456,1.0362,1.0362,0,0,0-.1042-.3284.6214.6214,0,0,0-.4-.3447.58.58,0,0,0-.2493.063.6087.6087,0,0,0-.1988.1694,1.0767,1.0767,0,0,0-.1745.2876,1.33,1.33,0,0,0-.0866.33Zm-.5408,2.4073a2.43,2.43,0,0,0,.0193.5361,1.1969,1.1969,0,0,0,.131.3972.748.748,0,0,0,.2134.2356.9407.9407,0,0,0,.3191.142.6292.6292,0,0,0,.2836-.0508.6866.6866,0,0,0,.2268-.1656,1.721,1.721,0,0,0,.206-.28,1.47,1.47,0,0,0,.1381-.3117.2713.2713,0,0,1,.0095-.0447.3165.3165,0,0,1,.0165-.044.26.26,0,0,1,.0086-.0371.2905.2905,0,0,0,.0095-.0452l.0054-.0413a.156.156,0,0,1,.0125-.0405l.005-.0376.0062-.0453.0039-.03.004-.03a.0694.0694,0,0,1-.0032-.031l.004-.03.004-.03.0039-.03a.0716.0716,0,0,1-.0029-.0312l.0039-.03a1.7066,1.7066,0,0,0-.033-.35,1.2662,1.2662,0,0,0-.1144-.33.5656.5656,0,0,0-.197-.2255,1.0016,1.0016,0,0,0-.3095-.1331.6925.6925,0,0,0-.2755.0441.7746.7746,0,0,0-.231.1419,1.2713,1.2713,0,0,0-.2111.237,1.3177,1.3177,0,0,0-.1443.276c-.0141.034-.0271.07-.039.1064s-.0232.0752-.0332.1147c-.0093.0344-.0175.0692-.0244.104s-.0125.0674-.0165.0976Zm-.0251-1.5805a.9289.9289,0,0,1-.2184-.278,1.0926,1.0926,0,0,1-.1131-.3414,1.2576,1.2576,0,0,1-.0032-.3574l.005-.0375.0039-.03a1.2025,1.2025,0,0,1,.1523-.39,1.3541,1.3541,0,0,1,.3037-.34,1.1033,1.1033,0,0,1,.466-.207,1.9044,1.9044,0,0,1,.6267-.009l.2838.03a1.8811,1.8811,0,0,1,.5771.1761,1.0682,1.0682,0,0,1,.3848.3274,1.4371,1.4371,0,0,1,.198.4059,1.1078,1.1078,0,0,1,.0376.4232l-.001.0077-.001.0074a1.0958,1.0958,0,0,1-.1034.3471,1.3985,1.3985,0,0,1-.2053.3029.9068.9068,0,0,1-.2994.2252,1.2547,1.2547,0,0,1-.3844.1063,1.3714,1.3714,0,0,1,.4657.2036.9534.9534,0,0,1,.3026.3511,1.4413,1.4413,0,0,1,.148.43,1.6848,1.6848,0,0,1,.015.4584l-.0056.0416-.0044.0339-.002.0153-.002.0151a.0632.0632,0,0,0-.01.0215l-.002.0151a1.62,1.62,0,0,1-.2.5108,1.7916,1.7916,0,0,1-.3772.4334,1.2157,1.2157,0,0,1-.525.2719,1.9216,1.9216,0,0,1-.6657.0308l-.2825-.0373-.0425-.0056-.0282-.0038a2.28,2.28,0,0,1-.7226-.2184,1.2041,1.2041,0,0,1-.4544-.3982,1.6059,1.6059,0,0,1-.2256-.4977,1.38,1.38,0,0,1-.0288-.5182l.0032-.0227.002-.0149a1.5166,1.5166,0,0,1,.1353-.454,1.7794,1.7794,0,0,1,.2737-.4126,1.215,1.215,0,0,1,.3823-.3063,1.2431,1.2431,0,0,1,.459-.1275l.002-.0149a.8607.8607,0,0,1-.3195-.1692"/></g><g id="path96"><path class="cls-2" d="M49.91,110.3485l.0042.2969q-.153.2835-.3095.571t-.3167.5787c-.0509.0971-.1035.1953-.1566.295s-.1056.1981-.1566.2953l-.1632.2988q-.08.1458-.1567.299-.1529.2835-.3023.5783t-.2954.5863c-.0511.097-.1006.1952-.1493.2947s-.098.198-.1491.2952c-.0461.102-.094.2014-.1425.2986s-.096.1966-.1419.2988a.2023.2023,0,0,1-.0173.0419.2.2,0,0,1-.0244.0348.0441.0441,0,0,0-.0106.0191l-.0034.019-.0107.0156a.0111.0111,0,0,1-.01.0077l-.2849.0038c-.0286,0-.056.0006-.0821.001l-.0747.001-.0678.0007-.068.001-.0606.0011-.0678.0007-.0674.001-.0749.0011,2.4565-4.515-2.23.1363-.2851.0042a.0574.0574,0,0,0,.01-.027.4.4,0,0,1,.01-.0419.2929.2929,0,0,1,.003-.0458.32.32,0,0,1,.01-.0457l0-.0227,0-.0231,0-.0188c0-.0076,0-.0142,0-.0191l-.0006-.0268a.0271.0271,0,0,1,.0072-.019l0-.0267,0-.0189c0-.0305-.002-.0609-.0048-.0915s-.0069-.06-.0117-.0911-.0091-.06-.0119-.0912a.4416.4416,0,0,0-.0191-.0908l0-.0153.285-.0038,3.1435-.0424"/></g><g id="path98"><path class="cls-2" d="M52.9719,113.5377l.01.0565.0083.0485a.3994.3994,0,0,0,.0117.0483.4117.4117,0,0,1,.0122.0479c.01.0344.022.067.0346.0982s.0238.0616.0335.0908a1.6868,1.6868,0,0,0,.1688.33,1.6214,1.6214,0,0,0,.2407.2868.8273.8273,0,0,0,.2407.1593.6684.6684,0,0,0,.2662.0546.679.679,0,0,0,.2568-.1483.8737.8737,0,0,0,.1765-.2349,1.874,1.874,0,0,0,.1173-.329,1.6439,1.6439,0,0,0,.05-.3407c.0012-.0207.0014-.04.001-.058a.5186.5186,0,0,0-.0062-.0569.3421.3421,0,0,0,.0024-.05.4824.4824,0,0,0-.0063-.0569c-.0022-.0409-.005-.0775-.0082-.1105s-.0077-.0667-.0139-.1017a1.5349,1.5349,0,0,0-.1517-.4644,1.1339,1.1339,0,0,0-.2755-.3422.9732.9732,0,0,0-.2594-.1639.8355.8355,0,0,0-.264-.0628.82.82,0,0,0-.2711.17,1.2588,1.2588,0,0,0-.2226.2852,1.0815,1.0815,0,0,0-.1411.38,1.6061,1.6061,0,0,0-.0094.4727Zm-1.0962-1.776a2.2949,2.2949,0,0,1,.3266-.9866,2.1671,2.1671,0,0,1,.574-.639,1.7318,1.7318,0,0,1,.726-.3024l.28-.0558a.1448.1448,0,0,0,.0469,0l.0525-.0089.0282-.0053.0281-.0044a.0283.0283,0,0,0,.0224.0035l.0281-.0046a.2413.2413,0,0,0,.0477.0034.3122.3122,0,0,0,.0532-.0055.3662.3662,0,0,1,.0535-.0052.5119.5119,0,0,1,.0547.0024l.1035.2675-.2812.0483a.5474.5474,0,0,1-.096.0087c-.0313,0-.0613,0-.09,0l-.0173.0029a.05.05,0,0,1-.026-.0032,1.0235,1.0235,0,0,0-.4556.2754,1.5578,1.5578,0,0,0-.32.5144,2.6183,2.6183,0,0,0-.1759.6631,3.5823,3.5823,0,0,0-.0123.7742l.0284-.0244.0287-.0241a.0535.0535,0,0,1,.0121-.0135l.0121-.0137c.0123-.0125.0256-.0251.04-.038s.0306-.0258.0477-.0391a.9273.9273,0,0,1,.2474-.1388,1.7692,1.7692,0,0,1,.356-.0962l.28-.0557a1.6106,1.6106,0,0,1,.5329.0088,1.5169,1.5169,0,0,1,.5.192,1.1685,1.1685,0,0,1,.3848.3892,1.6678,1.6678,0,0,1,.2109.5967l.0038.0227.0051.03.005.03.0052.03a1.954,1.954,0,0,1-.0255.5912,2.0819,2.0819,0,0,1-.1985.5514,1.1111,1.1111,0,0,1-.4081.4252,1.82,1.82,0,0,1-.6447.2266l-.2812.0483-.0279.0048-.0284.0051-.0314.0054-.0318.0052a1.4384,1.4384,0,0,1-1.18-.299,1.5532,1.5532,0,0,1-.4512-.5669,3.1666,3.1666,0,0,1-.2646-.8692l-.0078-.0451-.0079-.045-.0064-.0376-.0077-.0447-.0012-.0078a5.0774,5.0774,0,0,1-.0461-1.3466"/></g><g id="path100"><path class="cls-2" d="M67.0118,106.4028a.9813.9813,0,0,0,.32-.3342.9423.9423,0,0,0,.1184-.41,1.5608,1.5608,0,0,0-.0415-.4268,1.3538,1.3538,0,0,0-.1616-.3838l-.0091-.0124a.0222.0222,0,0,1-.0034-.0163l-.0092-.0119-.0091-.0121-.0185-.0244-.0185-.0244a1.1114,1.1114,0,0,0-.6-.4128.7116.7116,0,0,0-.3649-.0087.9808.9808,0,0,0-.3638.1815l.2224-.1788-.0228.0172-.0169.0131-.0181.0231-.2272.1729-.0227.0173-.4075.3009L66.7,106.64Zm-.9366-2.45a2.5975,2.5975,0,0,1,.5542-.3025,1.14,1.14,0,0,1,.489-.0809.9472.9472,0,0,1,.4319.1441,1.4439,1.4439,0,0,1,.3783.3571l.0137.0182.0241.02.0184.0243.0185.0244a1.5225,1.5225,0,0,1,.2777.5435,1.1322,1.1322,0,0,1,.0076.5291,2.4133,2.4133,0,0,1-.176.4878,2.2857,2.2857,0,0,1-.2745.429,1.5672,1.5672,0,0,1-.1242.1373q-.064.0631-.1228.1274c-.0426.0384-.0847.0754-.1267.1106s-.0838.0683-.1254.1l-.2318.1665a.9916.9916,0,0,1-.0918.08.811.811,0,0,1-.0954.063l1.4429,1.9019-.227.1731a.7433.7433,0,0,1-.0674.0466.6335.6335,0,0,1-.0664.0363l-.0057.0042-.006.0046-.0085.0063-.0084.0066c-.02.0213-.0411.0425-.064.0632s-.05.0424-.08.0656l-.227.1729-3.1846-4.1977.2268-.1729,1.43-1.0894"/></g><g id="path102"><path class="cls-2" d="M68.128,102.3115l.2023-.2016,1.83-1.8227c.0148.0216.0265.04.0356.0562l.0247.0447.0109.0161.0107.0161a.0623.0623,0,0,0,.0112.0213l.0161.0161.0107.0109.0213.0215.0455.0457a.238.238,0,0,0,.0451.0356.1478.1478,0,0,0,.0241.0193.1273.1273,0,0,0,.0288.0137l.0346.02a.148.148,0,0,0,.0288.0141l-.2077.1958q-.0862.065-.1729.13t-.1778.1449q-.0861.0755-.1723.1558c-.0574.0535-.1151.1088-.1723.1658l-.005.0052a.2011.2011,0,0,1-.0326.0431l-.0378.0376-.0407.0406-.0352.0351-.0431.0427-.0479.048a.2345.2345,0,0,1-.0378.0481l-.0429.0429c-.03.03-.06.06-.0885.0881s-.0564.0562-.0835.0828l1.2957,1.306.5563-.5536.4324-.5166.2023-.2016a.343.343,0,0,1,.0326.0585c.0078.0178.0147.0338.0223.0476a.2611.2611,0,0,0,.0352.0456l.04.0406.0217.0214.0213.0219a.1708.1708,0,0,0,.0292.0242.1239.1239,0,0,1,.024.0193c.0175.0108.0372.0221.0583.0332a.7179.7179,0,0,1,.0634.0386l-.2077.196-.6449.5456-.4349.4331,1.52,1.5326a.6707.6707,0,0,0,.0919-.0594.9171.9171,0,0,0,.0914-.08.7757.7757,0,0,0,.0861-.0751l.0861-.0854.0453-.0454a.2135.2135,0,0,0,.0352-.0459l.0431-.0428L72.7,104.56q.096-.1065.1865-.2074c.0606-.0672.121-.1348.1815-.2021q.08-.1014.148-.1851c.0454-.0559.0863-.1056.1233-.1494l.197-.2068a.6538.6538,0,0,1,.0381.0638.5741.5741,0,0,0,.0384.0638.2579.2579,0,0,0,.0374.0481l.0431.0433.0429.0432a.248.248,0,0,0,.0477.0381.244.244,0,0,0,.05.0251.1248.1248,0,0,0,.0342.0092l-.2023.2015-1.8711,1.8629-3.6668-3.6964"/></g><g id="path104"><path class="cls-2" d="M73.5766,99.9856a.24.24,0,0,0,.0294-.0312,2.6942,2.6942,0,0,0,.2582-.4146,1.0821,1.0821,0,0,0,.1135-.3652,1.4534,1.4534,0,0,0,.0058-.3455.9756.9756,0,0,0-.0736-.2812,1.0346,1.0346,0,0,0-.0836-.17.6388.6388,0,0,0-.1042-.1324c-.0376-.0419-.072-.0761-.102-.1035s-.0554-.0481-.0753-.0638a.5208.5208,0,0,0-.07-.0461c-.027-.0152-.059-.0315-.0968-.0491a.3958.3958,0,0,0-.1172-.0476c-.0438-.01-.0907-.02-.1414-.0294a.73.73,0,0,0-.2371-.0055,1.2411,1.2411,0,0,0-.2636.0646.8237.8237,0,0,0-.2765.1548,1.8686,1.8686,0,0,0-.2771.2906l-.2192.2543,1.6937,1.3373a.06.06,0,0,0,.0372-.0163Zm-2.5549-.7527.1765-.2247,1.0766-1.3689a2.244,2.244,0,0,1,.47-.425,1.0957,1.0957,0,0,1,.48-.18,1.2329,1.2329,0,0,1,.478.05,1.3542,1.3542,0,0,1,.4375.2365,1.5151,1.5151,0,0,1,.325.3427.9536.9536,0,0,1,.1531.3892,1.9571,1.9571,0,0,1,.03.3922,1.5291,1.5291,0,0,1-.0533.3628q-.0247.08-.0473.1582a.8288.8288,0,0,1-.059.1489.9565.9565,0,0,1-.0614.1332q-.0353.0635-.0646.1129l3.1927.0833-.1765.2246-.0332.0421a.2134.2134,0,0,1-.0388.0374.3644.3644,0,0,1-.0364.04.2452.2452,0,0,1-.0375.0293l-.0243.0308-.02.0254-.009.0109-.0131.0169a.0194.0194,0,0,1-.003.0161l-.0131.0169c-.0167.0293-.0348.0587-.0551.0883s-.0417.0594-.0652.0894l-.1767.2245-3.0222-.1038,1.9146,1.5118-.1765.2245-.0266.0334a.1163.1163,0,0,1-.0324.029l-.0109.0141a.0223.0223,0,0,1-.0169.0093.0462.0462,0,0,1-.0163.0145.0453.0453,0,0,0-.0161.0146l-.0135.0169a.0216.0216,0,0,1-.0026.0159l-.009.0111c-.0139.0256-.0282.05-.0439.0743s-.0324.0476-.05.07l-.1767.2246-4.1331-3.2632"/></g><g id="path106"><path class="cls-2" d="M74.0535,95.2639l.1473-.2445a.5764.5764,0,0,0,.0789-.0652c.0222-.0223.0431-.0445.0622-.0666l.022-.0366A.1333.1333,0,0,0,74.38,94.81l.0165-.0567.0161-.057.1409-.2487,2.6606,1.6057a3.3718,3.3718,0,0,0,.8239.3765,1.3462,1.3462,0,0,0,.6681.0318,1.4253,1.4253,0,0,0,.4878-.2141,1.4552,1.4552,0,0,0,.38-.3882,1.6119,1.6119,0,0,0,.2009-.6,1.07,1.07,0,0,0-.0709-.53,1.8948,1.8948,0,0,0-.3664-.5339,3.597,3.597,0,0,0-.619-.5111l-2.7254-1.645.1473-.2445a.0985.0985,0,0,0,.0273-.0088l.0206-.0123a.0419.0419,0,0,0,.0189-.0093.0441.0441,0,0,0,.0123-.0134.0723.0723,0,0,0,.01-.0234.0477.0477,0,0,0-.0006-.0213l.003-.0272.0061-.0171.1406-.2491,2.6083,1.5743a3.5581,3.5581,0,0,1,.7557.5938,2.2673,2.2673,0,0,1,.4523.6855,1.3874,1.3874,0,0,1,.0856.7939,2.6852,2.6852,0,0,1-.3671.9124l-.1471.2449-.0165.0275-.0165.0274-.0165.0278-.0165.0274a2.6924,2.6924,0,0,1-.6482.7683,1.2311,1.2311,0,0,1-.7287.2686,2.8535,2.8535,0,0,1-.7615-.105,2.9458,2.9458,0,0,1-.73-.3194l-.013-.008-2.7647-1.6685"/></g><g id="path108"><path class="cls-2" d="M17.6746,53.5918a.8218.8218,0,0,1-.2327-.2522,1.1864,1.1864,0,0,1-.1165-.2889.8947.8947,0,0,1-.024-.289l.005-.0264.005-.0261.0028-.0153a.0307.0307,0,0,0-.0021-.0163l.0024-.0129.0025-.0131.0278-.1753a1.3733,1.3733,0,0,1,.0661-.2044,1.0317,1.0317,0,0,1,.1-.1842.5894.5894,0,0,1,.1218-.14.518.518,0,0,1,.1385-.0821.3579.3579,0,0,0,.0573.0563.4883.4883,0,0,0,.07.0449c.0266.0141.0572.029.0925.0447s.0728.032.1132.0487l.02.0084.0307.0105-.0331.1741-.0186.069-.031.0054-.0424.0077a.4477.4477,0,0,0-.0537.01.4025.4025,0,0,0-.0492.0153.5422.5422,0,0,0-.1144.0574.7164.7164,0,0,0-.11.09.4977.4977,0,0,0-.07.0813.3473.3473,0,0,0-.0463.1.3329.3329,0,0,0,.0309.1526.6789.6789,0,0,0,.0963.1517.6529.6529,0,0,0,.1832.1544.7366.7366,0,0,0,.2243.0813l.0238.0044.0234.0046.0107.0018.0113-.0022.0106.002.01.002a.591.591,0,0,0,.1462-.0106,1.0916,1.0916,0,0,0,.1582-.0443.7748.7748,0,0,0,.1509-.0912.877.877,0,0,0,.1442-.142l.3286-.4389a1.0884,1.0884,0,0,1,.2115-.1948.79.79,0,0,1,.2394-.1125,1.0084,1.0084,0,0,1,.2563-.0439,1.14,1.14,0,0,1,.255.0193l.029.0053.0237.0046.0105.002.01.0022.0151.0072.01.0021a1.2975,1.2975,0,0,1,.381.1742,1.4989,1.4989,0,0,1,.32.2936.9615.9615,0,0,1,.1966.3695.9209.9209,0,0,1,.0091.4105l-.0332.1745-.0042.0218-.0033.0175-.0032.0173-.0034.0175a.0319.0319,0,0,0-.0085.0163l-.0034.0177-.0034.0173a.033.033,0,0,1-.0086.0165.0769.0769,0,0,1-.0067.0215l-.006.0167a1.113,1.113,0,0,1-.0757.1548c-.03.05-.0614.0992-.096.1467a1.0419,1.0419,0,0,1-.2252.21l-.0122.0068-.0113.0024c-.0294-.0175-.059-.0338-.0888-.0485a.5546.5546,0,0,0-.0809-.0334c-.0136-.0058-.0261-.01-.0382-.0143a.3272.3272,0,0,0-.039-.01.25.25,0,0,0-.033-.0129.3157.3157,0,0,0-.0389-.01l-.0185-.0036a.0519.0519,0,0,1-.0175-.0078l-.0209-.0041-.0212-.0038-.042-.0082-.0421-.0079.0028-.0718.0332-.1743a2.1911,2.1911,0,0,0,.3715-.1485.4862.4862,0,0,0,.187-.1518c.0217-.038.0412-.0736.0585-.1064s.0316-.0632.0443-.091a.5127.5127,0,0,0-.0306-.2113.4966.4966,0,0,0-.1141-.1732.8862.8862,0,0,0-.21-.155.9816.9816,0,0,0-.2445-.09.8624.8624,0,0,0-.207-.0146.9194.9194,0,0,0-.2057.0354.531.531,0,0,0-.1849.0847.5835.5835,0,0,0-.1424.1467l-.3431.4a1.1686,1.1686,0,0,1-.2733.262.5812.5812,0,0,1-.27.1,2.5221,2.5221,0,0,1-.2665-.001,2.0751,2.0751,0,0,1-.2716-.0338l-.01-.002a1.2676,1.2676,0,0,1-.3718-.1791"/></g><g id="path110"><path class="cls-2" d="M18.8842,50.4921a2.1035,2.1035,0,0,1-.452-.5282,1.4392,1.4392,0,0,1-.2069-.6422,1.581,1.581,0,0,1,.1141-.6844l.0594-.1673a.1849.1849,0,0,0,.021-.0394l.0161-.0413a.1911.1911,0,0,0,.0211-.04l.016-.0414c.0151-.029.0292-.0578.0422-.086s.0269-.0569.042-.0859a1.2789,1.2789,0,0,1,.0892-.163q.0507-.0781.1076-.1511a1.0509,1.0509,0,0,1,.1235-.1329.9958.9958,0,0,1,.1419-.1068l.3456.2487-.0643.1656-.0131.033a2.0726,2.0726,0,0,0-.2066.0958,1.2953,1.2953,0,0,0-.18.1157,1.1233,1.1233,0,0,0-.1474.1357,1.4548,1.4548,0,0,0-.1176.1469c-.01.0153-.0187.031-.0268.0469a.3717.3717,0,0,1-.0253.0426l-.0031.0083-.0024.0062-.0025.0063a.9627.9627,0,0,0-.0208.4083,1.3379,1.3379,0,0,0,.1495.4274,1.4938,1.4938,0,0,0,.3758.4365,2.23,2.23,0,0,0,.5947.3314l.03.0115.03.0117a3.0328,3.0328,0,0,0,.7709.1879,1.1843,1.1843,0,0,0,.5812-.0762,1.3679,1.3679,0,0,0,.3821-.2373,1.0436,1.0436,0,0,0,.2439-.3242,1.3811,1.3811,0,0,0,.0447-.2256,1.253,1.253,0,0,0,.003-.237,1.3755,1.3755,0,0,0-.0382-.248,1.4093,1.4093,0,0,0-.08-.2312l.0594-.1672.2964.1533a.7328.7328,0,0,1,.0223.0753c.0059.0247.0123.0475.0191.0694a.6156.6156,0,0,1,.0123.0715l.0073.07c.0016.0356.0018.07,0,.1024a.8506.8506,0,0,0,.002.0984l-.0022.0348,0,.0308q-.0091.0679-.0167.1316c-.0049.0425-.0119.0844-.02.1256s-.0183.0811-.0294.12-.0243.0769-.0392.1156l-.0644.1654a1.4818,1.4818,0,0,1-.3336.518,1.5575,1.5575,0,0,1-.5474.3443,1.6819,1.6819,0,0,1-.7056.1089,2.5669,2.5669,0,0,1-.7933-.1824l-.01-.0038a2.188,2.188,0,0,1-.6157-.3586"/></g><g id="path112"><path class="cls-2" d="M19.6019,45.7038a.2527.2527,0,0,0,.0315-.037l.0027-.0061.0027-.006.0027-.0062.0028-.0061a.4475.4475,0,0,0,.0089-.0519l.005-.0439.0682-.1642,3.3761,1.5228-.0731.1618a.4148.4148,0,0,1-.0463.0765L22.98,47.15l-.0026.0061-.0036.008-.0036.0079c-.0041.0177-.0081.033-.0121.046a.3173.3173,0,0,1-.0147.0393l-.0732.1618L19.49,45.8942l.073-.162a.1928.1928,0,0,0,.0392-.0284"/></g><g id="path114"><path class="cls-2" d="M20.5441,43.7389l.0809-.1578.7351-1.4288c.0145.0107.0266.02.0363.0286l.0271.0238.0107.0082.0109.0079.0122.0114.0143.0073.01.005.0191.01.04.0209a.1757.1757,0,0,0,.0378.0143l.02.008.0221.004.0268.0061.022.0038-.0858.1556-.08.1086c-.0267.0361-.0531.0759-.0793.119-.0249.04-.0491.0819-.0732.1245s-.0473.0862-.07.131l-.0019.0039a.1168.1168,0,0,1-.01.032l-.0153.03-.0163.0316-.0141.0276-.0175.0338-.0191.0373a.1319.1319,0,0,1-.0125.036l-.0173.0336-.0356.069-.0334.0652,1.1517.5923.2235-.4343.1526-.39.0813-.158a.2608.2608,0,0,1,.0352.0306l.026.0259a.2.2,0,0,0,.0336.0224l.0358.0183.0191.01.0189.01a.1443.1443,0,0,0,.0246.01l.02.0078c.0139.0039.029.0075.0453.0109s.033.0079.05.0135l-.0861.1555-.2822.4436-.1745.34,1.3514.6952a.3585.3585,0,0,0,.0448-.0519.535.535,0,0,0,.0393-.0646.4746.4746,0,0,0,.0372-.0607l.0346-.0671.0183-.0356A.1263.1263,0,0,0,24,44.4384l.0171-.0336.0175-.0336.07-.1586q.0336-.0776.0675-.1549.0271-.076.05-.1389t.043-.1127l.0765-.16a.5067.5067,0,0,1,.04.0334c.0122.0111.0257.0222.04.033a.2053.2053,0,0,0,.036.0234l.0379.02.0382.02a.2309.2309,0,0,0,.04.0155.22.22,0,0,0,.0381.0071.094.094,0,0,0,.0243,0l-.0811.1579-.7512,1.46-3.26-1.6769"/></g><g id="path116"><path class="cls-2" d="M22.2643,40.1939l.0938-.1508.1125-.1809,3.2311-.2886-2.1986-1.3692.0936-.1507a.0443.0443,0,0,0,.03-.0073l.0233-.0171.0073-.032.0026-.0245.0892-.1536,3.1441,1.9577-.0938.1507-.0917.1469-3.32.28,2.267,1.4113-.0938.1509-.0048.0076-.0048.0073-.0091.01-.0072.0059-.0081.0131-.0038.0161-.0081.0134-.0082.0131-.0938.1505-3.1484-1.96"/></g><g id="path118"><path class="cls-2" d="M25.5455,35.7555a.0121.0121,0,0,1-.0012.01l-.0054.007a.0128.0128,0,0,1-.0012.0105l-.0053.0068c-.0245.0373-.0484.0759-.0722.1154s-.0473.08-.0706.1221c-.0079.0163-.0163.0314-.0248.0453a.3443.3443,0,0,0-.0219.042.4452.4452,0,0,1-.0222.0417.4342.4342,0,0,1-.0265.0386c-.0153.0254-.0292.051-.0421.0765s-.0247.0511-.0354.0765c-.0135.0233-.0252.0443-.0348.0628l-.027.0521-.1125.1372a.0431.0431,0,0,0-.011-.0165.1121.1121,0,0,1-.0149-.02l-.0157-.0147-.0171-.0217-.0169-.0131-.0169-.0131-.0085-.0066-.01-.0133-.0086-.0064-.0083-.0067c-.0142-.0107-.0283-.02-.0418-.029a.3721.3721,0,0,0-.04-.0227c-.0159-.0083-.0309-.0169-.0444-.0256a.1576.1576,0,0,0-.0429-.0191l1.42-1.8586.1086-.1405.0236.0264.0149.02a.0625.0625,0,0,0,.0141.0167l.0171.0129.0171.0217.0155.0147.0191.0149.0191.0145.036.028a.307.307,0,0,0,.0431.0275c.0131.0065.0273.0127.0426.0189s.0312.0139.0471.0224l-.1125.1372q-.1164.1067-.2247.2081c-.0725.0674-.14.133-.2029.1966a.9887.9887,0,0,0-.0809.0835c-.0231.0268-.0461.0523-.0686.0757l2.72,2.0989-.1086.1407-.0121.0157a.04.04,0,0,1-.0165.0127.1056.1056,0,0,1-.0171.0175l-.0143.0141-.0026.0036-.0028.0036-.0053.007c-.0082.0163-.0169.0318-.0263.0471a.4963.4963,0,0,1-.03.0439l-.1085.1405-2.7246-2.1022"/></g><g id="path120"><path class="cls-2" d="M27.5084,33.0173a.2515.2515,0,0,0,.0411-.025l.0046-.005.0046-.0049.0043-.005.0044-.005a.4028.4028,0,0,0,.0249-.0465l.0185-.04.116-.1346,2.7306,2.5022-.12.1306a.3857.3857,0,0,1-.03.0294.3751.3751,0,0,1-.0375.0288l-.0044.005-.0044.0049-.0061.0066-.006.0066c-.0093.0155-.0179.0286-.0256.04a.3632.3632,0,0,1-.0263.0328l-.12.131L27.342,33.1632l.12-.1309a.19.19,0,0,0,.0465-.015"/></g><g id="path122"><path class="cls-2" d="M31.4145,31.8988l-1.02-.4393.5283.9764ZM29.64,30.8415l.12-.1309.069-.0754L33.52,32.1578l-.12.1312-.02.0213-.0225.0244-.0222.0247-.0257.0278-.0135.0145a.0357.0357,0,0,1-.0175.0114l-.0135.0147-.0133.0147a.0405.0405,0,0,1-.01.0185l-.0136.0147-.0117.0129-.0091.01-.01.0115-.0107.0115-.12.131-1.42-.6367-.6109.6685.7846,1.3308-.12.1308-.0135.0149-.0135.0147-.0189.0128a.0171.0171,0,0,1-.0051.0135l-.0088.01-.0107.0116-.01.0115-.12.1308-.0179.02-.0181.02L29.64,30.8416"/></g><g id="path124"><path class="cls-2" d="M62.5112,28.8808l.1373.1123,1.244,1.017c-.014.0119-.0257.0218-.0358.03l-.029.0213-.01.0089-.01.0089-.0135.01-.01.0123-.0065.0084-.0135.0165-.0287.0352a.1774.1774,0,0,0-.0222.0339.0873.0873,0,0,0-.0116.0181.0943.0943,0,0,0-.0083.0207l-.0117.0249a.0992.0992,0,0,0-.0086.0208l-.1342-.1165-.0894-.1009c-.03-.0336-.063-.0676-.1-.1022-.0346-.0328-.07-.0652-.1065-.0976s-.0744-.0644-.1137-.0962l-.0034-.0028a.1132.1132,0,0,1-.0292-.0169l-.0259-.0211-.0272-.0224-.0241-.02-.0292-.0239-.0326-.0266a.146.146,0,0,1-.0328-.02l-.029-.0236-.06-.0493-.0567-.0463-.82,1.0026.378.3089.35.2311.1373.1124a.31.31,0,0,1-.0373.0282.32.32,0,0,0-.0306.02.1823.1823,0,0,0-.0291.0282l-.0254.031-.0133.0165-.0137.0167a.1107.1107,0,0,0-.0151.0222l-.012.0179c-.0071.013-.0135.0269-.02.0422a.4863.4863,0,0,1-.0237.0465l-.134-.1165-.3751-.3689L61.8,30.6907l-.962,1.1769a.3656.3656,0,0,0,.0413.0545.5257.5257,0,0,0,.0547.0521.501.501,0,0,0,.0519.0491l.0584.0477.031.0252a.1117.1117,0,0,0,.0308.0183l.0291.0239.03.024q.0716.0519.1407.1012c.0457.033.0914.0656.1372.0984.0457.0282.0874.0545.1252.0783s.0715.0457.1014.0654l.1407.1083a.4431.4431,0,0,1-.0406.0322.4793.4793,0,0,0-.0409.0324.2146.2146,0,0,0-.0306.03l-.0269.0332-.0272.033a.2264.2264,0,0,0-.0234.036.1749.1749,0,0,0-.0155.0362.1112.1112,0,0,0-.0048.0236l-.1374-.1125-1.2715-1.04,2.3205-2.8381"/></g><g id="path126"><path class="cls-2" d="M65.8985,31.8092a.0118.0118,0,0,1-.01-.0026l-.006-.0062a.0131.0131,0,0,1-.01-.0025l-.0066-.0064c-.0334-.029-.0686-.058-.1046-.0871s-.0733-.0574-.1115-.086q-.0224-.0156-.0417-.0308A.3236.3236,0,0,0,65.57,31.56a.4476.4476,0,0,1-.0385-.0276c-.0124-.01-.0241-.0209-.0344-.0312-.0235-.0187-.0467-.0362-.07-.0523s-.0473-.0314-.0708-.0453l-.0576-.0429c-.0171-.0124-.0334-.0235-.0483-.0336l-.1211-.13a.0422.0422,0,0,0,.0183-.0084.12.12,0,0,1,.0217-.0123l.0169-.0135.0236-.0137.0151-.0153.0156-.0149.0075-.0076.0145-.0081.0076-.0076.0075-.0074c.0129-.0125.0241-.025.0348-.0373a.43.43,0,0,0,.0276-.0368c.0108-.0147.0213-.028.0314-.04a.1562.1562,0,0,0,.0247-.04l1.6508,1.6574.1249.1264-.0295.02a.1092.1092,0,0,1-.0216.0123.059.059,0,0,0-.0187.0117l-.0153.0154-.0237.0139-.0167.0135-.0171.0167-.0171.0171-.0322.032a.2846.2846,0,0,0-.0332.0387c-.0081.0124-.0165.0255-.0246.04s-.0177.0288-.0284.0437l-.1209-.13c-.06-.0862-.1189-.17-.1759-.25s-.1133-.1567-.168-.2274a.9872.9872,0,0,0-.0715-.0915c-.0237-.0266-.046-.0528-.0658-.0783l-2.4458,2.4138-.1246-.1265-.0139-.0143a.0384.0384,0,0,1-.0106-.0181.0981.0981,0,0,1-.0149-.0191l-.0121-.0161-.0032-.0031-.0031-.0032-.0062-.0062a.53.53,0,0,1-.0433-.0324.4434.4434,0,0,1-.039-.036l-.125-.1264,2.45-2.4175"/></g><g id="path128"><path class="cls-2" d="M69.5645,35.5851l.1.1461a.1225.1225,0,0,0,.0028.0467.31.31,0,0,0,.0167.0477l.0047.0076.0052.0072.0038.0055.004.0054.0047.0073a.3037.3037,0,0,0,.035.0273l.03.02.1052.1432-2.81,1.93a.3632.3632,0,0,0,.024.064.508.508,0,0,0,.0386.0652.4933.4933,0,0,0,.0356.0616l.0429.0622.0225.033a.1168.1168,0,0,0,.0246.0261l.0217.0312.0209.031c.0365.0469.0719.0924.1069.1367s.07.0887.1044.133c.0361.04.0687.0765.0984.11s.0558.064.0787.0911l.1049.1437-.0361.0137a.1151.1151,0,0,0-.0289.0145.1211.1211,0,0,0-.029.0145l-.0219.0151-.0264.0183-.0221.0153a.1571.1571,0,0,0-.0228.0183.11.11,0,0,0-.0163.0193l-.011.0075a.0469.0469,0,0,0-.0131.0142l-.0109.0075-.0109.0076-.0239.0218-.1006-.1463-.91-1.3244,3.0574-2.1"/></g><g id="path130"><path class="cls-2" d="M70.6085,40.6855l.6913-.8684-1.0807.2536Zm1.4862-1.4346.0948.15.0547.0863-2.4384,3.1623-.0948-.15-.0155-.0242-.0179-.0282-.0177-.0283-.02-.0318-.0108-.0169a.04.04,0,0,1-.0063-.02l-.01-.0169-.0109-.0169a.0363.0363,0,0,1-.0149-.0142l-.0108-.0167-.01-.0151-.007-.0113-.0085-.0129-.0081-.0133-.0951-.15L70.434,40.88l-.4845-.7649-1.49.4077-.0952-.15-.0107-.0169-.0108-.0169-.0071-.0214a.0168.0168,0,0,1-.0118-.0084l-.0069-.0113-.0086-.0131L68.3,40.2721l-.095-.15L68.1912,40.1l-.0145-.0224,3.918-.8262"/></g><g id="path132"><path class="cls-2" d="M72.4557,43.4737a1.0156,1.0156,0,0,0,.1719.3028.7042.7042,0,0,0,.229.18.6555.6555,0,0,0,.271.0574.9283.9283,0,0,0,.3138-.0586l.0195-.0088.0163-.0022.01-.0045.0147-.0066a.6452.6452,0,0,0,.2232-.1566.4714.4714,0,0,0,.1117-.2243.811.811,0,0,0,.01-.2546.8805.8805,0,0,0-.0709-.2524l-.0889-.2276L72.415,43.38Zm-1.6409.8812a.632.632,0,0,0,.358.3852,1.0339,1.0339,0,0,0,.2368.0654.8033.8033,0,0,0,.2307,0l.0207-.0067.027-.0048.02-.0068.0207-.0065a.431.431,0,0,0,.0419-.0112.4155.4155,0,0,0,.04-.0153,1.2522,1.2522,0,0,0,.381-.2437.5074.5074,0,0,0,.1569-.3,1.007,1.007,0,0,0-.0143-.3236,2.115,2.115,0,0,0-.13-.4133l-1.4883.6582ZM73.65,42.2177l.0719.1624.4254.9618a.0274.0274,0,0,0-.0018.0225l.0083.0185.008.0181.0079.0185a1.023,1.023,0,0,1,.0682.2659,1.0793,1.0793,0,0,1-.0045.2737.4309.4309,0,0,1-.1209.25.9208.9208,0,0,1-.3011.1988l-.015.0063-.0145.0066-.02.0085-.0148.0066a.9166.9166,0,0,1-.2961.0777,1.0287,1.0287,0,0,1-.3048-.02.8008.8008,0,0,1-.2745-.1117.8093.8093,0,0,1-.2063-.195,1.5313,1.5313,0,0,1,.0354.3048,1.1276,1.1276,0,0,1-.032.2858.4986.4986,0,0,1-.1582.2568,1.2475,1.2475,0,0,1-.3421.2121,1.3911,1.3911,0,0,1-.4793.127.742.742,0,0,1-.3951-.08,1.13,1.13,0,0,1-.3089-.2151,1.0522,1.0522,0,0,1-.2107-.2975l-.0718-.1624-.0046-.01-.0041-.01-.0056-.0123-.0054-.012-.01-.0224-.008-.0183-.3681-.8321L73.65,42.2176"/></g><g id="path134"><path class="cls-2" d="M73.7875,46.8462a2.8114,2.8114,0,0,0-.6727.3106,1.4986,1.4986,0,0,0-.4347.42,1.2062,1.2062,0,0,0-.1876.4416,1.0472,1.0472,0,0,0,.0163.4642.929.929,0,0,0,.2508.3546,1.1758,1.1758,0,0,0,.4057.2248,1.75,1.75,0,0,0,.6015.0837,3.2433,3.2433,0,0,0,.73-.1077L74.52,49.03l.0179-.006.02-.0065.02-.0066a2.267,2.267,0,0,0,.5834-.2816,1.6878,1.6878,0,0,0,.4232-.4113,1.25,1.25,0,0,0,.2006-.4552,1.0439,1.0439,0,0,0-.0139-.4739.9586.9586,0,0,0-.2254-.3373.8466.8466,0,0,0-.3431-.1964,2.3838,2.3838,0,0,0-.451-.0886,2.5426,2.5426,0,0,0-.4568-.0024c-.0471.0059-.0921.0113-.1354.0161s-.0865.0109-.1294.0188-.0847.016-.1268.0251-.0827.0167-.1217.0234Zm-.1487-.619.0434-.0141a.5171.5171,0,0,1,.0516-.0145c.0175-.0042.035-.0076.0531-.0106a2.1079,2.1079,0,0,1,.6329-.0525,2.3721,2.3721,0,0,1,.645.14,1.3123,1.3123,0,0,1,.5493.3625,1.7316,1.7316,0,0,1,.35.6328l.06.1671a2.2663,2.2663,0,0,1,.09.7061,1.0972,1.0972,0,0,1-.17.548,2.1989,2.1989,0,0,1-.3371.4158,2.0055,2.0055,0,0,1-.418.3069.4375.4375,0,0,1-.0571.0324c-.0193.01-.0372.0183-.0529.0269l-.0582.0284-.0586.0282c-.039.0189-.0775.0356-.1159.05s-.076.0286-.1127.0437l-.01.0034-.0155.0048-.02.0068-.0153.0051a2.3545,2.3545,0,0,1-.8.1278,1.575,1.575,0,0,1-.6916-.1781A1.7435,1.7435,0,0,1,72.65,49.19a1.564,1.564,0,0,1-.3077-.5462l-.0551-.1686-.0057-.0171-.0054-.0169-.0061-.0187-.0064-.0192q-.0178-.0546-.0324-.1084a.9765.9765,0,0,1-.0223-.1117.681.681,0,0,1-.0153-.1165c-.002-.04-.0038-.08-.0049-.1194a1.3122,1.3122,0,0,1,.0606-.4681,2.1268,2.1268,0,0,1,.2246-.4845,1.42,1.42,0,0,1,.43-.4321,2.7643,2.7643,0,0,1,.6816-.3182l.01-.0034.0431-.0139"/></g><g id="path136"><path class="cls-2" d="M75.4177,51.8656a.1248.1248,0,0,0,.0029.0267,1.5111,1.5111,0,0,0,.0986.2874.63.63,0,0,0,.14.1974.9188.9188,0,0,0,.18.1367.6786.6786,0,0,0,.1822.0728.7511.7511,0,0,0,.1281.025.5153.5153,0,0,0,.1178,0c.0394-.0023.0734-.0059.1018-.01s.0509-.0085.0686-.0123a.4665.4665,0,0,0,.0568-.0165q.03-.0111.07-.0284a.3088.3088,0,0,0,.0793-.0394c.0255-.0175.0523-.0368.0807-.0578a.528.528,0,0,0,.1125-.1145.8438.8438,0,0,0,.0877-.1549.492.492,0,0,0,.0461-.1956,1.03,1.03,0,0,0-.0251-.2487l-.0324-.2063-1.4872.3137a.0353.0353,0,0,0-.0085.0246Zm1.577-.9634.0366.1737.2234,1.06a1.2434,1.2434,0,0,1,.007.3955.6786.6786,0,0,1-.127.3058.8918.8918,0,0,1-.2473.2154,1.0733,1.0733,0,0,1-.3262.1235,1.1919,1.1919,0,0,1-.3309.0266.6924.6924,0,0,1-.2757-.0755,1.3029,1.3029,0,0,1-.2207-.1372.9061.9061,0,0,1-.1664-.167c-.0208-.029-.0411-.0568-.0616-.0844a.4673.4673,0,0,1-.0511-.0867.5493.5493,0,0,1-.0421-.0821q-.0166-.0417-.0294-.0753L73.8642,54.03l-.0365-.1735-.0072-.0326a.1236.1236,0,0,1-.0016-.0338.1988.1988,0,0,1-.0042-.033.13.13,0,0,1,.002-.03l-.0049-.0241-.0044-.02-.0018-.0087-.0026-.0129-.0071-.0076-.003-.0131c-.0076-.02-.0143-.04-.0211-.0614s-.0117-.0435-.0169-.0666l-.0364-.1737,1.4509-1.4447-1.6807.3546-.0371-.1737-.0054-.0261a.0763.0763,0,0,1,0-.027l-.0024-.011A.0126.0126,0,0,1,73.4466,52a.0258.0258,0,0,1,0-.0137.0288.0288,0,0,0,0-.0137l-.0028-.0131-.0071-.0076-.0016-.0085a.4361.4361,0,0,1-.0189-.05.4553.4553,0,0,1-.0137-.0515l-.037-.1737,3.6294-.7659"/></g><g id="path138"><path class="cls-3" d="M73.7907,94.61c-.3232.3129.3236-.313,0,0h0"/></g><g id="path140"><path class="cls-4" d="M71.9268,63.1718c0-.2932.8265-.5683,1.0918-.7037.2517.3624.5461.4572.5461.88,0,.1966-.8806.7049-.91.7049-.2032,0-.7279-.8528-.7279-.8812ZM57.148,75.1337l-.5741-.8609L70.463,64.2168l.5593.8885Zm6.07,11.7735c-.7526,3.2464-4.2786,6.9227-4.2786,6.9227L53.5,87.2081l-.9891.817-.043-1.8275,10.2555-.1935-4.429-5.3536-6.0342.1076-.516-13.7024-8.8294.1145.2222,13.7815-6.1489.1288-4.3,5.59,10.6424-.1936-.0861,1.763-1.0964-.7524-5.1815,6.88s.0644.4085-2.494-2.666-3.5474-8.1484-3.2464-11.61a20.0819,20.0819,0,0,1,2.4992-7.1583l4.3528,3.0933,1.02-1.4988-4.4007-3.1251s3.1285-3.7813,6.9555-5.028a16.6465,16.6465,0,0,1,10.9649-.1507,14.6655,14.6655,0,0,1,7.3954,5.0592l-3.9554,2.8314L57.1031,75.6,61.1022,72.71a14.7633,14.7633,0,0,1,2.5239,5.941c.6878,4.689.3441,5.0094-.4083,8.256Zm-5.6832,8.1267-3.3825-4.1852.8312-.6593,3.44,4.0993Zm-3.2152,1.92c-1.3932.5711-2.8776,1.005-2.8776,1.005l-.2511-8.7243.9362.0229,4.8875,6.2577a17.681,17.681,0,0,1-2.695,1.4387Zm-4.6966,1.3765-.0861-5.5325,1.0893.0286.1435,5.3318ZM48.0174,88.369V86.391h3.5689v1.978Zm-.774,10.0763V97.528H48.992l.0287.7454Zm-1.6771-.2294-.129-5.2029,1.0752-.0861.129,5.4612Zm2.9672-8.9222v3.5044H47.4156V89.2937Zm-1.6628-9.3095-2.2646-.0288V77.6335h2.236Zm.6593-8.858s1.5193.1721,1.462,1.3759-1.4333,1.3187-1.4333,1.3187Zm.0575,2.8093-.0288,2.4368-3.01.0284-.2008-7.5678,3.096-.0286.0574,2.15s-1.548.258-1.462,1.4619,1.5481,1.5193,1.5481,1.5193ZM34.63,85.6887l2.81-3.612L47.8455,81.79l-.1435-5.3318,3.0675-.1435-.2008-7.5966h-3.01l-.0287-.8315,3.44-.0284.5448,13.8746-3.6692.0572-.0288,3.7553Zm6.8544,11.5166a15.2942,15.2942,0,0,1-2.4211-1.256l4.7048-6.5318.9363-.0226.0914,8.7469a20.7362,20.7362,0,0,1-3.3114-.9365Zm-3.07-1.6554-.8887-.6593L40.8508,90.39l.946.66ZM23.5182,65.1053l.5808-.8583L38.6521,74.6555l-.6905.8833ZM21.886,64.053c-.0159,0-.7816-.462-.9835-.5695l.607-1.0221,1.07.5915c-.0451.23-.4005,1-.6931,1Zm51.1326.5271c0-.2916,1.0343-.9153,1.274-1.232L73.16,61.7919l-1.5811.8768c-1.1213-.7408-5.5256-5.33-7.4765-4.4247.6808.9835,5.8241,4.4587,5.8241,5.6327,0,1.0757-6.1469,3.491-7.2794,4.2249l-1.8635-1.7194,1.885-3.374a7.4341,7.4341,0,0,0-2.206-1.5956c-.4492,0-2.4235,2.3748-2.7292,2.8155L55.4,63.1112l.712-3.9841a17.6677,17.6677,0,0,0-2.564-.7074c-.3457,0-1.7512,3.0631-2.0009,3.52L49.192,61.517c-.1934-.687-.2417-3.9777-1.1024-3.9777h-2.366l-.5862,4.0429-2.5131.3254c-.0986-.4031-1.5022-3.4879-1.8139-3.4879a17.4084,17.4084,0,0,0-2.5477.7034l.7111,4.0525-2.35,1.05c-.2816-.4065-2.4556-2.8129-2.91-2.8129a12.4253,12.4253,0,0,0-2.0007,1.5835,32.9915,32.9915,0,0,0,1.819,3.3444L31.756,68.1428c-1.267-.6671-7.14-3.2391-7.14-4.4427,0-.34,4.9648-4.8827,5.8221-5.1041-.573-2.0788-7.5828,4.0486-7.6425,4.0486-.25,0-.7756-.7048-1.2729-.7048-.2646,0-1.11,1.1726-1.2748,1.4083.3105.4482,1.2748,1.0165,1.2748,1.232,0,.3691-2.3666,4.2969-2.3666,6.6888v1.4083h.5462c.15-1.7414,2.5791-5.7718,3.4575-7.0408.9269.6005,3.6813,1.9727,3.4571,2.9922L29.4538,71.17l-1.0793,2.1814-4.12-.689a16.2915,16.2915,0,0,0-.7307,2.4792c0,.3355,3.1679,1.6951,3.64,1.936l-.4234,2.28-4.12.574-.0066,2.2516c0,.7812,3.386.9913,4.1859,1.0551l.2953,2.298c-.4031.232-3.571,1.5918-3.571,1.9275a15.8324,15.8324,0,0,0,.7287,2.4645l4.1787-.7351c.168.6989.916,1.7168.916,2.1428,0,.1763-2.4032,2.3457-2.73,2.8166L28.1614,96.33l3.541-1.8438,1.79,1.64c-.1874.3775-1.78,3.2736-1.78,3.4835,0,.268,1.8575,1.4171,2.1823,1.5835l2.84-2.88L38.95,99.51l-.7285,3.9657,2.7528.7681,1.7179-3.5486,2.4779.3729.6011,3.8159,2.8645.007.5888-3.8666,2.4988-.3888,1.6425,3.5513,2.7119-.7611-.72-3.99,2.2048-1.0378,2.8521,2.84A13.28,13.28,0,0,0,62.6467,99.61c0-.5039-1.8206-3.0164-1.8206-3.5215a7.7907,7.7907,0,0,1,1.6389-1.584c.7757,0,2.8223,1.5355,3.8213,1.7605l1.4709-2.101L64.875,91.2936l1.131-2.0252,4.089.564L70.9,87.3083l-3.703-1.7824.3908-2.2828c.8024-.1914,4.1572-.1685,4.1572-1.0592V79.8946l-4.1815-.5469-.3665-2.4457c.45-.101,3.639-1.4588,3.639-1.76a16.032,16.032,0,0,0-.7279-2.4647l-4.1886.6884-1.086-2.2732c1.9518-1.2654,4.4566-4.9436,6.73-5.456L75.19,72.7689l.1942-.0917v-1.232c0-2.8993-2.3655-6.3924-2.3655-6.8651"/></g><g id="path142"><path class="cls-4" d="M50.2344,78.9389a.4743.4743,0,1,0,.4743.4742.4743.4743,0,0,0-.4743-.4742"/></g><g id="path144"><path class="cls-4" d="M50.12,78.4483a.4743.4743,0,1,0-.4743-.4743.4742.4742,0,0,0,.4743.4743"/></g><g id="path146"><path class="cls-4" d="M49,78.9961a.4743.4743,0,1,0,.4743.4743A.4742.4742,0,0,0,49,78.9961"/></g><g id="path148"><path class="cls-4" d="M48.9342,78.4483a.4743.4743,0,1,0-.4743-.4743.4741.4741,0,0,0,.4743.4743"/></g><g id="path150"><path class="cls-2" d="M56.7936,53.359A47.2,47.2,0,0,0,46.6972,51.68c-6.624-.0575-9.6011,1.5077-9.6011,1.5077A42.2627,42.2627,0,0,1,39.167,47.24a27.73,27.73,0,0,1,2.4338-4.2406l.2331-.0831.4115-.5363a18.1407,18.1407,0,0,1-2.4656-.4761c-.9563-.2924-1.39-.4665-1.39-.4665s1.6353-2.65.8744-3.6859c-.51-.6945-7.1174-10.1338,4.7443-14.3637,2.3557-.84,5.1956.6134,5.1956.6134s-5.5015-.78-6.9486,3.8747a10.7135,10.7135,0,0,0,.5017,7.4625l2.0015-1.29s-.9929-4.455-.3838-5.9982c2.0492-5.1921,7.623-2.9171,9.2236-1.5253a39.5442,39.5442,0,0,1,3.568,3.9946,17.65,17.65,0,0,0-2.7328.0251,10.5331,10.5331,0,0,0-4.28,1.164c-2.6867,1.5678-2.4368,2.0742-2.4368,2.0742a12.918,12.918,0,0,0,.8148,4.0346,12.92,12.92,0,0,0,1.4594,2.591,11.5974,11.5974,0,0,1-4.2,1.8031c-1.2489.1463-2.9363.202-2.9363.202l-.62,1.131a42.6654,42.6654,0,0,0,6.3155,5.453c2.8607,1.8148,2.1964,1.3545,2.1964,1.3545a11.118,11.118,0,0,1-.6828-5.0064,13.59,13.59,0,0,1,1.1062-3.5986s4.07,1.4131,3.87-.6484c-.0885-.9122-.3874-.5646-.0781-1.052s.0936-.745-.1237-.832l-.2168-.0873-.0645-.15s.5224.09.72-.1214a1.4019,1.4019,0,0,0,.1181-1.0432c-.0624-.32-.126-.5337.3315-.53s1.7854.1646,1.1627-.885-.9275-1.0948-1.1406-1.6721-.4769-.281-.4284-.8559A3.1674,3.1674,0,0,0,55.2,32.7184c-.1714-.3425-1.2129-2.0989-1.2129-2.0989l.4581-.06s.6715,1.1668,1.0412,1.7991c.7514,1.2849.0746,1.45.2692,1.6431a12.4494,12.4494,0,0,1,1.3978,2.1217c.2132.5345.6871,1.178.2067,1.3016s-1.3509-.033-1.4409.3071.2122.6411.0562,1.0446a2.2728,2.2728,0,0,0-.2461.7436,4.61,4.61,0,0,0-.2713,1.1483c.0167.5542.2916,1.5155-.6921,1.8906a7.9836,7.9836,0,0,1-2.2-.04c-.6754-.0272-1.2177-.2876-1.2865.0952a12.8941,12.8941,0,0,0-.8368,3.5088,13.4233,13.4233,0,0,0,.9647,4.3554c.4094.515,5.3864,2.8809,5.3864,2.8809"/></g><g id="path152"><path class="cls-2" d="M51.531,33.6985a1.5537,1.5537,0,0,0,1.1032-.3206,1.7064,1.7064,0,0,1,1.6147-.22c.3035.1626.63.2079.7617.1026s.0405-.916-1.1036-.9047c-1.1372.0114-1.0822.3956-1.6079.7212a3.2987,3.2987,0,0,0-.7681.622"/></g><g id="path154"><path class="cls-2" d="M54.3558,33.3716c.1123-.1342.3817-.0181.27.2472s-.3623.338-.3307.466.3.5247.027.6609-.5677.0075-.5242-.2356-.3578-.1924-.4559-.031-.1416.364-.28.3628-.0485-.7848.2147-.85a2.1172,2.1172,0,0,0,1.0787-.62"/></g></g></g></g></svg>